<svg width="24" height="24" viewBox="0 0 24 24" fill="none" xmlns="http://www.w3.org/2000/svg">
<path d="M10.4997 10.0138C11.3282 10.0138 11.9997 9.34226 11.9997 8.51383C11.9997 7.6854 11.3282 7.01383 10.4997 7.01383C9.6713 7.01383 8.99973 7.6854 8.99973 8.51383C8.99973 9.34226 9.6713 10.0138 10.4997 10.0138Z" fill="black"/>
<path d="M8.49973 15.0138C9.32815 15.0138 9.99973 14.3423 9.99973 13.5138C9.99973 12.6854 9.32815 12.0138 8.49973 12.0138C7.6713 12.0138 6.99973 12.6854 6.99973 13.5138C6.99973 14.3423 7.6713 15.0138 8.49973 15.0138Z" fill="black"/>
<path d="M14.9997 16.0138C15.552 16.0138 15.9997 15.5661 15.9997 15.0138C15.9997 14.4615 15.552 14.0138 14.9997 14.0138C14.4474 14.0138 13.9997 14.4615 13.9997 15.0138C13.9997 15.5661 14.4474 16.0138 14.9997 16.0138Z" fill="black"/>
<path d="M21.9497 11.0038C20.1597 10.9738 18.2497 9.05383 19.2697 6.78383C16.2997 7.78383 13.4897 5.19383 14.0797 2.22383C7.10973 0.75383 1.99973 6.42383 1.99973 12.0138C1.99973 17.5338 6.47973 22.0138 11.9997 22.0138C17.8897 22.0138 22.5397 16.9338 21.9497 11.0038ZM11.9997 20.0138C7.58973 20.0138 3.99973 16.4238 3.99973 12.0138C3.99973 8.70383 6.72973 3.83383 12.0797 3.99383C12.4997 6.53383 14.5197 8.55383 17.0697 8.93383C17.1397 9.29383 17.5897 11.4838 19.9897 12.5638C19.6997 16.8738 16.0597 20.0138 11.9997 20.0138Z" fill="black"/>
</svg>
