<svg width="24" height="24" viewBox="0 0 24 24" fill="none" xmlns="http://www.w3.org/2000/svg">
<path d="M9.5 11.9961C9.5 12.5461 9.05 12.9961 8.5 12.9961C7.95 12.9961 7.5 12.5461 7.5 11.9961C7.5 11.4461 7.95 10.9961 8.5 10.9961C9.05 10.9961 9.5 11.4461 9.5 11.9961ZM13.75 9.99609C14.3 9.99609 14.75 9.54609 14.75 8.99609C14.75 8.44609 14.3 7.99609 13.75 7.99609C13.2 7.99609 12.75 8.44609 12.75 8.99609C12.75 9.54609 13.2 9.99609 13.75 9.99609ZM10.25 9.99609C10.8 9.99609 11.25 9.54609 11.25 8.99609C11.25 8.44609 10.8 7.99609 10.25 7.99609C9.7 7.99609 9.25 8.44609 9.25 8.99609C9.25 9.54609 9.7 9.99609 10.25 9.99609ZM10.25 13.9961C9.7 13.9961 9.25 14.4461 9.25 14.9961C9.25 15.5461 9.7 15.9961 10.25 15.9961C10.8 15.9961 11.25 15.5461 11.25 14.9961C11.25 14.4461 10.8 13.9961 10.25 13.9961ZM22 11.2461V12.7461C22 13.1561 21.66 13.4961 21.25 13.4961C20.84 13.4961 20.5 13.1561 20.5 12.7461H18.96C18.81 14.1161 18.27 15.3761 17.44 16.3961L18.53 17.4861L18.54 17.4761C18.83 17.1861 19.31 17.1861 19.6 17.4761C19.89 17.7661 19.89 18.2461 19.6 18.5361L18.54 19.5961C18.25 19.8861 17.77 19.8861 17.48 19.5961C17.19 19.3061 17.19 18.8361 17.47 18.5461L16.38 17.4561C15.36 18.2761 14.11 18.8161 12.74 18.9661V20.5061H12.75C13.16 20.5061 13.5 20.8461 13.5 21.2561C13.5 21.6661 13.16 22.0061 12.75 22.0061H11.25C10.84 22.0061 10.5 21.6661 10.5 21.2561C10.5 20.8461 10.83 20.5161 11.24 20.5061V18.9561C9.87 18.8061 8.62 18.2661 7.61 17.4461L6.52 18.5361L6.53 18.5461C6.82 18.8361 6.82 19.3161 6.53 19.6061C6.24 19.8961 5.76 19.8961 5.47 19.6061L4.4 18.5361C4.11 18.2461 4.11 17.7661 4.4 17.4761C4.69 17.1861 5.16 17.1861 5.45 17.4661L6.54 16.3761C5.72 15.3561 5.18 14.1161 5.04 12.7461H3.5C3.5 13.1561 3.16 13.4961 2.75 13.4961C2.34 13.4961 2 13.1561 2 12.7461V11.2461C2 10.8361 2.34 10.4961 2.75 10.4961C3.16 10.4961 3.5 10.8361 3.5 11.2461H5.04C5.19 9.87609 5.73 8.63609 6.54 7.61609L5.45 6.52609C5.16 6.80609 4.69 6.80609 4.4 6.51609C4.11 6.22609 4.11 5.74609 4.4 5.45609L5.46 4.39609C5.75 4.10609 6.23 4.10609 6.52 4.39609C6.81 4.68609 6.81 5.16609 6.52 5.45609L6.51 5.46609L7.6 6.55609C8.62 5.73609 9.86 5.19609 11.23 5.04609V3.49609C10.82 3.48609 10.49 3.15609 10.49 2.74609C10.5 2.33609 10.84 1.99609 11.25 1.99609H12.75C13.16 1.99609 13.5 2.33609 13.5 2.74609C13.5 3.15609 13.16 3.49609 12.75 3.49609H12.74V5.03609C14.11 5.17609 15.36 5.72609 16.38 6.54609L17.47 5.45609C17.18 5.16609 17.19 4.69609 17.48 4.40609C17.77 4.11609 18.25 4.11609 18.54 4.40609L19.6 5.46609C19.89 5.75609 19.89 6.23609 19.6 6.52609C19.31 6.81609 18.83 6.81609 18.54 6.52609L18.53 6.51609L17.44 7.59609C18.26 8.61609 18.81 9.86609 18.96 11.2461H20.5C20.5 10.8361 20.84 10.4961 21.25 10.4961C21.66 10.4961 22 10.8361 22 11.2461ZM17 11.9961C17 9.23609 14.76 6.99609 12 6.99609C9.24 6.99609 7 9.23609 7 11.9961C7 14.7561 9.24 16.9961 12 16.9961C14.76 16.9961 17 14.7561 17 11.9961ZM12 10.9961C11.45 10.9961 11 11.4461 11 11.9961C11 12.5461 11.45 12.9961 12 12.9961C12.55 12.9961 13 12.5461 13 11.9961C13 11.4461 12.55 10.9961 12 10.9961ZM15.5 10.9961C14.95 10.9961 14.5 11.4461 14.5 11.9961C14.5 12.5461 14.95 12.9961 15.5 12.9961C16.05 12.9961 16.5 12.5461 16.5 11.9961C16.5 11.4461 16.05 10.9961 15.5 10.9961ZM13.75 13.9961C13.2 13.9961 12.75 14.4461 12.75 14.9961C12.75 15.5461 13.2 15.9961 13.75 15.9961C14.3 15.9961 14.75 15.5461 14.75 14.9961C14.75 14.4461 14.3 13.9961 13.75 13.9961Z" fill="black"/>
</svg>
