<svg width="24" height="24" viewBox="0 0 24 24" fill="none" xmlns="http://www.w3.org/2000/svg">
<g clip-path="url(#clip0_2048_12094)">
<path d="M10.0963 15.8883L11.5163 14.4683C8.78625 12.0383 6.99625 10.3983 6.99625 8.83828C6.99625 7.78828 7.79625 6.98828 8.84625 6.98828C9.95625 6.98828 10.3862 7.63828 11.5262 8.98828H12.4563C13.5763 7.67828 13.9863 6.98828 15.1363 6.98828C16.0063 6.98828 16.6863 7.52828 16.9062 8.30828C17.2563 8.26828 17.5863 8.24828 17.9062 8.24828C18.2663 8.24828 18.6063 8.27828 18.9363 8.32828C18.6963 6.41828 17.1262 4.98828 15.1462 4.98828C15.0262 4.98828 14.9163 5.01828 14.7963 5.02828C14.9163 4.69828 14.9963 4.35828 14.9963 3.98828C14.9963 2.32828 13.6562 0.988281 11.9963 0.988281C10.3363 0.988281 8.99625 2.32828 8.99625 3.98828C8.99625 4.35828 9.07625 4.69828 9.19625 5.02828C9.07625 5.01828 8.96625 4.98828 8.84625 4.98828C6.68625 4.98828 4.99625 6.67828 4.99625 8.83828C4.99625 11.2583 7.03625 13.1483 10.0963 15.8883Z" fill="black"/>
<path d="M22.4963 16.2283C22.1763 16.0483 21.8363 15.9383 21.4963 15.8783C21.5662 15.7783 21.6462 15.6983 21.7062 15.5983C22.7862 13.7283 22.1663 11.4183 20.2962 10.3383C18.2062 9.12828 15.5363 9.94828 11.6462 11.2383L12.1663 13.1783C15.6363 12.0383 17.9562 11.2983 19.3062 12.0783C20.2162 12.6083 20.5063 13.6883 19.9862 14.6083C19.4263 15.5683 18.6562 15.6083 16.9163 15.9283L16.4463 16.7383C17.0263 18.3583 17.4163 19.0683 16.8363 20.0583C16.3062 20.9683 15.2263 21.2583 14.3063 20.7383C14.2463 20.7083 14.1963 20.6483 14.1363 20.6083C13.8363 21.2783 13.4963 21.8483 13.1062 22.3383C13.1762 22.3783 13.2363 22.4283 13.3063 22.4783C15.1763 23.5583 17.4862 22.9383 18.5662 21.0683C18.6262 20.9683 18.6562 20.8583 18.7062 20.7483C18.9262 21.0183 19.1863 21.2583 19.5063 21.4383C20.9363 22.2683 22.7763 21.7783 23.6063 20.3383C24.4363 18.8983 23.9263 17.0483 22.4963 16.2283Z" fill="black"/>
<path d="M12.3162 13.9983C11.5763 17.5783 11.0463 19.9483 9.69625 20.7283C8.78625 21.2583 7.69625 20.9683 7.16625 20.0483C6.60625 19.0883 6.96625 18.3883 7.55625 16.7283L7.09625 15.9183C5.39625 15.6083 4.59625 15.5883 4.02625 14.5983C3.49625 13.6883 3.78625 12.5983 4.70625 12.0683C4.79625 12.0183 4.89625 11.9883 4.99625 11.9583C4.64625 11.3983 4.35625 10.7883 4.17625 10.1083C4.01625 10.1783 3.85625 10.2483 3.69625 10.3383C1.82625 11.4183 1.20625 13.7283 2.28625 15.5983C2.34625 15.6983 2.42625 15.7783 2.49625 15.8783C2.15625 15.9383 1.81625 16.0483 1.49625 16.2283C0.0662497 17.0583 -0.43375 18.8883 0.39625 20.3283C1.22625 21.7683 3.05625 22.2583 4.49625 21.4283C4.81625 21.2483 5.07625 21.0083 5.29625 20.7383C5.34625 20.8483 5.37625 20.9583 5.43625 21.0583C6.51625 22.9283 8.82625 23.5483 10.6962 22.4683C12.7863 21.2583 13.4062 18.5383 14.2463 14.5283L12.3162 13.9983Z" fill="black"/>
</g>
<defs>
<clipPath id="clip0_2048_12094">
<rect width="24" height="24" fill="white"/>
</clipPath>
</defs>
</svg>
