<svg width="24" height="24" viewBox="0 0 24 24" fill="none" xmlns="http://www.w3.org/2000/svg">
<path d="M9.04501 15C6.37501 15 1.04501 16.34 1.04501 19V21H17.045V19C17.045 16.34 11.715 15 9.04501 15ZM3.04501 19C3.26501 18.28 6.35501 17 9.04501 17C11.745 17 14.845 18.29 15.045 19H3.04501Z" fill="black"/>
<path d="M4.78501 9H5.04501C5.04501 11.21 6.83501 13 9.04501 13C11.255 13 13.045 11.21 13.045 9H13.305C13.575 9 13.795 8.78 13.795 8.51V8.49C13.795 8.22 13.575 8 13.305 8H13.045C13.045 6.52 12.235 5.25 11.045 4.55V5.5C11.045 5.78 10.825 6 10.545 6C10.265 6 10.045 5.78 10.045 5.5V4.14C9.72501 4.06 9.39501 4 9.04501 4C8.69501 4 8.36501 4.06 8.04501 4.14V5.5C8.04501 5.78 7.82501 6 7.54501 6C7.26501 6 7.04501 5.78 7.04501 5.5V4.55C5.85501 5.25 5.04501 6.52 5.04501 8H4.78501C4.51501 8 4.29501 8.22 4.29501 8.49V8.52C4.29501 8.78 4.51501 9 4.78501 9ZM11.045 9C11.045 10.1 10.145 11 9.04501 11C7.94501 11 7.04501 10.1 7.04501 9H11.045Z" fill="black"/>
<path d="M22.025 6.23L22.955 5.4L22.205 4.1L21.015 4.49C20.875 4.38 20.715 4.29 20.545 4.22L20.295 3H18.795L18.545 4.22C18.375 4.29 18.215 4.38 18.065 4.49L16.885 4.1L16.135 5.4L17.065 6.23C17.045 6.4 17.045 6.58 17.065 6.75L16.135 7.6L16.885 8.9L18.085 8.52C18.215 8.62 18.365 8.7 18.515 8.77L18.795 10H20.295L20.565 8.78C20.725 8.71 20.865 8.63 21.005 8.53L22.195 8.91L22.945 7.61L22.015 6.76C22.045 6.57 22.035 6.4 22.025 6.23ZM19.545 7.75C18.855 7.75 18.295 7.19 18.295 6.5C18.295 5.81 18.855 5.25 19.545 5.25C20.235 5.25 20.795 5.81 20.795 6.5C20.795 7.19 20.235 7.75 19.545 7.75Z" fill="black"/>
<path d="M19.445 10.79L18.595 11.07C18.495 10.99 18.385 10.93 18.265 10.88L18.085 10H17.015L16.835 10.87C16.715 10.92 16.595 10.99 16.495 11.06L15.655 10.78L15.115 11.71L15.775 12.3C15.765 12.43 15.765 12.55 15.775 12.67L15.115 13.28L15.655 14.21L16.515 13.94C16.615 14.01 16.715 14.07 16.825 14.12L17.005 15H18.075L18.265 14.13C18.375 14.08 18.485 14.02 18.585 13.95L19.435 14.22L19.975 13.29L19.315 12.68C19.325 12.55 19.325 12.43 19.315 12.31L19.975 11.72L19.445 10.79ZM17.545 13.39C17.055 13.39 16.655 12.99 16.655 12.5C16.655 12.01 17.055 11.61 17.545 11.61C18.035 11.61 18.435 12.01 18.435 12.5C18.435 12.99 18.035 13.39 17.545 13.39Z" fill="black"/>
</svg>
