<svg width="24" height="24" viewBox="0 0 24 24" fill="none" xmlns="http://www.w3.org/2000/svg">
<path d="M12.222 19.8539C12.042 20.0339 11.722 20.0639 11.512 19.8539C11.332 19.6739 11.302 19.3539 11.512 19.1439L14.902 15.7539L13.492 14.3439L10.102 17.7339C9.91198 17.9339 9.59198 17.9239 9.39198 17.7339C9.18198 17.5239 9.21198 17.2039 9.39198 17.0239L12.782 13.6339L11.372 12.2239L7.98198 15.6139C7.80198 15.7939 7.48198 15.8239 7.27198 15.6139C7.08198 15.4239 7.08198 15.1039 7.27198 14.9039L10.662 11.5139L9.24198 10.1039L5.85198 13.4939C5.67198 13.6739 5.35198 13.7039 5.14198 13.4939C4.95198 13.2939 4.95198 12.9839 5.14198 12.7839L9.52198 8.40391L11.392 10.2639C12.342 11.2139 13.982 11.2039 14.932 10.2639C15.912 9.28391 15.912 7.70391 14.932 6.72391L13.072 4.86391L13.352 4.58391C14.132 3.80391 15.402 3.80391 16.182 4.58391L20.422 8.82391C21.202 9.60391 21.202 10.8739 20.422 11.6539L12.222 19.8539ZM21.832 13.0739C23.392 11.5139 23.392 8.98391 21.832 7.41391L17.592 3.17391C16.032 1.61391 13.502 1.61391 11.932 3.17391L11.652 3.45391L11.372 3.17391C9.81198 1.61391 7.28198 1.61391 5.71198 3.17391L2.17198 6.71391C0.751984 8.13391 0.621984 10.3439 1.77198 11.9039L3.22198 10.4539C2.83198 9.70391 2.96198 8.75391 3.59198 8.12391L7.13198 4.58391C7.91198 3.80391 9.18198 3.80391 9.96198 4.58391L13.522 8.14391C13.702 8.32391 13.732 8.64391 13.522 8.85391C13.312 9.06391 12.992 9.03391 12.812 8.85391L9.52198 5.57391L3.72198 11.3639C2.74198 12.3339 2.74198 13.9239 3.72198 14.9039C4.11198 15.2939 4.61198 15.5339 5.14198 15.6039C5.21198 16.1239 5.44198 16.6239 5.84198 17.0239C6.24198 17.4239 6.74198 17.6539 7.26198 17.7239C7.33198 18.2439 7.56198 18.7439 7.96198 19.1439C8.36198 19.5439 8.86198 19.7739 9.38198 19.8439C9.45198 20.3839 9.69198 20.8739 10.082 21.2639C10.552 21.7339 11.182 21.9939 11.852 21.9939C12.522 21.9939 13.152 21.7339 13.622 21.2639L21.832 13.0739Z" fill="black"/>
</svg>
