<svg width="24" height="24" viewBox="0 0 24 24" fill="none" xmlns="http://www.w3.org/2000/svg">
<path d="M21.105 17.5C18.635 17.5 14.535 16.17 12.425 12.07C10.095 7.56 11.925 3.59 12.955 2C7.595 2.19 3.305 6.58 3.305 11.99C3.305 12.13 3.325 12.27 3.325 12.41C3.935 12.15 4.605 11.99 5.305 11.99C5.305 8.9 7.035 6.22 9.605 4.89C9.105 7.08 9.065 9.93 10.645 12.99C12.215 16.03 14.825 17.94 17.445 18.85C16.215 19.59 14.795 20 13.315 20C12.815 20 12.315 19.95 11.835 19.86C11.465 20.56 10.895 21.13 10.195 21.5C11.175 21.82 12.225 22 13.305 22C16.805 22 19.885 20.2 21.675 17.48C21.505 17.49 21.305 17.5 21.105 17.5Z" fill="black"/>
<path d="M8.325 15.99H8.145C7.725 14.83 6.625 13.99 5.325 13.99C3.665 13.99 2.325 15.33 2.325 16.99C2.325 18.65 3.665 19.99 5.325 19.99H8.325C9.425 19.99 10.325 19.09 10.325 17.99C10.325 16.89 9.425 15.99 8.325 15.99Z" fill="black"/>
</svg>
