<svg width="24" height="24" viewBox="0 0 24 24" fill="none" xmlns="http://www.w3.org/2000/svg">
<path d="M16.715 12.8653L15.215 11.3653V8.69531H16.715V12.8653ZM20.495 22.3053L18.645 20.4553C18.365 20.6053 18.055 20.6953 17.715 20.6953C17.715 21.2453 17.265 21.6953 16.715 21.6953C16.165 21.6953 15.715 21.2453 15.715 20.6953H9.71501C9.71501 21.2453 9.26501 21.6953 8.71501 21.6953C8.16501 21.6953 7.71501 21.2453 7.71501 20.6953C6.61501 20.6953 5.71501 19.7953 5.71501 18.6953V7.69531C5.71501 7.64531 5.73501 7.59531 5.73501 7.54531L2.10501 3.91531L3.51501 2.50531L21.895 20.8853L20.495 22.3053ZM16.885 18.6953L13.465 15.2753V17.6953H11.965V13.7753L10.215 12.0253V17.6953H8.71501V10.5253L7.71501 9.52531V18.6953H16.885ZM13.465 8.69531H12.545L13.465 9.61531V8.69531ZM19.715 7.69531V15.8653L17.715 13.8653V7.69531H11.545L9.71501 5.86531V2.69531C9.71501 2.14531 10.165 1.69531 10.715 1.69531H14.715C15.265 1.69531 15.715 2.14531 15.715 2.69531V5.69531H17.715C18.815 5.69531 19.715 6.59531 19.715 7.69531ZM11.215 5.69531H14.215V3.19531H11.215V5.69531Z" fill="black"/>
</svg>
