<svg width="24" height="24" viewBox="0 0 24 24" fill="none" xmlns="http://www.w3.org/2000/svg">
<path d="M21.9 20.4816L3.52001 2.10156L2.10001 3.51156L3.71001 5.12156V18.2916C3.71001 19.3916 4.61001 20.2916 5.71001 20.2916H18.88L20.49 21.9016L21.9 20.4816ZM8.96001 18.2916H5.71001V7.12156L7.71001 9.12156V12.7916C7.71001 13.3416 8.16001 13.7916 8.71001 13.7916H8.96001V18.2916ZM10.46 18.2916V13.7916H10.71C11.17 13.7916 11.53 13.4816 11.65 13.0616L14.96 16.3716V18.2916H10.46ZM11.71 7.46156L6.54001 2.29156H19.71C20.81 2.29156 21.71 3.19156 21.71 4.29156V17.4616L19.71 15.4616V4.29156H17.71V12.7916C17.71 12.9816 17.64 13.1516 17.55 13.3016L13.71 9.46156V4.29156H11.71V7.46156Z" fill="black"/>
</svg>
