<svg width="24" height="24" viewBox="0 0 24 24" fill="none" xmlns="http://www.w3.org/2000/svg">
<path d="M15.4462 16.5214L12.4362 13.5114C12.3262 13.4014 12.1962 13.3814 12.1262 13.3814C12.0562 13.3814 11.9262 13.4014 11.8162 13.5114L8.79625 16.5314C8.45625 16.8714 7.92625 17.4214 6.15625 17.4214L9.86625 21.1214C11.0362 22.2914 12.9362 22.2914 14.1062 21.1214L17.8262 17.4114C16.9162 17.4114 16.1562 17.2314 15.4462 16.5214Z" fill="black"/>
<path d="M8.79625 7.47141L11.8162 10.4914C11.8962 10.5714 12.0162 10.6214 12.1262 10.6214C12.2362 10.6214 12.3562 10.5714 12.4362 10.4914L15.4262 7.50141C16.1362 6.76141 16.9462 6.59141 17.8562 6.59141L14.1362 2.88141C12.9662 1.71141 11.0662 1.71141 9.89625 2.88141L6.18625 6.58141C7.94625 6.58141 8.48625 7.16141 8.79625 7.47141Z" fill="black"/>
<path d="M21.1062 9.85141L18.8562 7.59141H17.5962C17.0562 7.59141 16.5162 7.81141 16.1462 8.20141L13.1462 11.2014C12.8662 11.4814 12.4962 11.6214 12.1262 11.6214C11.7662 11.6214 11.3862 11.4714 11.1062 11.2014L8.08625 8.17141C7.70625 7.79141 7.18625 7.57141 6.63625 7.57141H5.16625L2.87625 9.87141C1.70625 11.0414 1.70625 12.9414 2.87625 14.1114L5.16625 16.4114H6.64625C7.18625 16.4114 7.70625 16.1914 8.09625 15.8114L11.1162 12.7914C11.3962 12.5114 11.7662 12.3714 12.1362 12.3714C12.5062 12.3714 12.8762 12.5114 13.1562 12.7914L16.1662 15.8014C16.5462 16.1814 17.0662 16.4014 17.6162 16.4014H18.8762L21.1262 14.1414C22.2962 12.9614 22.2962 11.0414 21.1062 9.85141Z" fill="black"/>
</svg>
