<svg width="24" height="24" viewBox="0 0 24 24" fill="none" xmlns="http://www.w3.org/2000/svg">
<path d="M19.9281 8.66878L16.3281 10.3488L13.9981 8.01878V6.61878L16.3281 4.28878L19.9281 5.96878C20.3081 6.14878 20.7481 5.97878 20.9281 5.60878C21.1081 5.22878 20.9381 4.78878 20.5681 4.60878L16.6481 2.77878C16.2681 2.59878 15.8181 2.67878 15.5181 2.97878L13.7781 4.71878C13.5981 4.47878 13.3181 4.31878 12.9981 4.31878C12.4481 4.31878 11.9981 4.76878 11.9981 5.31878V6.31878H8.81808C8.39808 5.15878 7.29808 4.31878 5.99808 4.31878C4.33808 4.31878 2.99808 5.65878 2.99808 7.31878C2.99808 8.41878 3.59808 9.36878 4.47808 9.89878L7.07808 18.3188H5.99808C4.89808 18.3188 3.99808 19.2188 3.99808 20.3188V21.3188H16.9981V20.3188C16.9981 19.2188 16.0981 18.3188 14.9981 18.3188H13.3781L8.40808 9.08878C8.57808 8.84878 8.71808 8.59878 8.81808 8.31878H11.9981V9.31878C11.9981 9.86878 12.4481 10.3188 12.9981 10.3188C13.3181 10.3188 13.5981 10.1588 13.7781 9.91878L15.5181 11.6588C15.8181 11.9588 16.2681 12.0388 16.6481 11.8588L20.5681 10.0288C20.9481 9.84878 21.1081 9.40878 20.9281 9.02878C20.7481 8.65878 20.3081 8.48878 19.9281 8.66878ZM5.99808 8.31878C5.44808 8.31878 4.99808 7.86878 4.99808 7.31878C4.99808 6.76878 5.44808 6.31878 5.99808 6.31878C6.54808 6.31878 6.99808 6.76878 6.99808 7.31878C6.99808 7.86878 6.54808 8.31878 5.99808 8.31878ZM11.1081 18.3188H9.16808L6.70808 10.3188H6.80808L11.1081 18.3188Z" fill="black"/>
</svg>
