<svg width="24" height="24" viewBox="0 0 24 24" fill="none" xmlns="http://www.w3.org/2000/svg">
<path d="M19.9399 9.06C19.4999 5.73 16.5699 3 12.9999 3C9.46988 3 6.56988 5.61 6.07988 9L4.14988 12.48C3.73988 13.14 4.21988 14 4.99988 14H5.99988V16C5.99988 17.1 6.89988 18 7.99988 18H8.99988V21H15.9999V16.32C18.6199 15.07 20.3499 12.24 19.9399 9.06ZM14.8899 14.63L13.9999 15.05V19H10.9999V16H7.99988V12H6.69988L8.02988 9.67C8.20988 7.06 10.3499 5 12.9999 5C15.7599 5 17.9999 7.24 17.9999 10C17.9999 12.09 16.7099 13.88 14.8899 14.63Z" fill="black"/>
<path d="M12.4999 12.54C12.0899 12.54 11.7599 12.85 11.7599 13.27C11.7599 13.68 12.0899 14.01 12.4999 14.01C12.9199 14.01 13.2299 13.68 13.2299 13.27C13.2299 12.85 12.9199 12.54 12.4999 12.54Z" fill="black"/>
<path d="M12.4999 7C11.4699 7 10.7599 7.67 10.4999 8.45L11.4599 8.85C11.5899 8.46 11.8899 7.99 12.5099 7.99C13.4599 7.99 13.6399 8.88 13.3099 9.35C12.9899 9.8 12.4499 10.1 12.1699 10.61C11.9399 11.01 11.9899 11.48 11.9899 11.77H13.0499C13.0499 11.22 13.0899 11.12 13.1799 10.95C13.4099 10.53 13.8299 10.33 14.2699 9.68C14.6699 9.09 14.5199 8.3 14.2599 7.88C13.9499 7.39 13.3599 7 12.4999 7Z" fill="black"/>
</svg>
