<svg width="24" height="24" viewBox="0 0 24 24" fill="none" xmlns="http://www.w3.org/2000/svg">
<path d="M6.73 10.56L7.79 9.5L6.73 8.44L7.79 7.38L9.91 9.5L7.79 11.62L6.73 10.56ZM3.91 9C3.94 9 3.96 9.01 3.99 9.01C5.18 6.07 8.05 4 11.41 4C13.6 4 15.57 4.88 17.02 6.3C17.17 5.7 17.47 5.01 17.83 4.34C16.09 2.88 13.85 2 11.4 2C6.52 2 2.46 5.51 1.59 10.14C2.15 9.44 3 9 3.91 9ZM20.41 10.5C19.99 10.5 19.59 10.41 19.22 10.28C19.34 10.83 19.41 11.41 19.41 12C19.41 16.42 15.83 20 11.41 20C8.05 20 5.18 17.93 3.99 14.99C3.96 14.99 3.94 15 3.91 15C3.39 15 2.87 14.86 2.41 14.6C2.09 14.42 1.82 14.18 1.59 13.9C2.48 18.51 6.52 22 11.39 22C16.93 22 21.41 17.52 21.41 12C21.41 11.45 21.35 10.91 21.27 10.38C20.99 10.45 20.71 10.5 20.41 10.5ZM20.41 3C20.41 3 18.41 5.9 18.41 7C18.41 8.1 19.31 9 20.41 9C21.51 9 22.41 8.1 22.41 7C22.41 5.9 20.41 3 20.41 3ZM15.03 7.38L12.91 9.5L15.03 11.62L16.09 10.56L15.03 9.5L16.09 8.44L15.03 7.38ZM7.97 17C8.66 15.81 9.94 15 11.41 15C12.88 15 14.16 15.81 14.85 17H16.53C15.73 14.95 13.74 13.5 11.41 13.5C10.54 13.5 9.71 13.7 8.98 14.07L5.4 12C5.4 11.48 5.14 10.98 4.66 10.71C3.94 10.3 3.03 10.54 2.61 11.26C2.2 11.98 2.44 12.89 3.16 13.31C3.64 13.59 4.21 13.56 4.65 13.31L7.62 15.03C7.05 15.56 6.59 16.24 6.29 17H7.97Z" fill="black"/>
</svg>
