<svg width="24" height="24" viewBox="0 0 24 24" fill="none" xmlns="http://www.w3.org/2000/svg">
<g clip-path="url(#clip0_2048_12008)">
<path d="M12.49 13.0029L11.56 11.1429C11.19 10.4029 11.49 9.50293 12.23 9.13293L12.49 9.00293L18.22 14.4629C18.72 14.9329 19 15.5929 19 16.2729V21.5029C19 22.8829 17.88 24.0029 16.5 24.0029H5.5C4.95 24.0029 4.5 23.5529 4.5 23.0029C4.5 22.4529 4.95 22.0029 5.5 22.0029H10V21.0029H4C3.45 21.0029 3 20.5529 3 20.0029C3 19.4529 3.45 19.0029 4 19.0029H10V18.0029H3C2.45 18.0029 2 17.5529 2 17.0029C2 16.4529 2.45 16.0029 3 16.0029H10V15.0029H4.5C3.95 15.0029 3.5 14.5529 3.5 14.0029C3.5 13.4529 3.95 13.0029 4.5 13.0029H12.49ZM14 13.2029V15.0029H12V22.0029H16C16.55 22.0029 17 21.5529 17 21.0029V16.4729C17 16.2029 16.89 15.9329 16.69 15.7429L14 13.2029ZM11.78 7.12293C10.94 7.52293 10.61 7.74293 10.15 8.31293L7.45 5.46293C7.07 5.06293 7.09 4.43293 7.49 4.05293C7.89 3.67293 8.52 3.69293 8.9 4.09293L11.78 7.12293ZM9.64 9.21293C9.41 9.76293 9.35 10.4529 9.44 11.0029H8.58L6.31 8.61293C5.93 8.21293 5.94 7.58293 6.35 7.20293C6.75 6.82293 7.38 6.84293 7.76 7.24293L9.64 9.21293ZM20.33 13.9129L21.21 13.0829C21.71 12.6129 22 11.9529 22 11.2629V3.35293L21.73 3.25293C20.95 2.97293 20.09 3.37293 19.81 4.15293L19.1 6.11293L13.6 0.312933C13.22 -0.0870675 12.59 -0.107067 12.19 0.272933C11.79 0.652933 11.77 1.28293 12.15 1.68293L15.94 5.67293L15.21 6.36293L10.39 1.28293C10.01 0.882933 9.38 0.862933 8.98 1.24293C8.58 1.62293 8.56 2.25293 8.94 2.65293L12.72 6.63293L15.38 9.00293L17.31 7.13293L18.69 8.58293L20 7.34293V11.0429C20 11.3229 19.89 11.5829 19.69 11.7729L18.99 12.4329L19.6 13.0129C19.89 13.2829 20.13 13.5829 20.33 13.9129Z" fill="black"/>
</g>
<defs>
<clipPath id="clip0_2048_12008">
<rect width="24" height="24" fill="white"/>
</clipPath>
</defs>
</svg>
