<svg width="24" height="24" viewBox="0 0 24 24" fill="none" xmlns="http://www.w3.org/2000/svg">
<path d="M14.0004 3.74609C14.0004 4.84609 13.1004 5.74609 12.0004 5.74609C10.9004 5.74609 10.0004 4.84609 10.0004 3.74609C10.0004 2.64609 10.9004 1.74609 12.0004 1.74609C13.1004 1.74609 14.0004 2.64609 14.0004 3.74609ZM22.8004 19.4861C22.1204 21.5861 19.8604 22.7361 17.7604 22.0561L1.00037 16.6061L1.46037 15.1761L5.39037 16.4561L5.85037 15.0261L1.93037 13.7461L2.39037 12.3161L4.00037 12.8461V8.74609L9.47037 6.39609C9.86037 6.22609 10.3104 6.18609 10.7504 6.32609C11.7004 6.63609 12.2104 7.64609 11.9104 8.59609L10.8604 11.8361L13.0004 11.4961C13.8904 11.3461 14.7604 11.8161 15.1404 12.6361L17.2204 17.1461L19.1504 17.7761L18.6904 19.2061L15.3704 18.1261L14.9004 19.5461L18.2204 20.6261C19.5304 21.0561 20.9404 20.3361 21.3704 19.0161C21.8004 17.7061 21.0804 16.2961 19.7604 15.8661L20.2204 14.4361C22.3304 15.1261 23.4904 17.3861 22.8004 19.4861ZM6.00037 13.4961L7.01037 13.8261C6.79037 13.4061 6.73037 12.9061 6.89037 12.4261L7.92037 9.24609L6.00037 10.0661V13.4961ZM13.9404 17.6561L7.28037 15.4961L6.82037 16.9261L13.4804 19.0861L13.9404 17.6561ZM14.6304 16.2961L13.4504 13.7361L9.48037 14.6261L14.6304 16.2961Z" fill="black"/>
</svg>
