<svg width="24" height="24" viewBox="0 0 24 24" fill="none" xmlns="http://www.w3.org/2000/svg">
<path d="M4 5.00391C4 3.90391 4.9 3.00391 6 3.00391C7.1 3.00391 8 3.90391 8 5.00391C8 6.10391 7.1 7.00391 6 7.00391C4.9 7.00391 4 6.10391 4 5.00391ZM8.78 8.58391C7.93 8.21391 6.99 8.00391 6 8.00391C5.01 8.00391 4.07 8.21391 3.22 8.58391C2.48 8.90391 2 9.62391 2 10.4339V11.0039H10V10.4339C10 9.62391 9.52 8.90391 8.78 8.58391ZM18 7.00391C19.1 7.00391 20 6.10391 20 5.00391C20 3.90391 19.1 3.00391 18 3.00391C16.9 3.00391 16 3.90391 16 5.00391C16 6.10391 16.9 7.00391 18 7.00391ZM20.78 8.58391C19.93 8.21391 18.99 8.00391 18 8.00391C17.01 8.00391 16.07 8.21391 15.22 8.58391C14.48 8.90391 14 9.62391 14 10.4339V11.0039H22V10.4339C22 9.62391 21.52 8.90391 20.78 8.58391ZM18.01 13.0139L16.6 14.4239L18.17 16.0039H5.83L7.41 14.4139L6 13.0039L2 17.0039L5.99 20.9939L7.4 19.5839L5.83 18.0039H18.17L16.59 19.5839L18 20.9939L22 17.0039L18.01 13.0139Z" fill="black"/>
</svg>
