<svg width="24" height="24" viewBox="0 0 24 24" fill="none" xmlns="http://www.w3.org/2000/svg">
<path d="M16.475 5.19141C17.5796 5.19141 18.475 4.29598 18.475 3.19141C18.475 2.08684 17.5796 1.19141 16.475 1.19141C15.3704 1.19141 14.475 2.08684 14.475 3.19141C14.475 4.29598 15.3704 5.19141 16.475 5.19141Z" fill="black"/>
<path d="M23.975 12.6914V7.99141L18.925 5.85141C17.955 5.44141 16.835 5.79141 16.275 6.69141L15.275 8.29141C14.605 9.47141 13.365 10.3514 11.865 10.6114L11.925 10.6714C12.615 11.3614 13.445 11.7414 14.385 11.8414C15.185 11.4214 15.905 10.8614 16.475 10.2014L17.075 13.2014L14.975 15.1914V22.6914H16.975V16.6914L19.075 14.6914L20.875 22.6914H22.975L20.795 11.6914L20.175 8.59141L21.975 9.29141V12.6914H23.975Z" fill="black"/>
<path d="M10.265 8.90141C10.485 9.05141 10.735 9.14141 10.985 9.19141C11.115 9.21141 11.235 9.23141 11.365 9.23141C11.495 9.23141 11.625 9.22141 11.745 9.19141C11.875 9.17141 11.995 9.13141 12.115 9.08141C12.355 8.98141 12.585 8.84141 12.775 8.64141C13.265 8.15141 13.445 7.47141 13.325 6.84141C13.255 6.47141 13.075 6.10141 12.775 5.81141C12.585 5.62141 12.355 5.47141 12.115 5.37141C11.995 5.32141 11.875 5.28141 11.745 5.26141C11.615 5.24141 11.495 5.22141 11.365 5.22141C11.245 5.22141 11.135 5.23141 11.015 5.25141C10.875 5.27141 10.735 5.31141 10.605 5.36141C10.375 5.47141 10.145 5.62141 9.95499 5.81141C9.65499 6.10141 9.47499 6.47141 9.40499 6.84141C9.28499 7.47141 9.46499 8.15141 9.95499 8.64141C10.045 8.74141 10.155 8.82141 10.265 8.90141Z" fill="black"/>
<path d="M11.215 11.3714L9.21499 9.37141C9.11499 9.27141 9.01499 9.19141 8.90499 9.11141C8.68499 8.97141 8.43499 8.87141 8.18499 8.83141C8.05499 8.80141 7.93499 8.79141 7.80499 8.79141C7.29499 8.79141 6.78499 8.99141 6.39499 9.38141L3.05499 12.7214C2.64499 13.1314 2.43499 13.7014 2.47499 14.2614C2.47499 14.4414 2.51499 14.6314 2.58499 14.8114L3.65499 17.7614L0.0249939 21.3914L1.43499 22.8114L5.67499 18.5714V16.3514L6.97499 17.5614V22.6914H8.97499V16.6914L6.85499 14.5714L9.21499 12.2114L9.92499 12.9214C11.215 14.1814 12.895 14.9614 14.955 14.9614L14.815 12.8914C13.315 12.8714 12.115 12.2714 11.215 11.3714Z" fill="black"/>
</svg>
