<svg width="24" height="24" viewBox="0 0 24 24" fill="none" xmlns="http://www.w3.org/2000/svg">
<path d="M15.0412 12.79L6.54125 4.29C6.35125 4.1 6.09125 4 5.83125 4C5.57125 4 5.32125 4.1 5.13125 4.29L2.29125 7.13C1.90125 7.52 1.90125 8.16 2.29125 8.55L10.7912 17.05C10.9912 17.25 11.2412 17.34 11.5012 17.34C11.7612 17.34 12.0112 17.24 12.2112 17.05L15.0412 14.22C15.4312 13.82 15.4312 13.18 15.0412 12.79ZM11.5012 14.92L4.41125 7.83L5.83125 6.41L12.9212 13.5L11.5012 14.92Z" fill="black"/>
<path d="M15.7567 16.342L14.3425 17.7562L18.5851 21.9988L19.9993 20.5846L15.7567 16.342Z" fill="black"/>
<path d="M18.5012 2C16.5712 2 15.0012 3.57 15.0012 5.5C15.0012 7.43 16.5712 9 18.5012 9C20.4312 9 22.0012 7.43 22.0012 5.5C22.0012 3.57 20.4312 2 18.5012 2ZM18.5012 7C17.6712 7 17.0012 6.33 17.0012 5.5C17.0012 4.67 17.6712 4 18.5012 4C19.3312 4 20.0012 4.67 20.0012 5.5C20.0012 6.33 19.3312 7 18.5012 7Z" fill="black"/>
</svg>
