<svg width="24" height="24" viewBox="0 0 24 24" fill="none" xmlns="http://www.w3.org/2000/svg">
<path d="M14.2737 5.53872C13.7237 6.48872 14.0537 7.71872 15.0037 8.26872C15.9537 8.81872 17.1837 8.48872 17.7337 7.53872C18.2837 6.58872 17.9537 5.35872 17.0037 4.80872C16.0537 4.25872 14.8237 4.58872 14.2737 5.53872Z" fill="black"/>
<path d="M15.8437 9.94872C15.8437 9.94872 14.2137 9.00872 13.2437 8.44872C10.8637 7.06872 10.0437 4.00872 11.4237 1.62872L9.69367 0.628717C8.10367 3.36872 8.60367 6.74872 10.6637 8.93872L5.51367 17.8587L7.24367 18.8587L8.74367 16.2587L10.4737 17.2587L7.47367 22.4587L9.20367 23.4587L15.4937 12.5687C16.6337 14.1187 16.8237 16.2587 15.8037 18.0287L17.5337 19.0287C19.1337 16.2787 18.8137 12.4487 15.8437 9.94872Z" fill="black"/>
<path d="M12.7537 3.33872C13.4737 3.74872 14.3837 3.50872 14.8037 2.78872C15.2137 2.06872 14.9737 1.15872 14.2537 0.738717C13.5337 0.328717 12.6237 0.568717 12.2037 1.28872C11.7937 2.00872 12.0337 2.92872 12.7537 3.33872Z" fill="black"/>
</svg>
