<svg width="24" height="24" viewBox="0 0 24 24" fill="none" xmlns="http://www.w3.org/2000/svg">
<path d="M19.6 2.48776C17.26 0.14776 12.98 0.61776 10.05 3.54776C8.45001 5.14776 7.53001 7.41776 7.51001 9.00776C7.49001 10.5878 7.77001 12.8978 6.16001 14.5078L1.92001 18.7478L3.34001 20.1678L7.58001 15.9278C9.19001 14.3178 11.5 14.5978 13.08 14.5778C14.66 14.5578 16.94 13.6378 18.54 12.0378C21.46 9.10776 21.94 4.82776 19.6 2.48776ZM10.4 11.6778C8.87001 10.1478 9.35001 7.06776 11.46 4.95776C13.57 2.84776 16.64 2.36776 18.18 3.89776C19.71 5.42776 19.23 8.50776 17.12 10.6178C15.01 12.7278 11.94 13.2078 10.4 11.6778Z" fill="black"/>
<path d="M18.08 16.9978C18.61 16.9978 19.12 17.2078 19.49 17.5878C20.27 18.3678 20.27 19.6378 19.49 20.4178C19.12 20.7878 18.61 20.9978 18.08 20.9978C17.55 20.9978 17.04 20.7878 16.67 20.4078C15.89 19.6278 15.89 18.3578 16.67 17.5778C17.04 17.2078 17.55 16.9978 18.08 16.9978ZM18.08 14.9978C17.06 14.9978 16.03 15.3878 15.25 16.1678C13.69 17.7278 13.69 20.2578 15.25 21.8278C16.03 22.6078 17.06 22.9978 18.08 22.9978C19.1 22.9978 20.13 22.6078 20.91 21.8278C22.47 20.2678 22.47 17.7378 20.91 16.1678C20.13 15.3878 19.1 14.9978 18.08 14.9978Z" fill="black"/>
</svg>
