<svg width="24" height="24" viewBox="0 0 24 24" fill="none" xmlns="http://www.w3.org/2000/svg">
<path d="M22 5.79844L17.4 1.89844L16.1 3.39844L20.7 7.29844L22 5.79844ZM7.9 3.49844L6.6 1.99844L2 5.79844L3.3 7.29844L7.9 3.49844ZM12.5 8.09844H11V14.0984L15.7 16.9984L16.5 15.7984L12.5 13.3984V8.09844ZM12 4.09844C7 4.09844 3 8.09844 3 13.0984C3 18.0984 7 22.0984 12 22.0984C17 22.0984 21 18.0984 21 13.0984C21 8.09844 17 4.09844 12 4.09844ZM12 20.0984C8.1 20.0984 5 16.9984 5 13.0984C5 9.19844 8.1 6.09844 12 6.09844C15.9 6.09844 19 9.19844 19 13.0984C19 16.9984 15.9 20.0984 12 20.0984Z" fill="black"/>
</svg>
