<svg width="24" height="24" viewBox="0 0 24 24" fill="none" xmlns="http://www.w3.org/2000/svg">
<g clip-path="url(#clip0_2048_13280)">
<path d="M19.9999 8.69141V4.00141H15.3099L11.9999 0.691406L8.68994 4.00141H3.99994V8.69141L0.689941 12.0014L3.99994 15.3114V20.0014H8.68994L11.9999 23.3114L15.3099 20.0014H19.9999V15.3114L23.3099 12.0014L19.9999 8.69141ZM17.9999 14.4814V18.0014H14.4799L11.9999 20.4814L9.51994 18.0014H5.99994V14.4814L3.51994 12.0014L5.99994 9.52141V6.00141H9.51994L11.9999 3.52141L14.4799 6.00141H17.9999V9.52141L20.4799 12.0014L17.9999 14.4814ZM11.9999 6.00141C8.68994 6.00141 5.99994 8.69141 5.99994 12.0014C5.99994 15.3114 8.68994 18.0014 11.9999 18.0014C15.3099 18.0014 17.9999 15.3114 17.9999 12.0014C17.9999 8.69141 15.3099 6.00141 11.9999 6.00141ZM11.9999 16.0014C9.78994 16.0014 7.99994 14.2114 7.99994 12.0014C7.99994 9.79141 9.78994 8.00141 11.9999 8.00141C14.2099 8.00141 15.9999 9.79141 15.9999 12.0014C15.9999 14.2114 14.2099 16.0014 11.9999 16.0014Z" fill="black"/>
</g>
<defs>
<clipPath id="clip0_2048_13280">
<rect width="24" height="24" fill="white"/>
</clipPath>
</defs>
</svg>
