<svg width="24" height="24" viewBox="0 0 24 24" fill="none" xmlns="http://www.w3.org/2000/svg">
<g clip-path="url(#clip0_2048_13238)">
<path d="M10.9999 7.00141L7.79994 16.0014H9.69994L10.3999 14.0014H13.5999L14.2999 16.0014H16.1999L12.9999 7.00141H10.9999ZM10.8499 12.6514L11.9999 9.00141L13.1499 12.6514H10.8499ZM19.9999 8.69141V4.00141H15.3099L11.9999 0.691406L8.68994 4.00141H3.99994V8.69141L0.689941 12.0014L3.99994 15.3114V20.0014H8.68994L11.9999 23.3114L15.3099 20.0014H19.9999V15.3114L23.3099 12.0014L19.9999 8.69141ZM17.9999 14.4814V18.0014H14.4799L11.9999 20.4814L9.51994 18.0014H5.99994V14.4814L3.51994 12.0014L5.99994 9.52141V6.00141H9.51994L11.9999 3.52141L14.4799 6.00141H17.9999V9.52141L20.4799 12.0014L17.9999 14.4814Z" fill="black"/>
</g>
<defs>
<clipPath id="clip0_2048_13238">
<rect width="24" height="24" fill="white"/>
</clipPath>
</defs>
</svg>
