<svg width="24" height="24" viewBox="0 0 24 24" fill="none" xmlns="http://www.w3.org/2000/svg">
<g clip-path="url(#clip0_2048_13237)">
<path d="M16 6.99947H15L14 5.99947H10L9 6.99947H8C6.9 6.99947 6 7.89947 6 8.99947V14.9995C6 16.0995 6.9 16.9995 8 16.9995H16C17.1 16.9995 18 16.0995 18 14.9995V8.99947C18 7.89947 17.1 6.99947 16 6.99947ZM16 14.9995H8V8.99947H9.83L10.83 7.99947H13.17L14.17 8.99947H16V14.9995Z" fill="black"/>
<path d="M12 13.9995C13.1046 13.9995 14 13.104 14 11.9995C14 10.8949 13.1046 9.99947 12 9.99947C10.8954 9.99947 10 10.8949 10 11.9995C10 13.104 10.8954 13.9995 12 13.9995Z" fill="black"/>
<path d="M8.57 0.519475L13.05 4.99947L14.46 3.58947L12.92 2.04947C17.7 2.45947 21.53 6.23947 22 10.9995H24C23.36 3.29947 15.79 -1.67053 8.57 0.519475Z" fill="black"/>
<path d="M9.54 20.4095L11.08 21.9495C6.3 21.5395 2.47 17.7595 2 12.9995H0C0.64 20.6995 8.21 25.6695 15.43 23.4795L10.95 18.9995L9.54 20.4095Z" fill="black"/>
</g>
<defs>
<clipPath id="clip0_2048_13237">
<rect width="24" height="24" fill="white"/>
</clipPath>
</defs>
</svg>
