<svg width="24" height="24" viewBox="0 0 24 24" fill="none" xmlns="http://www.w3.org/2000/svg">
<path d="M12.7876 21.5039L2.99756 11.7139V13.7139C2.99756 14.2439 3.20756 14.7539 3.58756 15.1239L11.3776 22.9139C12.1576 23.6939 13.4276 23.6939 14.2076 22.9139L20.4176 16.7039C21.1976 15.9239 21.1976 14.6539 20.4176 13.8739L12.7876 21.5039Z" fill="black"/>
<path d="M11.3776 17.9139C11.7676 18.3039 12.2776 18.5039 12.7876 18.5039C13.2976 18.5039 13.8076 18.3039 14.1976 17.9139L20.4076 11.7039C21.1876 10.9239 21.1876 9.65391 20.4076 8.87391L12.6176 1.08391C12.2476 0.713906 11.7376 0.503906 11.2076 0.503906H4.99756C3.89756 0.503906 2.99756 1.40391 2.99756 2.50391V8.71391C2.99756 9.24391 3.20756 9.75391 3.58756 10.1239L11.3776 17.9139ZM4.99756 2.50391H11.2076L18.9976 10.2939L12.7876 16.5039L4.99756 8.71391V2.50391Z" fill="black"/>
<path d="M7.24756 6.00391C7.93791 6.00391 8.49756 5.44426 8.49756 4.75391C8.49756 4.06355 7.93791 3.50391 7.24756 3.50391C6.5572 3.50391 5.99756 4.06355 5.99756 4.75391C5.99756 5.44426 6.5572 6.00391 7.24756 6.00391Z" fill="black"/>
</svg>
