<svg width="24" height="24" viewBox="0 0 24 24" fill="none" xmlns="http://www.w3.org/2000/svg">
<path d="M18 18.5053V17.5053C18 16.7053 17.3 16.0053 16.5 16.0053H13V22.0053H14.5V20.0053H15.6L16.5 22.0053H18L17.1 19.9053C17.6 19.6053 18 19.1053 18 18.5053ZM16.5 18.5053H14.5V17.5053H16.5V18.5053ZM3.5 18.0053H1.5V16.0053H0V22.0053H1.5V19.5053H3.5V22.0053H5V16.0053H3.5V18.0053ZM10 16.0053H6.5V22.0053H10C10.8 22.0053 11.5 21.3053 11.5 20.5053V17.5053C11.5 16.7053 10.8 16.0053 10 16.0053ZM10 20.5053H8V17.5053H10V20.5053ZM24 20.0053H22V22.0053H20.5V20.0053H18.5V18.5053H20.5V16.5053H22V18.5053H24V20.0053ZM10.98 4.15526L9.42 2.59526C14.52 0.175259 19.83 5.48526 17.41 10.5853L15.85 9.02526C16.66 6.06526 13.94 3.34526 10.98 4.15526ZM6.34 2.34526L4.93 3.76526L6.59 5.42526C4.17 10.5253 9.48 15.8353 14.58 13.4153L16.24 15.0753L17.65 13.6653L6.34 2.34526ZM8.15 6.98526L13.02 11.8553C10.06 12.6653 7.34 9.94526 8.15 6.98526Z" fill="black"/>
</svg>
