<svg width="24" height="24" viewBox="0 0 24 24" fill="none" xmlns="http://www.w3.org/2000/svg">
<path d="M9.36998 5.12922C9.60998 5.12922 9.82998 5.19922 10.01 5.32922L10.82 5.88922C10.53 6.12922 10.28 6.42922 10.1 6.75922L11.76 8.41922C11.74 8.33922 11.71 8.27922 11.71 8.19922C11.71 7.64922 12.16 7.19922 12.71 7.19922C13.26 7.19922 13.71 7.64922 13.71 8.19922C13.71 8.74922 13.26 9.19922 12.71 9.19922C12.63 9.19922 12.57 9.16922 12.49 9.15922L16.55 13.2192C18.04 12.9792 19.18 11.6892 19.18 10.1292C19.18 9.41922 18.93 8.73922 18.51 8.19922C18.94 7.65922 19.18 6.97922 19.18 6.26922C19.18 4.53922 17.77 3.12922 16.04 3.12922C15.89 3.12922 15.75 3.13922 15.61 3.15922C15.15 2.00922 14.02 1.19922 12.71 1.19922C11.4 1.19922 10.27 2.00922 9.79998 3.15922C9.65998 3.13922 9.50998 3.12922 9.36998 3.12922C8.56998 3.12922 7.83998 3.43922 7.27998 3.93922L8.69998 5.35922C8.89998 5.22922 9.11998 5.12922 9.36998 5.12922ZM16.05 11.2692C15.81 11.2692 15.59 11.1992 15.41 11.0692L14.6 10.4992C15.15 10.0492 15.54 9.40922 15.66 8.66922L16.54 9.08922C16.94 9.27922 17.2 9.67922 17.2 10.1192C17.2 10.7592 16.68 11.2692 16.05 11.2692ZM15.4 5.32922C15.6 5.19922 15.82 5.12922 16.05 5.12922C16.68 5.12922 17.19 5.63922 17.19 6.26922C17.19 6.70922 16.94 7.09922 16.53 7.29922L15.65 7.71922C15.53 6.97922 15.14 6.33922 14.58 5.88922L15.4 5.32922ZM12.71 3.19922C13.33 3.19922 13.83 3.68922 13.85 4.29922L13.74 5.38922C13.42 5.26922 13.07 5.19922 12.71 5.19922C12.35 5.19922 12.01 5.26922 11.69 5.38922L11.57 4.29922C11.59 3.68922 12.09 3.19922 12.71 3.19922Z" fill="black"/>
<path d="M20.69 17.3492C21.34 16.1092 21.71 14.6992 21.71 13.1992C20.21 13.1992 18.8 13.5692 17.56 14.2192L20.69 17.3492Z" fill="black"/>
<path d="M3.70998 13.1992C3.70998 18.1692 7.73998 22.1992 12.71 22.1992C12.71 17.2292 8.67998 13.1992 3.70998 13.1992ZM6.14998 15.6392C8.04998 16.3492 9.56998 17.8592 10.27 19.7592C8.36998 19.0492 6.85998 17.5392 6.14998 15.6392Z" fill="black"/>
<path d="M3.51998 3.00922L2.09998 4.41922L6.51998 8.83922C6.32998 9.23922 6.21998 9.67922 6.21998 10.1292C6.21998 11.8592 7.62998 13.2692 9.36998 13.2692C9.51998 13.2692 9.65998 13.2592 9.79998 13.2392C10.27 14.3892 11.4 15.1992 12.71 15.1992C12.76 15.1992 12.82 15.1892 12.87 15.1892L14.51 16.8292C13.38 18.3192 12.71 20.1792 12.71 22.1992C14.73 22.1992 16.59 21.5292 18.09 20.3992L20.49 22.7992L21.9 21.3892L3.51998 3.00922ZM15.15 19.7592C15.35 19.2192 15.62 18.7192 15.94 18.2592L16.66 18.9792C16.19 19.2892 15.69 19.5592 15.15 19.7592Z" fill="black"/>
</svg>
