<svg width="24" height="24" viewBox="0 0 24 24" fill="none" xmlns="http://www.w3.org/2000/svg">
<path d="M21.7137 13.1181L19.1337 15.6981L17.3237 13.8881L19.5037 11.6981L12.3037 4.49813L10.1137 6.68812L8.30373 4.86813L10.8837 2.28812C11.6637 1.50813 12.9337 1.50813 13.7137 2.28812L21.7137 10.2881C22.5037 11.0681 22.5037 12.3281 21.7137 13.1181ZM21.4937 20.8881L20.0837 22.2981L16.3037 18.5281L13.7237 21.1081C12.9437 21.8881 11.6737 21.8881 10.8937 21.1081L2.89373 13.1081C2.11373 12.3281 2.11373 11.0581 2.89373 10.2781L5.47373 7.69812L1.69373 3.91812L3.10373 2.50813L21.4937 20.8881ZM14.4937 16.7181L13.1037 15.3281L12.3037 16.1281L7.88373 11.6981L8.68373 10.8981L7.28373 9.50813L5.10373 11.6981L12.3037 18.8981L14.4937 16.7181ZM16.7237 11.6981L12.3037 7.27812L11.5037 8.07812L15.9237 12.4981L16.7237 11.6981Z" fill="black"/>
</svg>
