<svg width="24" height="24" viewBox="0 0 24 24" fill="none" xmlns="http://www.w3.org/2000/svg">
<path d="M12.0026 7.57109L16.4226 11.9911L12.0026 16.4111L7.58256 11.9911L12.0026 7.57109ZM12.0026 19.1911L4.80256 11.9911L12.0026 4.79109L18.0026 10.7911V7.16109L13.4226 2.58109C12.6426 1.80109 11.3726 1.80109 10.5926 2.58109L2.58256 10.5811C1.80256 11.3611 1.80256 12.6311 2.58256 13.4111L10.5926 21.4111C11.3726 22.1911 12.6426 22.1911 13.4226 21.4111L18.0026 16.8211V13.1911L12.0026 19.1911ZM20.0026 20.0011H22.0026V22.0011H20.0026V20.0011ZM22.0026 10.0011H20.0026V18.0011H22.0026V10.0011Z" fill="black"/>
</svg>
