<svg width="24" height="24" viewBox="0 0 24 24" fill="none" xmlns="http://www.w3.org/2000/svg">
<path d="M21.4082 11.4139L12.5782 2.58391C12.2082 2.21391 11.6982 2.00391 11.1682 2.00391H3.99817C2.89817 2.00391 1.99817 2.90391 1.99817 4.00391V11.1739C1.99817 11.7039 2.20817 12.2139 2.58817 12.5839L11.4182 21.4139C12.1982 22.1939 13.4682 22.1939 14.2482 21.4139L21.4182 14.2439C22.1982 13.4639 22.1982 12.2039 21.4082 11.4139ZM12.8282 20.0039L3.99817 11.1739V4.00391H11.1682L19.9982 12.8339L12.8282 20.0039Z" fill="black"/>
<path d="M6.49817 8.00391C7.3266 8.00391 7.99817 7.33233 7.99817 6.50391C7.99817 5.67548 7.3266 5.00391 6.49817 5.00391C5.66974 5.00391 4.99817 5.67548 4.99817 6.50391C4.99817 7.33233 5.66974 8.00391 6.49817 8.00391Z" fill="black"/>
</svg>
