<svg width="24" height="24" viewBox="0 0 24 24" fill="none" xmlns="http://www.w3.org/2000/svg">
<path d="M13.02 19.9308V21.9508C15.03 21.7508 16.86 20.9508 18.34 19.7408L16.92 18.3108C15.81 19.1708 14.48 19.7508 13.02 19.9308Z" fill="black"/>
<path d="M4.03003 12.0008C4.03003 7.95078 7.06003 4.59078 10.98 4.07078V2.05078C5.95003 2.58078 2.03003 6.84078 2.03003 12.0008C2.03003 17.1608 5.95003 21.4208 10.98 21.9508V19.9308C7.06003 19.4108 4.03003 16.0508 4.03003 12.0008Z" fill="black"/>
<path d="M19.95 11.0008H21.97C21.77 8.99078 20.97 7.16078 19.76 5.68078L18.33 7.11078C19.19 8.21078 19.77 9.54078 19.95 11.0008Z" fill="black"/>
<path d="M18.34 4.26078C16.86 3.05078 15.02 2.25078 13.02 2.05078V4.07078C14.48 4.25078 15.81 4.83078 16.92 5.69078L18.34 4.26078Z" fill="black"/>
<path d="M18.33 16.9008L19.76 18.3208C20.97 16.8408 21.77 15.0108 21.97 13.0008H19.95C19.77 14.4608 19.19 15.7908 18.33 16.9008Z" fill="black"/>
<path d="M16 11.1008C16 8.61078 14.1 7.00078 12 7.00078C9.90003 7.00078 8.00003 8.61078 8.00003 11.1008C8.00003 12.7608 9.33003 14.7308 12 17.0008C14.67 14.7308 16 12.7608 16 11.1008ZM12 12.0008C11.41 12.0008 10.93 11.5208 10.93 10.9308C10.93 10.3408 11.41 9.86078 12 9.86078C12.59 9.86078 13.07 10.3408 13.07 10.9308C13.07 11.5208 12.59 12.0008 12 12.0008Z" fill="black"/>
</svg>
