<svg width="24" height="24" viewBox="0 0 24 24" fill="none" xmlns="http://www.w3.org/2000/svg">
<path d="M15.1 7.39844V11.3984H16.1V13.3984H13.1V5.39844H15.1L12.1 1.39844L9.10002 5.39844H11.1V13.3984H8.10002V11.3284C8.80002 10.9584 9.30002 10.2484 9.30002 9.39844C9.30002 8.18844 8.31002 7.19844 7.10002 7.19844C5.89002 7.19844 4.90002 8.18844 4.90002 9.39844C4.90002 10.2484 5.40002 10.9584 6.10002 11.3284V13.3984C6.10002 14.5084 6.99002 15.3984 8.10002 15.3984H11.1V18.4484C10.39 18.8184 9.90002 19.5484 9.90002 20.3984C9.90002 21.6184 10.89 22.5984 12.1 22.5984C13.31 22.5984 14.3 21.6184 14.3 20.3984C14.3 19.5484 13.81 18.8184 13.1 18.4484V15.3984H16.1C17.21 15.3984 18.1 14.5084 18.1 13.3984V11.3984H19.1V7.39844H15.1Z" fill="black"/>
</svg>
