<svg width="24" height="24" viewBox="0 0 24 24" fill="none" xmlns="http://www.w3.org/2000/svg">
<path d="M15.715 7.69922H19.715V11.6992H18.715V13.6992C18.715 14.0392 18.635 14.3592 18.485 14.6392L16.715 12.8692V11.6992H15.715V7.69922ZM11.715 7.86922L13.715 9.86922V5.69922H15.715L12.715 1.69922L9.71498 5.69922H11.715V7.86922ZM13.715 15.6992V17.9792C14.315 18.3192 14.715 18.9592 14.715 19.6992C14.715 20.7992 13.815 21.6992 12.715 21.6992C11.615 21.6992 10.715 20.7992 10.715 19.6992C10.715 18.9592 11.115 18.3292 11.715 17.9792V15.6992H8.71498C7.60498 15.6992 6.71498 14.8092 6.71498 13.6992V11.4192C6.11498 11.0792 5.71498 10.4392 5.71498 9.69922C5.71498 9.10922 5.97498 8.56922 6.39498 8.20922L2.10498 3.91922L3.51498 2.50922L21.895 20.8892L20.485 22.2992L13.885 15.6992H13.715ZM11.715 13.6992V13.5292L9.20498 11.0192C9.06498 11.1792 8.89498 11.3092 8.71498 11.4192V13.6992H11.715Z" fill="black"/>
</svg>
