<svg width="24" height="24" viewBox="0 0 24 24" fill="none" xmlns="http://www.w3.org/2000/svg">
<path d="M12 10.6758C10.9 10.6758 10 11.5758 10 12.6758C10 13.7758 10.9 14.6758 12 14.6758C13.1 14.6758 14 13.7758 14 12.6758C14 11.5758 13.1 10.6758 12 10.6758ZM18 12.6758C18 9.36578 15.31 6.67578 12 6.67578C8.69 6.67578 6 9.36578 6 12.6758C6 14.8958 7.21 16.8258 9 17.8658L10 16.1258C8.81 15.4258 8 14.1558 8 12.6758C8 10.4658 9.79 8.67578 12 8.67578C14.21 8.67578 16 10.4658 16 12.6758C16 14.1558 15.19 15.4258 14 16.1258L15 17.8658C16.79 16.8258 18 14.8958 18 12.6758ZM12 2.67578C6.48 2.67578 2 7.15578 2 12.6758C2 16.3758 4.01 19.5958 6.99 21.3258L7.99 19.5958C5.61 18.2058 4 15.6358 4 12.6758C4 8.25578 7.58 4.67578 12 4.67578C16.42 4.67578 20 8.25578 20 12.6758C20 15.6358 18.39 18.2058 16 19.5958L17 21.3258C19.99 19.5958 22 16.3758 22 12.6758C22 7.15578 17.52 2.67578 12 2.67578Z" fill="black"/>
</svg>
