<svg width="24" height="24" viewBox="0 0 24 24" fill="none" xmlns="http://www.w3.org/2000/svg">
<path d="M15.9207 4.5C17.7107 4.5 19.3407 5.23 20.5107 6.41L21.5707 5.35C20.1307 3.9 18.1307 3 15.9207 3C13.7107 3 11.7107 3.9 10.2607 5.34L11.3207 6.4C12.5107 5.23 14.1307 4.5 15.9207 4.5Z" fill="black"/>
<path d="M15.9207 6C14.5407 6 13.2907 6.56 12.3807 7.46L13.4407 8.52C14.0707 7.89 14.9507 7.49 15.9107 7.49C16.8707 7.49 17.7507 7.88 18.3807 8.52L19.4407 7.46C18.5507 6.56 17.3007 6 15.9207 6Z" fill="black"/>
<path d="M15.9207 9C15.3707 9 14.8707 9.22 14.5107 9.59L15.9207 11L17.3307 9.59C16.9707 9.22 16.4707 9 15.9207 9Z" fill="black"/>
<path d="M19.6307 14.87L15.9607 14.14C15.4607 14.04 15.1307 14.34 15.0607 14.41L12.5407 16.91C10.0407 15.48 7.97068 13.41 6.54068 10.91L9.04068 8.39C9.27068 8.15 9.37068 7.82 9.31068 7.49L8.56068 3.8C8.47068 3.34 8.06068 3 7.58068 3H3.43068C2.87068 3 2.40068 3.47 2.43068 4.03C2.60068 6.92 3.48068 9.63 4.86068 12C6.44068 14.73 8.71068 16.99 11.4307 18.57C13.8007 19.94 16.5107 20.83 19.4007 21C19.9507 21.03 20.4307 20.57 20.4307 20V15.85C20.4307 15.37 20.0907 14.96 19.6307 14.87ZM4.53068 5H6.76068L7.23068 7.35L5.60068 9C5.06068 7.7 4.70068 6.37 4.53068 5ZM18.4307 18.9C17.0607 18.72 15.7307 18.37 14.4307 17.83L16.0807 16.2L18.4307 16.67V18.9Z" fill="black"/>
</svg>
