<svg width="24" height="24" viewBox="0 0 24 24" fill="none" xmlns="http://www.w3.org/2000/svg">
<path d="M3.11495 2.10547L1.69495 3.51547L4.38495 6.20547C3.08495 7.89547 2.30495 10.0055 2.30495 12.2955C2.30495 15.0555 3.42495 17.5555 5.23495 19.3655L6.65495 17.9455C5.20495 16.5055 4.30495 14.5055 4.30495 12.2955C4.30495 10.5455 4.87495 8.94547 5.81495 7.63547L7.24495 9.06547C6.65495 9.99547 6.30495 11.1055 6.30495 12.2955C6.30495 13.9555 6.98495 15.4455 8.06495 16.5355L9.48495 15.1155C8.75495 14.3955 8.30495 13.4055 8.30495 12.2955C8.30495 11.6655 8.45495 11.0655 8.71495 10.5355L10.3249 12.1455C10.3249 12.1955 10.3049 12.2455 10.3049 12.2955C10.3049 12.8455 10.5349 13.3455 10.8949 13.7055C11.2549 14.0655 11.7549 14.2955 12.3049 14.2955C12.3549 14.2955 12.4049 14.2855 12.4649 14.2755L20.0849 21.8955L21.4949 20.4855L3.11495 2.10547ZM18.0049 14.1655C18.1949 13.5755 18.3049 12.9455 18.3049 12.2955C18.3049 8.98547 15.6149 6.29547 12.3049 6.29547C11.6549 6.29547 11.0249 6.39547 10.4349 6.59547L12.1449 8.30547C12.1949 8.29547 12.2549 8.29547 12.3049 8.29547C14.5149 8.29547 16.3049 10.0855 16.3049 12.2955C16.3049 12.3455 16.3049 12.4055 16.2949 12.4555L18.0049 14.1655ZM12.3049 4.29547C16.7249 4.29547 20.3049 7.87547 20.3049 12.2955C20.3049 13.5155 20.0349 14.6655 19.5349 15.6955L21.0249 17.1855C21.8349 15.7455 22.3049 14.0755 22.3049 12.2955C22.3049 6.77547 17.8249 2.29547 12.3049 2.29547C10.5249 2.29547 8.86495 2.75547 7.41495 3.57547L8.89495 5.05547C9.93495 4.56547 11.0849 4.29547 12.3049 4.29547Z" fill="black"/>
</svg>
