<svg width="24" height="24" viewBox="0 0 24 24" fill="none" xmlns="http://www.w3.org/2000/svg">
<path d="M5 15.7787C5 19.6488 8.13 22.7787 12 22.7787C15.87 22.7787 19 19.6488 19 15.7787V11.7787H5V15.7787ZM16.12 4.14875L18.22 2.04875L17.4 1.21875L15.1 3.52875C14.16 3.05875 13.12 2.77875 12 2.77875C10.88 2.77875 9.84 3.05875 8.91 3.52875L6.6 1.21875L5.78 2.04875L7.88 4.14875C6.14 5.41875 5 7.45875 5 9.77875V10.7787H19V9.77875C19 7.45875 17.86 5.41875 16.12 4.14875ZM9 8.77875C8.45 8.77875 8 8.32875 8 7.77875C8 7.22875 8.45 6.77875 9 6.77875C9.55 6.77875 10 7.22875 10 7.77875C10 8.32875 9.55 8.77875 9 8.77875ZM15 8.77875C14.45 8.77875 14 8.32875 14 7.77875C14 7.22875 14.45 6.77875 15 6.77875C15.55 6.77875 16 7.22875 16 7.77875C16 8.32875 15.55 8.77875 15 8.77875Z" fill="black"/>
</svg>
