<svg width="24" height="24" viewBox="0 0 24 24" fill="none" xmlns="http://www.w3.org/2000/svg">
<path d="M15.9 4.77263C15.73 4.77263 15.58 4.86263 15.49 5.00263L15.42 5.15263L10.24 16.8026C10.08 17.0926 9.98 17.4126 9.98 17.7626C9.98 18.8726 10.88 19.7726 11.99 19.7726C12.95 19.7726 13.76 19.0926 13.95 18.1826L13.96 18.1526L16.4 5.27263C16.4 4.99263 16.18 4.77263 15.9 4.77263ZM1 8.77263L3 10.7726C5.88 7.89263 9.79 6.69263 13.53 7.15263L14.72 4.47263C9.89 3.61263 4.74 5.04263 1 8.77263ZM21 10.7726L23 8.77263C21.36 7.13263 19.45 5.95263 17.41 5.20263L16.88 8.02263C18.38 8.64263 19.78 9.55263 21 10.7726ZM17 14.7726L19 12.7726C18.2 11.9726 17.3 11.3526 16.34 10.8826L15.79 13.8026C16.21 14.0726 16.62 14.3926 17 14.7726ZM5 12.7726L7 14.7726C8.13 13.6426 9.56 12.9826 11.03 12.7726L12.31 9.89263C9.68 9.81263 7.01 10.7626 5 12.7726Z" fill="black"/>
</svg>
