<svg width="24" height="24" viewBox="0 0 24 24" fill="none" xmlns="http://www.w3.org/2000/svg">
<path d="M21 12.1686L23 10.1686C19.27 6.43859 14.13 5.01859 9.3 5.85859L11.88 8.43859C15.18 8.41859 18.49 9.65859 21 12.1686ZM19 14.1686C17.92 13.0886 16.64 12.3186 15.28 11.8386L18.3 14.8586L19 14.1686ZM9 18.1686L12 21.1686L15 18.1686C13.35 16.5086 10.66 16.5086 9 18.1686ZM3.41 2.80859L2 4.21859L5.05 7.26859C3.59 7.99859 2.22 8.95859 1 10.1686L3 12.1686C4.23 10.9386 5.65 10.0086 7.17 9.38859L9.41 11.6286C7.79 12.0586 6.27 12.9086 5 14.1686L7 16.1686C8.35 14.8186 10.11 14.1286 11.89 14.1086L18.97 21.1886L20.38 19.7786L3.41 2.80859Z" fill="black"/>
</svg>
