<svg width="25" height="24" viewBox="0 0 25 24" fill="none" xmlns="http://www.w3.org/2000/svg">
<rect x="0.5" width="24" height="24" rx="12" fill="#1D9BF0"/>
<path d="M10.3041 18.3311C15.6261 18.3311 18.5361 13.9211 18.5361 10.0991C18.5361 9.97309 18.5361 9.84709 18.5301 9.72709C19.0941 9.31909 19.5861 8.80909 19.9761 8.22709C19.4601 8.45509 18.9021 8.61109 18.3141 8.68309C18.9141 8.32309 19.3701 7.75909 19.5861 7.08109C19.0281 7.41109 18.4101 7.65109 17.7501 7.78309C17.2221 7.21909 16.4721 6.87109 15.6381 6.87109C14.0421 6.87109 12.7461 8.16709 12.7461 9.76309C12.7461 9.99109 12.7701 10.2131 12.8241 10.4231C10.4181 10.3031 8.28808 9.15109 6.86008 7.39909C6.61408 7.82509 6.47008 8.32309 6.47008 8.85109C6.47008 9.85309 6.98008 10.7411 7.76008 11.2571C7.28608 11.2451 6.84208 11.1131 6.45208 10.8971C6.45208 10.9091 6.45208 10.9211 6.45208 10.9331C6.45208 12.3371 7.44808 13.5011 8.77408 13.7711C8.53408 13.8371 8.27608 13.8731 8.01208 13.8731C7.82608 13.8731 7.64608 13.8551 7.46608 13.8191C7.83208 14.9711 8.90008 15.8051 10.1661 15.8291C9.17608 16.6031 7.92808 17.0651 6.57208 17.0651C6.33808 17.0651 6.11008 17.0531 5.88208 17.0231C7.14808 17.8511 8.67208 18.3311 10.3041 18.3311Z" fill="white"/>
</svg>
