<svg width="25" height="24" viewBox="0 0 25 24" fill="none" xmlns="http://www.w3.org/2000/svg">
<path d="M21.5571 7.17919C21.5664 7.39039 21.5664 7.59199 21.5664 7.80319C21.5756 14.2064 16.8712 21.5984 8.26793 21.5984C5.73048 21.5984 3.23933 20.84 1.1001 19.4192C1.47053 19.4672 1.84096 19.4864 2.21139 19.4864C4.31358 19.4864 6.36021 18.7568 8.01789 17.4032C6.01756 17.3648 4.25802 16.0112 3.64681 14.0336C4.35063 14.1776 5.07296 14.1488 5.75826 13.9472C3.58198 13.5056 2.01691 11.5184 2.00765 9.2048C2.00765 9.1856 2.00765 9.1664 2.00765 9.1472C2.65591 9.5216 3.38751 9.7328 4.12837 9.752C2.08174 8.3312 1.44275 5.49919 2.68369 3.28158C5.0637 6.31519 8.56427 8.14879 12.3241 8.3504C11.9445 6.67039 12.4631 4.90398 13.6762 3.71358C15.5561 1.87997 18.5196 1.97597 20.2977 3.92478C21.3441 3.71358 22.3535 3.31038 23.2704 2.74398C22.9185 3.86718 22.1869 4.81758 21.2145 5.42239C22.1406 5.30719 23.0481 5.04798 23.9001 4.66398C23.2704 5.64319 22.4739 6.48799 21.5571 7.17919Z" fill="#0C0C0C"/>
</svg>
