<svg width="24" height="24" viewBox="0 0 24 24" fill="none" xmlns="http://www.w3.org/2000/svg">
<path d="M17.1918 8.66444C18.7352 9.77162 20.6259 10.4231 22.6679 10.4231V6.47959C22.2814 6.47967 21.896 6.43923 21.5179 6.35884V9.46291C19.476 9.46291 17.5856 8.81147 16.0418 7.70438V15.7518C16.0418 19.7776 12.7899 23.0409 8.77871 23.0409C7.28204 23.0409 5.89094 22.5868 4.73535 21.808C6.05426 23.1614 7.89359 24.0009 9.92847 24.0009C13.9399 24.0009 17.192 20.7377 17.192 16.7117V8.66444H17.1918ZM18.6105 4.68597C17.8218 3.8212 17.3039 2.70365 17.1918 1.46815V0.960938H16.102C16.3764 2.53126 17.312 3.87285 18.6105 4.68597ZM7.27244 18.7188C6.83176 18.1389 6.59362 17.4296 6.59469 16.7002C6.59469 14.859 8.0821 13.3661 9.91715 13.3661C10.2591 13.366 10.5991 13.4186 10.925 13.5223V9.49075C10.5441 9.43836 10.1597 9.41612 9.77548 9.42428V12.5623C9.44932 12.4585 9.10922 12.4058 8.76715 12.4061C6.93209 12.4061 5.44477 13.8988 5.44477 15.7403C5.44477 17.0424 6.18822 18.1696 7.27244 18.7188Z" fill="#FF004F"/>
<path d="M16.0418 7.7043C17.5856 8.81139 19.476 9.46282 21.5179 9.46282V6.35875C20.3781 6.11511 19.3691 5.51738 18.6105 4.68597C17.3119 3.87276 16.3764 2.53118 16.1021 0.960938H13.2395V16.7116C13.233 18.5478 11.7481 20.0346 9.917 20.0346C8.83795 20.0346 7.87932 19.5184 7.2722 18.7188C6.18807 18.1696 5.44461 17.0423 5.44461 15.7404C5.44461 13.8991 6.93193 12.4062 8.76699 12.4062C9.11858 12.4062 9.45746 12.4611 9.77533 12.5624V9.42436C5.83459 9.50607 2.66528 12.7375 2.66528 16.7117C2.66528 18.6955 3.45451 20.494 4.73544 21.8081C5.89103 22.5868 7.28213 23.041 8.7788 23.041C12.7901 23.041 16.0419 19.7775 16.0419 15.7518V7.7043H16.0418Z" fill="#0C0C0C"/>
<path d="M21.5179 6.3578V5.51848C20.4901 5.52005 19.4825 5.23119 18.6105 4.68493C19.3825 5.53306 20.3989 6.11787 21.5179 6.3578ZM16.1021 0.959983C16.0759 0.809911 16.0558 0.658851 16.0419 0.507214V0H12.0894V15.7508C12.0831 17.5868 10.5983 19.0736 8.76702 19.0736C8.22938 19.0736 7.72176 18.9455 7.27223 18.7179C7.87935 19.5174 8.83797 20.0335 9.91702 20.0335C11.748 20.0335 13.2331 18.5469 13.2395 16.7107V0.959983H16.1021ZM9.77552 9.4234V8.52989C9.44526 8.48459 9.11229 8.46186 8.77891 8.46202C4.7673 8.46194 1.51538 11.7254 1.51538 15.7508C1.51538 18.2745 2.79344 20.4987 4.73555 21.807C3.45462 20.493 2.66539 18.6944 2.66539 16.7106C2.66539 12.7365 5.83462 9.50511 9.77552 9.4234Z" fill="#00F2EA"/>
</svg>
