<svg width="24" height="24" viewBox="0 0 24 24" fill="none" xmlns="http://www.w3.org/2000/svg">
<rect width="24" height="24" rx="12" fill="#0C0C0C"/>
<path d="M14.6671 10.3442C15.6188 11.027 16.7848 11.4287 18.044 11.4287V8.99692C17.8057 8.99697 17.568 8.97203 17.3348 8.92246V10.8366C16.0757 10.8366 14.9099 10.4349 13.9579 9.75221V14.7148C13.9579 17.1974 11.9526 19.2097 9.479 19.2097C8.55605 19.2097 7.69821 18.9297 6.9856 18.4495C7.79893 19.284 8.93318 19.8018 10.188 19.8018C12.6618 19.8018 14.6672 17.7894 14.6672 15.3068V10.3442H14.6671ZM15.5419 7.89085C15.0556 7.35758 14.7362 6.66842 14.6671 5.90653V5.59375H13.9951C14.1642 6.56211 14.7412 7.38943 15.5419 7.89085ZM8.55013 16.5444C8.27838 16.1868 8.13153 15.7494 8.13219 15.2996C8.13219 14.1642 9.04942 13.2436 10.181 13.2436C10.3919 13.2436 10.6016 13.276 10.8025 13.34V10.8538C10.5677 10.8215 10.3306 10.8078 10.0937 10.8128V12.7479C9.89255 12.6839 9.68282 12.6514 9.47187 12.6516C8.34025 12.6516 7.42307 13.5721 7.42307 14.7077C7.42307 15.5106 7.88153 16.2058 8.55013 16.5444Z" fill="#FF004F"/>
<path d="M13.9581 9.75216C14.9101 10.4349 16.0759 10.8366 17.335 10.8366V8.92241C16.6322 8.77216 16.01 8.40356 15.5421 7.89086C14.7413 7.38938 14.1644 6.56206 13.9952 5.59375H12.23V15.3067C12.226 16.439 11.3103 17.3558 10.1811 17.3558C9.51571 17.3558 8.92456 17.0375 8.55017 16.5444C7.88161 16.2058 7.42315 15.5106 7.42315 14.7078C7.42315 13.5723 8.34033 12.6517 9.47195 12.6517C9.68877 12.6517 9.89774 12.6855 10.0938 12.748V10.8129C7.66364 10.8633 5.70923 12.856 5.70923 15.3067C5.70923 16.5301 6.19592 17.6392 6.98583 18.4495C7.69844 18.9297 8.55629 19.2098 9.47924 19.2098C11.9529 19.2098 13.9582 17.1973 13.9582 14.7148V9.75216H13.9581Z" fill="white"/>
<path d="M17.3349 8.92065V8.40307C16.7011 8.40403 16.0798 8.2259 15.542 7.88904C16.018 8.41206 16.6449 8.77269 17.3349 8.92065ZM13.9951 5.59199C13.979 5.49945 13.9666 5.40629 13.958 5.31278V5H11.5206V14.713C11.5168 15.8452 10.6011 16.762 9.47185 16.762C9.1403 16.762 8.82727 16.6831 8.55006 16.5427C8.92445 17.0358 9.5156 17.354 10.181 17.354C11.3101 17.354 12.2259 16.4373 12.2299 15.3049V5.59199H13.9951ZM10.0938 10.8111V10.2601C9.89009 10.2322 9.68476 10.2181 9.47918 10.2183C7.00535 10.2182 5 12.2307 5 14.713C5 16.2693 5.78814 17.6409 6.98577 18.4477C6.19586 17.6374 5.70917 16.5282 5.70917 15.3049C5.70917 12.8542 7.66353 10.8615 10.0938 10.8111Z" fill="#00F2EA"/>
</svg>
