<svg width="24" height="24" viewBox="0 0 24 24" fill="none" xmlns="http://www.w3.org/2000/svg">
<path d="M13.715 9.29156C13.715 8.74156 14.165 8.29156 14.715 8.29156H17.715C18.265 8.29156 18.715 8.74156 18.715 9.29156V10.2916H17.215V9.79156H15.215V10.7916L13.715 9.29156ZM17.215 12.7916L18.425 14.0016C18.605 13.8116 18.715 13.5616 18.715 13.2916V12.2916H17.215V12.7916ZM9.54498 5.29156H19.715V15.4616L21.695 17.4416C21.695 17.3916 21.715 17.3416 21.715 17.2816V5.29156C21.715 4.19156 20.815 3.29156 19.715 3.29156H7.54498L9.54498 5.29156ZM20.495 21.9016L17.885 19.2916H5.71498C4.60498 19.2916 3.71498 18.3916 3.71498 17.2916V5.29156C3.71498 5.24156 3.73498 5.19156 3.73498 5.14156L2.10498 3.51156L3.51498 2.10156L21.895 20.4816L20.495 21.9016ZM8.21498 12.7916H10.215V12.2916H10.885L8.38498 9.79156H8.21498V12.7916ZM15.885 17.2916L11.715 13.1216V13.2916C11.715 13.8416 11.265 14.2916 10.715 14.2916H7.71498C7.16498 14.2916 6.71498 13.8416 6.71498 13.2916V9.29156C6.71498 8.97156 6.87498 8.70156 7.11498 8.51156L5.71498 7.12156V17.2916H15.885Z" fill="black"/>
</svg>
