<svg width="24" height="24" viewBox="0 0 24 24" fill="none" xmlns="http://www.w3.org/2000/svg">
<path d="M6.73998 3.28469C7.85998 2.52469 9.21998 2.08469 10.71 2.08469C14.64 2.08469 17.71 5.15469 17.71 9.08469C17.71 10.3447 17.33 11.7347 16.64 12.9847C16.62 13.0247 16.59 13.0647 16.56 13.1147L15.08 11.6347C15.48 10.7747 15.71 9.88469 15.71 9.08469C15.71 6.28469 13.51 4.08469 10.71 4.08469C9.78998 4.08469 8.94998 4.34469 8.20998 4.75469L6.73998 3.28469ZM17.92 14.4647L19.35 15.8947C20.82 14.0147 21.71 11.6547 21.71 9.08469C21.71 6.04469 20.48 3.29469 18.49 1.30469L17.07 2.72469C18.7 4.34469 19.71 6.59469 19.71 9.08469C19.71 11.1047 19.04 12.9647 17.92 14.4647ZM10.71 6.58469C10.5 6.58469 10.31 6.61469 10.12 6.66469L13.13 9.67469C13.18 9.48469 13.21 9.29469 13.21 9.08469C13.21 7.70469 12.09 6.58469 10.71 6.58469ZM21.9 21.2747L3.51998 2.89469L2.09998 4.30469L4.22998 6.43469C3.89998 7.24469 3.70998 8.13469 3.70998 9.08469H5.70998C5.70998 8.72469 5.75998 8.37469 5.82998 8.03469L12.44 14.6447C11.56 15.3247 10.66 16.0547 10.17 17.5447C9.66998 19.0447 9.16998 19.5547 8.45998 19.9247C8.26998 20.0247 7.99998 20.0847 7.70998 20.0847C6.60998 20.0847 5.70998 19.1847 5.70998 18.0847H3.70998C3.70998 20.2947 5.49998 22.0847 7.70998 22.0847C8.27998 22.0847 8.83998 21.9647 9.34998 21.7347C10.71 21.0247 11.48 20.0047 12.08 18.1847C12.4 17.2047 12.98 16.7547 13.79 16.1347C13.82 16.1147 13.84 16.0947 13.87 16.0747L20.49 22.6947L21.9 21.2747Z" fill="black"/>
</svg>
