<svg width="24" height="24" viewBox="0 0 24 24" fill="none" xmlns="http://www.w3.org/2000/svg">
<path d="M17 20.3894C16.71 20.3894 16.44 20.3294 16.24 20.2394C15.53 19.8694 15.03 19.3594 14.53 17.8594C14.02 16.2994 13.06 15.5694 12.14 14.8594C11.35 14.2494 10.53 13.6194 9.82 12.3294C9.29 11.3694 9 10.3194 9 9.38937C9 6.58937 11.2 4.38937 14 4.38937C16.8 4.38937 19 6.58937 19 9.38937H21C21 5.45937 17.93 2.38937 14 2.38937C10.07 2.38937 7 5.45937 7 9.38937C7 10.6494 7.38 12.0394 8.07 13.2894C8.98 14.9394 10.05 15.7694 10.92 16.4394C11.73 17.0594 12.31 17.5094 12.63 18.4894C13.23 20.3094 14 21.3294 15.36 22.0394C15.87 22.2694 16.43 22.3894 17 22.3894C19.21 22.3894 21 20.5994 21 18.3894H19C19 19.4894 18.1 20.3894 17 20.3894ZM7.64 3.02938L6.22 1.60938C4.23 3.59938 3 6.34937 3 9.38937C3 12.4294 4.23 15.1794 6.22 17.1694L7.63 15.7594C6.01 14.1294 5 11.8794 5 9.38937C5 6.89937 6.01 4.64937 7.64 3.02938ZM11.5 9.38937C11.5 10.7694 12.62 11.8894 14 11.8894C15.38 11.8894 16.5 10.7694 16.5 9.38937C16.5 8.00937 15.38 6.88937 14 6.88937C12.62 6.88937 11.5 8.00937 11.5 9.38937Z" fill="black"/>
</svg>
