<svg width="24" height="24" viewBox="0 0 24 24" fill="none" xmlns="http://www.w3.org/2000/svg">
<path d="M10.72 5.38828C10.72 4.72828 11.26 4.18828 11.92 4.18828C12.58 4.18828 13.12 4.72828 13.12 5.38828L13.11 9.29828L14.92 11.0883V5.48828C14.92 3.82828 13.58 2.48828 11.92 2.48828C10.38 2.48828 9.13004 3.64828 8.96004 5.13828L10.72 6.89828V5.38828ZM18.92 11.4883H17.22C17.22 12.0683 17.12 12.6183 16.95 13.1283L18.22 14.3983C18.66 13.5183 18.92 12.5283 18.92 11.4883ZM4.33004 3.34828L2.92004 4.75828L8.92004 10.7583V11.4883C8.92004 13.1483 10.26 14.4883 11.92 14.4883C12.15 14.4883 12.36 14.4583 12.57 14.4083L14.23 16.0683C13.52 16.3983 12.73 16.5883 11.92 16.5883C9.16004 16.5883 6.62004 14.4883 6.62004 11.4883H4.92004C4.92004 14.8983 7.64004 17.7183 10.92 18.2083V21.4883H12.92V18.2083C13.83 18.0783 14.69 17.7583 15.47 17.3083L19.67 21.5083L21.08 20.0983L4.33004 3.34828Z" fill="black"/>
</svg>
