<svg width="24" height="24" viewBox="0 0 24 24" fill="none" xmlns="http://www.w3.org/2000/svg">
<path d="M13.025 9.79078L9.97502 7.50078V16.5008L13.025 14.2108L15.975 12.0008L13.025 9.79078ZM13.025 9.79078L9.97502 7.50078V16.5008L13.025 14.2108L15.975 12.0008L13.025 9.79078ZM13.025 9.79078L9.97502 7.50078V16.5008L13.025 14.2108L15.975 12.0008L13.025 9.79078ZM10.975 4.07078V2.05078C8.96502 2.25078 7.13502 3.05078 5.65502 4.26078L7.07502 5.69078C8.18502 4.83078 9.51502 4.25078 10.975 4.07078ZM5.66502 7.10078L4.23502 5.68078C3.02502 7.16078 2.22502 8.99078 2.02502 11.0008H4.04502C4.22502 9.54078 4.80502 8.21078 5.66502 7.10078ZM4.04502 13.0008H2.02502C2.22502 15.0108 3.02502 16.8408 4.23502 18.3208L5.66502 16.8908C4.80502 15.7908 4.22502 14.4608 4.04502 13.0008ZM5.65502 19.7408C7.13502 20.9508 8.97502 21.7508 10.975 21.9508V19.9308C9.51502 19.7508 8.18502 19.1708 7.07502 18.3108L5.65502 19.7408ZM21.975 12.0008C21.975 17.1608 18.055 21.4208 13.025 21.9508V19.9308C16.945 19.4108 19.975 16.0508 19.975 12.0008C19.975 7.95078 16.945 4.59078 13.025 4.07078V2.05078C18.055 2.58078 21.975 6.84078 21.975 12.0008Z" fill="black"/>
</svg>
