<svg width="24" height="24" viewBox="0 0 24 24" fill="none" xmlns="http://www.w3.org/2000/svg">
<path d="M8.99954 11.0963H12.6295L8.99954 15.2962V17.0963H14.9995V15.0963H11.3695L14.9995 10.8962V9.09625H8.99954V11.0963ZM16.0555 3.44225L17.3375 1.90725L21.9445 5.75725L20.6645 7.29725L16.0555 3.44225ZM3.33554 7.28625L2.05554 5.75025L6.66154 1.90625L7.94154 3.44225L3.33554 7.28625ZM11.9995 6.09625C15.8595 6.09625 18.9995 9.23625 18.9995 13.0963C18.9995 16.9563 15.8595 20.0963 11.9995 20.0963C8.13954 20.0963 4.99954 16.9563 4.99954 13.0963C4.99954 9.23625 8.13954 6.09625 11.9995 6.09625ZM11.9995 4.09625C7.02954 4.09625 2.99954 8.12625 2.99954 13.0963C2.99954 18.0662 7.02954 22.0963 11.9995 22.0963C16.9695 22.0963 20.9995 18.0662 20.9995 13.0963C20.9995 8.12625 16.9695 4.09625 11.9995 4.09625Z" fill="black"/>
</svg>
