<svg width="24" height="24" viewBox="0 0 24 24" fill="none" xmlns="http://www.w3.org/2000/svg">
<path d="M20.3642 8.55157L19.1342 10.4016C19.7274 11.5846 20.0178 12.8964 19.9794 14.2193C19.941 15.5422 19.575 16.8349 18.9142 17.9816H5.05418C4.19535 16.4917 3.83948 14.7647 4.03932 13.0566C4.23917 11.3486 4.98409 9.75039 6.16366 8.49899C7.34323 7.2476 8.89465 6.40961 10.5879 6.10926C12.2812 5.80892 14.0262 6.0622 15.5642 6.83157L17.4142 5.60157C15.5307 4.39378 13.2965 3.85257 11.0691 4.0645C8.84163 4.27643 6.74963 5.22926 5.12767 6.77058C3.50572 8.31189 2.44754 10.3526 2.1224 12.5664C1.79725 14.7801 2.22393 17.039 3.33418 18.9816C3.50869 19.2838 3.75927 19.5352 4.06101 19.7106C4.36275 19.886 4.70515 19.9795 5.05418 19.9816H18.9042C19.2566 19.983 19.6031 19.8912 19.9087 19.7156C20.2142 19.54 20.468 19.2868 20.6442 18.9816C21.5656 17.3855 22.0279 15.5658 21.9803 13.7235C21.9327 11.8812 21.3768 10.0879 20.3742 8.54157L20.3642 8.55157Z" fill="black"/>
<path d="M10.5742 15.3916C10.7599 15.5775 10.9805 15.725 11.2233 15.8257C11.4661 15.9263 11.7264 15.9781 11.9892 15.9781C12.252 15.9781 12.5123 15.9263 12.7551 15.8257C12.9979 15.725 13.2184 15.5775 13.4042 15.3916L19.0642 6.90157L10.5742 12.5616C10.3882 12.7473 10.2407 12.9679 10.1401 13.2107C10.0394 13.4535 9.98761 13.7137 9.98761 13.9766C9.98761 14.2394 10.0394 14.4997 10.1401 14.7424C10.2407 14.9852 10.3882 15.2058 10.5742 15.3916Z" fill="black"/>
</svg>
