<svg width="24" height="24" viewBox="0 0 24 24" fill="none" xmlns="http://www.w3.org/2000/svg">
<path d="M2.55811 4.50391H20.5581V9.50391H22.5581V4.50391C22.5581 3.40391 21.6581 2.50391 20.5581 2.50391H2.55811C1.45811 2.50391 0.558105 3.40391 0.558105 4.50391V16.5039C0.558105 17.6039 1.45811 18.5039 2.55811 18.5039H11.5581V16.5039H2.55811V4.50391Z" fill="black"/>
<path d="M14.5581 10.5039L8.55811 6.50391V14.5039L14.5581 10.5039Z" fill="black"/>
<path d="M22.2681 16.9339C22.2981 16.6439 22.3081 16.3539 22.2781 16.0739L23.3481 15.2239C23.4481 15.1439 23.4681 15.0139 23.4081 14.9039L22.3781 13.1139C22.3181 13.0039 22.1881 12.9639 22.0681 13.0039L20.7881 13.5039C20.5581 13.3339 20.3081 13.1939 20.0381 13.0839L19.8381 11.7239C19.8181 11.5939 19.7181 11.5039 19.5881 11.5039H17.5181C17.3981 11.5039 17.2881 11.5939 17.2681 11.7139L17.0681 13.0739C16.8081 13.1839 16.5581 13.3339 16.3281 13.4939L15.0481 12.9939C14.9281 12.9439 14.7981 12.9939 14.7381 13.1039L13.7081 14.8939C13.6481 15.0039 13.6681 15.1339 13.7681 15.2139L14.8381 16.0739C14.8081 16.3639 14.7981 16.6539 14.8281 16.9339L13.7581 17.7839C13.6581 17.8639 13.6381 17.9939 13.6981 18.1039L14.7281 19.8939C14.7881 20.0039 14.9181 20.0439 15.0381 20.0039L16.3081 19.5039C16.5381 19.6739 16.7881 19.8139 17.0581 19.9239L17.2581 21.2839C17.2781 21.4039 17.3781 21.4939 17.5081 21.4939H19.5781C19.6981 21.4939 19.8081 21.4039 19.8281 21.2839L20.0281 19.9239C20.2881 19.8139 20.5381 19.6639 20.7681 19.5039L22.0481 20.0039C22.1681 20.0539 22.2981 20.0039 22.3581 19.8939L23.3881 18.1039C23.4481 17.9939 23.4281 17.8639 23.3281 17.7839L22.2681 16.9339ZM18.5581 18.0039C17.7281 18.0039 17.0581 17.3339 17.0581 16.5039C17.0581 15.6739 17.7281 15.0039 18.5581 15.0039C19.3881 15.0039 20.0581 15.6739 20.0581 16.5039C20.0581 17.3339 19.3881 18.0039 18.5581 18.0039Z" fill="black"/>
</svg>
