<svg width="24" height="24" viewBox="0 0 24 24" fill="none" xmlns="http://www.w3.org/2000/svg">
<path d="M9.99005 8.56969L7.99005 6.56969L3.84005 2.42969L2.43005 3.83969L5.16005 6.56969H4.43005C3.88005 6.56969 3.43005 7.01969 3.43005 7.56969V17.5697C3.43005 18.1197 3.88005 18.5697 4.43005 18.5697H16.4301C16.6401 18.5697 16.8201 18.4897 16.9801 18.3897L20.1601 21.5697L21.5701 20.1597L12.7101 11.2997L9.99005 8.56969ZM5.43005 16.5697V8.56969H7.16005L15.1601 16.5697H5.43005ZM15.4301 8.56969V11.1797L21.4301 17.1797V7.06969L17.4301 11.0697V7.56969C17.4301 7.01969 16.9801 6.56969 16.4301 6.56969H10.8201L12.8201 8.56969H15.4301Z" fill="black"/>
</svg>
