<svg width="24" height="24" viewBox="0 0 24 24" fill="none" xmlns="http://www.w3.org/2000/svg">
<path d="M4.34005 2.93359L2.93005 4.34359L7.29005 8.70359L7.00005 9.00359H3.00005V15.0036H7.00005L12.0001 20.0036V13.4136L16.1801 17.5936C15.5301 18.0836 14.8001 18.4736 14.0001 18.7036V20.7636C15.3401 20.4636 16.5701 19.8436 17.6101 19.0136L19.6601 21.0636L21.0701 19.6536L4.34005 2.93359ZM10.0001 15.1736L7.83005 13.0036H5.00005V11.0036H7.83005L8.71005 10.1236L10.0001 11.4136V15.1736ZM19.0001 12.0036C19.0001 12.8236 18.8501 13.6136 18.5901 14.3436L20.1201 15.8736C20.6801 14.7036 21.0001 13.3936 21.0001 12.0036C21.0001 7.72359 18.0101 4.14359 14.0001 3.23359V5.29359C16.8901 6.15359 19.0001 8.83359 19.0001 12.0036ZM12.0001 4.00359L10.1201 5.88359L12.0001 7.76359V4.00359ZM16.5001 12.0036C16.5001 10.2336 15.4801 8.71359 14.0001 7.97359V9.76359L16.4801 12.2436C16.4901 12.1636 16.5001 12.0836 16.5001 12.0036Z" fill="black"/>
</svg>
