<svg width="24" height="24" viewBox="0 0 24 24" fill="none" xmlns="http://www.w3.org/2000/svg">
<g clip-path="url(#clip0_952_1500)">
<path d="M0 3.20316C0 2.43094 0.270278 1.79387 0.810811 1.29196C1.35134 0.79002 2.05406 0.539062 2.91892 0.539062C3.76835 0.539062 4.45559 0.786151 4.9807 1.28038C5.52123 1.79003 5.79151 2.4541 5.79151 3.27265C5.79151 4.01397 5.52897 4.63171 5.00386 5.12593C4.46333 5.63559 3.7529 5.89041 2.87259 5.89041H2.84942C1.99999 5.89041 1.31275 5.63559 0.787645 5.12593C0.262541 4.61628 0 3.97535 0 3.20316ZM0.301158 23.4734V7.99852H5.44402V23.4734H0.301158ZM8.29344 23.4734H13.4363V14.8325C13.4363 14.2919 13.4981 13.875 13.6216 13.5815C13.8378 13.0564 14.166 12.6124 14.6062 12.2495C15.0463 11.8865 15.5984 11.7051 16.2626 11.7051C17.9923 11.7051 18.8571 12.8711 18.8571 15.2032V23.4734H24V14.6008C24 12.3151 23.4595 10.5815 22.3784 9.40007C21.2973 8.2186 19.8687 7.62787 18.0927 7.62787C16.1004 7.62787 14.5483 8.48501 13.4363 10.1993V10.2456H13.4131L13.4363 10.1993V7.99852H8.29344C8.32432 8.49272 8.33977 10.0294 8.33977 12.6086C8.33977 15.1877 8.32432 18.8093 8.29344 23.4734Z" fill="#0C0C0C"/>
</g>
<defs>
<clipPath id="clip0_952_1500">
<rect width="24" height="24" fill="white"/>
</clipPath>
</defs>
</svg>
