<svg width="24" height="24" viewBox="0 0 24 24" fill="none" xmlns="http://www.w3.org/2000/svg">
<g clip-path="url(#clip0_2048_12774)">
<path d="M20 8.69141V4.00141H15.31L12 0.691406L8.69 4.00141H4V8.69141L0.690002 12.0014L4 15.3114V20.0014H8.69L12 23.3114L15.31 20.0014H20V15.3114L23.31 12.0014L20 8.69141ZM18 14.4814V18.0014H14.48L12 20.4814L9.52 18.0014H6V14.4814L3.52 12.0014L6 9.52141V6.00141H9.52L12 3.52141L14.48 6.00141H18V9.52141L20.48 12.0014L18 14.4814ZM12.29 7.00141C11.55 7.00141 10.84 7.17141 10.21 7.46141C11.93 8.25141 13.13 9.99141 13.13 12.0014C13.13 14.0114 11.93 15.7514 10.21 16.5414C10.84 16.8314 11.55 17.0014 12.29 17.0014C15.05 17.0014 17.29 14.7614 17.29 12.0014C17.29 9.24141 15.05 7.00141 12.29 7.00141Z" fill="black"/>
</g>
<defs>
<clipPath id="clip0_2048_12774">
<rect width="24" height="24" fill="white"/>
</clipPath>
</defs>
</svg>
