<svg width="24" height="24" viewBox="0 0 24 24" fill="none" xmlns="http://www.w3.org/2000/svg">
<g clip-path="url(#clip0_2048_12771)">
<path d="M20 8.69141V4.00141H15.31L12 0.691406L8.69 4.00141H4V8.69141L0.690002 12.0014L4 15.3114V20.0014H8.69L12 23.3114L15.31 20.0014H20V15.3114L23.31 12.0014L20 8.69141ZM18 14.4814V18.0014H14.48L12 20.4814L9.52 18.0014H6V14.4814L3.52 12.0014L6 9.52141V6.00141H9.52L12 3.52141L14.48 6.00141H18V9.52141L20.48 12.0014L18 14.4814ZM12 6.50141C8.97 6.50141 6.5 8.97141 6.5 12.0014C6.5 15.0314 8.97 17.5014 12 17.5014C15.03 17.5014 17.5 15.0314 17.5 12.0014C17.5 8.97141 15.03 6.50141 12 6.50141ZM12 15.5014C10.07 15.5014 8.5 13.9314 8.5 12.0014C8.5 10.0714 10.07 8.50141 12 8.50141C13.93 8.50141 15.5 10.0714 15.5 12.0014C15.5 13.9314 13.93 15.5014 12 15.5014Z" fill="black"/>
</g>
<defs>
<clipPath id="clip0_2048_12771">
<rect width="24" height="24" fill="white"/>
</clipPath>
</defs>
</svg>
