<svg width="24" height="24" viewBox="0 0 24 24" fill="none" xmlns="http://www.w3.org/2000/svg">
<path d="M18.7 12.3986C18.42 12.2386 18.13 12.1086 17.84 11.9986C18.13 11.8886 18.42 11.7586 18.7 11.5986C20.62 10.4886 21.69 8.47859 21.7 6.40859C20.79 5.88859 19.75 5.60859 18.69 5.60859C17.67 5.60859 16.64 5.86859 15.7 6.40859C15.42 6.56859 15.16 6.75859 14.92 6.94859C14.97 6.63859 15 6.31859 15 5.99859C15 3.77859 13.79 1.84859 12 0.808594C10.21 1.84859 8.99999 3.77859 8.99999 5.99859C8.99999 6.31859 9.02999 6.63859 9.07999 6.94859C8.83999 6.74859 8.57999 6.55859 8.29999 6.39859C7.35999 5.85859 6.32999 5.59859 5.30999 5.59859C4.25999 5.59859 3.20999 5.87859 2.29999 6.39859C2.29999 8.46859 3.36999 10.4786 5.29999 11.5886C5.57999 11.7486 5.86999 11.8786 6.15999 11.9886C5.86999 12.0986 5.57999 12.2286 5.29999 12.3886C3.37999 13.4986 2.30999 15.5086 2.29999 17.5786C3.20999 18.0986 4.24999 18.3786 5.30999 18.3786C6.32999 18.3786 7.35999 18.1186 8.29999 17.5786C8.57999 17.4186 8.83999 17.2286 9.07999 17.0386C9.02999 17.3586 8.99999 17.6786 8.99999 17.9986C8.99999 20.2186 10.21 22.1486 12 23.1886C13.79 22.1486 15 20.2186 15 17.9986C15 17.6786 14.97 17.3586 14.92 17.0486C15.16 17.2486 15.42 17.4286 15.7 17.5886C16.64 18.1286 17.67 18.3886 18.69 18.3886C19.74 18.3886 20.79 18.1086 21.7 17.5886C21.69 15.5186 20.62 13.5086 18.7 12.3986ZM16.16 8.51859C16.37 8.34859 16.54 8.22859 16.7 8.14859C17.31 7.79859 18 7.60859 18.7 7.60859C18.97 7.60859 19.23 7.63859 19.49 7.68859C19.18 8.59859 18.55 9.37859 17.71 9.86859C17.54 9.96859 17.35 10.0486 17.13 10.1386L15.75 10.6586C15.58 10.1986 15.34 9.78859 15.03 9.41859L16.16 8.51859ZM12 3.36859C12.63 4.08859 13 5.02859 13 5.99859C13 6.18859 12.98 6.40859 12.95 6.62859L12.72 8.06859C12.48 8.02859 12.24 7.99859 12 7.99859C11.76 7.99859 11.52 8.02859 11.29 8.06859L11.06 6.62859C11.02 6.40859 11 6.18859 11 5.99859C11 5.01859 11.37 4.08859 12 3.36859ZM4.50999 7.67859C4.76999 7.61859 5.03999 7.59859 5.30999 7.59859C5.99999 7.59859 6.68999 7.77859 7.29999 8.13859C7.44999 8.22859 7.61999 8.33859 7.78999 8.48859L8.93999 9.44859C8.63999 9.80859 8.40999 10.2086 8.23999 10.6486L6.85999 10.1286C6.64999 10.0386 6.45999 9.94859 6.29999 9.85859C5.42999 9.35859 4.80999 8.58859 4.50999 7.67859ZM7.83999 15.4686C7.62999 15.6386 7.45999 15.7586 7.29999 15.8386C6.68999 16.1886 5.99999 16.3786 5.29999 16.3786C5.02999 16.3786 4.76999 16.3486 4.50999 16.2986C4.81999 15.3886 5.44999 14.6086 6.28999 14.1186C6.45999 14.0186 6.64999 13.9386 6.86999 13.8486L8.24999 13.3286C8.40999 13.7886 8.65999 14.2086 8.96999 14.5686L7.83999 15.4686ZM12 20.6286C11.37 19.9086 11 18.9686 11 17.9986C11 17.7986 11.02 17.5886 11.06 17.3486L11.28 15.9286C11.51 15.9686 11.75 15.9986 12 15.9986C12.24 15.9986 12.48 15.9686 12.71 15.9286L12.94 17.3686C12.98 17.5886 13 17.8086 13 17.9986C13 18.9786 12.63 19.9086 12 20.6286ZM18.69 16.3886C18 16.3886 17.31 16.2086 16.7 15.8486C16.52 15.7486 16.36 15.6286 16.21 15.5086L15.06 14.5486C15.36 14.1886 15.6 13.7886 15.76 13.3386L17.14 13.8586C17.36 13.9386 17.55 14.0286 17.71 14.1186C18.56 14.6086 19.18 15.3886 19.49 16.2986C19.22 16.3686 18.95 16.3886 18.69 16.3886Z" fill="black"/>
</svg>
