<svg width="24" height="24" viewBox="0 0 24 24" fill="none" xmlns="http://www.w3.org/2000/svg">
<path d="M11 4.07078V2.05078C8.98999 2.25078 7.15999 3.05078 5.67999 4.26078L7.09999 5.69078C8.20999 4.83078 9.53999 4.25078 11 4.07078ZM18.32 4.26078C16.84 3.05078 15.01 2.25078 13 2.05078V4.07078C14.46 4.25078 15.79 4.83078 16.9 5.69078L18.32 4.26078ZM19.93 11.0008H21.95C21.75 8.99078 20.95 7.16078 19.74 5.68078L18.31 7.10078C19.17 8.21078 19.75 9.54078 19.93 11.0008ZM5.68999 7.10078L4.25999 5.68078C3.04999 7.16078 2.24999 8.99078 2.04999 11.0008H4.06999C4.24999 9.54078 4.82999 8.21078 5.68999 7.10078ZM4.06999 13.0008H2.04999C2.24999 15.0108 3.04999 16.8408 4.25999 18.3208L5.68999 16.8908C4.82999 15.7908 4.24999 14.4608 4.06999 13.0008ZM15 12.0008C15 10.3408 13.66 9.00078 12 9.00078C10.34 9.00078 8.99999 10.3408 8.99999 12.0008C8.99999 13.6608 10.34 15.0008 12 15.0008C13.66 15.0008 15 13.6608 15 12.0008ZM18.31 16.9008L19.74 18.3308C20.95 16.8508 21.75 15.0108 21.95 13.0108H19.93C19.75 14.4608 19.17 15.7908 18.31 16.9008ZM13 19.9308V21.9508C15.01 21.7508 16.84 20.9508 18.32 19.7408L16.89 18.3108C15.79 19.1708 14.46 19.7508 13 19.9308ZM5.67999 19.7408C7.15999 20.9508 8.99999 21.7508 11 21.9508V19.9308C9.53999 19.7508 8.20999 19.1708 7.09999 18.3108L5.67999 19.7408Z" fill="black"/>
</svg>
