<svg width="24" height="24" viewBox="0 0 24 24" fill="none" xmlns="http://www.w3.org/2000/svg">
<g clip-path="url(#clip0_2048_12693)">
<path d="M8.565 3.42641V4.31641L10.565 6.31641V3.42641H14.565V7.42641H11.675L13.675 9.42641H14.565V10.3164L16.565 12.3164V9.42641H20.565V13.4264H17.675L19.675 15.4264H20.565V16.3164L22.565 18.3164V3.42641C22.565 2.32641 21.665 1.42641 20.565 1.42641H5.675L7.675 3.42641H8.565ZM16.565 3.42641H20.565V7.42641H16.565V3.42641ZM1.975 0.566406L0.565002 1.97641L2.565 3.97641V19.4264C2.565 20.5264 3.465 21.4264 4.565 21.4264H20.015L22.025 23.4364L23.435 22.0264L1.975 0.566406ZM10.565 11.9764L12.015 13.4264H10.565V11.9764ZM4.565 5.97641L6.015 7.42641H4.565V5.97641ZM8.565 19.4264H4.565V15.4264H8.565V19.4264ZM8.565 13.4264H4.565V9.42641H8.015L8.565 9.97641V13.4264ZM14.565 19.4264H10.565V15.4264H14.015L14.565 15.9764V19.4264ZM16.565 19.4264V17.9764L18.015 19.4264H16.565Z" fill="black"/>
</g>
<defs>
<clipPath id="clip0_2048_12693">
<rect width="24" height="24" fill="white"/>
</clipPath>
</defs>
</svg>
