<svg width="24" height="24" viewBox="0 0 24 24" fill="none" xmlns="http://www.w3.org/2000/svg">
<path d="M17.745 11.9991L21.725 8.01906C22.115 7.62906 22.115 6.99906 21.725 6.60906L17.385 2.26906C16.995 1.87906 16.365 1.87906 15.975 2.26906L11.995 6.24906L8.01497 2.26906C7.81497 2.07906 7.56497 1.97906 7.30497 1.97906C7.05497 1.97906 6.79497 2.07906 6.60497 2.26906L2.26497 6.60906C1.87497 6.99906 1.87497 7.62906 2.26497 8.01906L6.24497 11.9991L2.26497 15.9791C1.87497 16.3691 1.87497 16.9991 2.26497 17.3891L6.60497 21.7291C6.99497 22.1191 7.62497 22.1191 8.01497 21.7291L11.995 17.7491L15.975 21.7291C16.175 21.9291 16.425 22.0191 16.685 22.0191C16.945 22.0191 17.195 21.9191 17.395 21.7291L21.735 17.3891C22.125 16.9991 22.125 16.3691 21.735 15.9791L17.745 11.9991ZM12.015 8.97906C12.565 8.97906 13.015 9.42906 13.015 9.97906C13.015 10.5291 12.565 10.9791 12.015 10.9791C11.465 10.9791 11.015 10.5291 11.015 9.97906C11.015 9.42906 11.465 8.97906 12.015 8.97906ZM7.30497 10.9391L3.67497 7.31906L7.30497 3.68906L10.925 7.30906L7.30497 10.9391ZM10.015 12.9791C9.46497 12.9791 9.01497 12.5291 9.01497 11.9791C9.01497 11.4291 9.46497 10.9791 10.015 10.9791C10.565 10.9791 11.015 11.4291 11.015 11.9791C11.015 12.5291 10.565 12.9791 10.015 12.9791ZM12.015 14.9791C11.465 14.9791 11.015 14.5291 11.015 13.9791C11.015 13.4291 11.465 12.9791 12.015 12.9791C12.565 12.9791 13.015 13.4291 13.015 13.9791C13.015 14.5291 12.565 14.9791 12.015 14.9791ZM14.015 10.9791C14.565 10.9791 15.015 11.4291 15.015 11.9791C15.015 12.5291 14.565 12.9791 14.015 12.9791C13.465 12.9791 13.015 12.5291 13.015 11.9791C13.015 11.4291 13.465 10.9791 14.015 10.9791ZM16.675 20.3191L13.045 16.6991L16.675 13.0691L20.295 16.6891L16.675 20.3191Z" fill="black"/>
</svg>
