<svg width="24" height="24" viewBox="0 0 24 24" fill="none" xmlns="http://www.w3.org/2000/svg">
<path d="M4.41498 10.9159C5.24341 10.9159 5.91498 10.2444 5.91498 9.41594C5.91498 8.58751 5.24341 7.91594 4.41498 7.91594C3.58655 7.91594 2.91498 8.58751 2.91498 9.41594C2.91498 10.2444 3.58655 10.9159 4.41498 10.9159Z" fill="black"/>
<path d="M22.085 9.08594C22.085 5.21594 18.955 2.08594 15.085 2.08594C11.215 2.08594 8.08498 5.21594 8.08498 9.08594C8.08498 12.5559 10.605 15.4259 13.915 15.9759V19.9159H5.91498V16.9159H6.91498V12.9159C6.91498 12.3659 6.46498 11.9159 5.91498 11.9159H2.91498C2.36498 11.9159 1.91498 12.3659 1.91498 12.9159V16.9159H2.91498V21.9159H18.915V19.9159H15.915V16.0359C19.385 15.6259 22.085 12.6759 22.085 9.08594ZM15.085 14.0859C12.325 14.0859 10.085 11.8459 10.085 9.08594C10.085 6.32594 12.325 4.08594 15.085 4.08594C17.845 4.08594 20.085 6.32594 20.085 9.08594C20.085 11.8459 17.845 14.0859 15.085 14.0859Z" fill="black"/>
</svg>
