<svg width="24" height="24" viewBox="0 0 24 24" fill="none" xmlns="http://www.w3.org/2000/svg">
<path d="M17.715 13.6116L18.305 11.2516L19.065 14.2916H20.545L22.045 8.29156H20.545L19.805 11.2916L19.065 8.29156H17.545L16.805 11.2916L16.065 8.29156H14.565L15.285 11.1916L17.715 13.6116Z" fill="black"/>
<path d="M1.95502 3.51156L6.73502 8.29156H3.56502V14.2916H5.06502V12.2916H6.16502L7.06502 14.2916H8.56502L7.66502 12.1916C8.16502 11.8916 8.56502 11.3916 8.56502 10.7916V10.1216L9.99502 11.5516L9.31502 14.2916H10.815L11.195 12.7916H11.235L20.345 21.9016L21.755 20.4916L3.37502 2.10156L1.95502 3.51156ZM7.06502 10.7916H5.06502V9.79156H7.06502V10.7916Z" fill="black"/>
</svg>
