<svg width="24" height="24" viewBox="0 0 24 24" fill="none" xmlns="http://www.w3.org/2000/svg">
<path d="M7.90999 7.02891L1.42999 13.5189L7.91999 19.9989L14.41 13.5189L7.90999 7.02891ZM4.25999 13.5189L7.91999 9.85891L11.57 13.5189L7.90999 17.1789L4.25999 13.5189ZM19.93 7.25891C18.18 5.49891 15.87 4.61891 13.57 4.61891V1.37891L9.32999 5.61891L13.57 9.85891V6.61891C15.36 6.61891 17.15 7.29891 18.52 8.66891C21.25 11.3989 21.25 15.8389 18.52 18.5689C17.15 19.9389 15.36 20.6189 13.57 20.6189C12.6 20.6189 11.63 20.4089 10.73 20.0089L9.23999 21.4989C10.59 22.2389 12.08 22.6189 13.57 22.6189C15.87 22.6189 18.18 21.7389 19.93 19.9789C23.45 16.4689 23.45 10.7689 19.93 7.25891Z" fill="black"/>
</svg>
