<svg width="24" height="24" viewBox="0 0 24 24" fill="none" xmlns="http://www.w3.org/2000/svg">
<path d="M3.55 18.5634L4.96 19.9734L6.75 18.1734L5.34 16.7634L3.55 18.5634ZM11 19.4734H13V22.4734H11V19.4734ZM1 10.4734H4V12.4734H1V10.4734ZM13 3.52344V7.48344L14 8.06344C15.24 8.78344 16 10.1034 16 11.5234C16 13.7334 14.21 15.5234 12 15.5234C9.79 15.5234 8 13.7334 8 11.5234C8 10.1034 8.77 8.78344 10 8.06344L11 7.48344V3.52344H13ZM15 1.52344H9V6.33344C7.21 7.37344 6 9.30344 6 11.5234C6 14.8334 8.69 17.5234 12 17.5234C15.31 17.5234 18 14.8334 18 11.5234C18 9.30344 16.79 7.37344 15 6.33344V1.52344ZM20 10.4734H23V12.4734H20V10.4734ZM17.24 18.1834L19.03 19.9834L20.44 18.5734L18.64 16.7834L17.24 18.1834Z" fill="black"/>
</svg>
