<svg width="68" height="75" viewBox="0 0 68 75" fill="none" xmlns="http://www.w3.org/2000/svg">
<path d="M7.33366 14.1668H14.0003V24.1668H47.3337V14.1668H54.0003V30.8335H60.667V14.1668C60.667 10.5002 57.667 7.50016 54.0003 7.50016H40.067C38.667 3.6335 35.0003 0.833496 30.667 0.833496C26.3337 0.833496 22.667 3.6335 21.267 7.50016H7.33366C3.66699 7.50016 0.666992 10.5002 0.666992 14.1668V60.8335C0.666992 64.5002 3.66699 67.5002 7.33366 67.5002H24.0003V60.8335H7.33366V14.1668ZM30.667 7.50016C32.5003 7.50016 34.0003 9.00016 34.0003 10.8335C34.0003 12.6668 32.5003 14.1668 30.667 14.1668C28.8337 14.1668 27.3337 12.6668 27.3337 10.8335C27.3337 9.00016 28.8337 7.50016 30.667 7.50016Z" fill="#41349D"/>
<path d="M58.3337 60.5002C59.667 58.1668 60.667 55.5002 60.667 52.5002C60.667 44.1668 54.0003 37.5002 45.667 37.5002C37.3337 37.5002 30.667 44.1668 30.667 52.5002C30.667 60.8335 37.3337 67.5002 45.667 67.5002C48.667 67.5002 51.3337 66.5002 53.667 65.1668L62.667 74.1668L67.3337 69.5002L58.3337 60.5002ZM45.667 60.8335C41.0003 60.8335 37.3337 57.1668 37.3337 52.5002C37.3337 47.8335 41.0003 44.1668 45.667 44.1668C50.3337 44.1668 54.0003 47.8335 54.0003 52.5002C54.0003 57.1668 50.3337 60.8335 45.667 60.8335Z" fill="#41349D"/>
</svg>
