<svg width="24" height="24" viewBox="0 0 24 24" fill="none" xmlns="http://www.w3.org/2000/svg">
<path d="M7.19995 18.1992C4.98995 18.1992 3.19995 16.4092 3.19995 14.1992C3.19995 11.9892 4.98995 10.1992 7.19995 10.1992C9.40995 10.1992 11.2 11.9892 11.2 14.1992C11.2 16.4092 9.40995 18.1992 7.19995 18.1992ZM7.19995 12.1992C6.09995 12.1992 5.19995 13.0992 5.19995 14.1992C5.19995 15.2992 6.09995 16.1992 7.19995 16.1992C8.29995 16.1992 9.19995 15.2992 9.19995 14.1992C9.19995 13.0992 8.29995 12.1992 7.19995 12.1992ZM11.2 10.1992C8.98995 10.1992 7.19995 8.40922 7.19995 6.19922C7.19995 3.98922 8.98995 2.19922 11.2 2.19922C13.41 2.19922 15.2 3.98922 15.2 6.19922C15.2 8.40922 13.41 10.1992 11.2 10.1992ZM11.2 4.19922C10.1 4.19922 9.19995 5.09922 9.19995 6.19922C9.19995 7.29922 10.1 8.19922 11.2 8.19922C12.3 8.19922 13.2 7.29922 13.2 6.19922C13.2 5.09922 12.3 4.19922 11.2 4.19922ZM16.8 21.7992C14.59 21.7992 12.8 20.0092 12.8 17.7992C12.8 15.5892 14.59 13.7992 16.8 13.7992C19.01 13.7992 20.8 15.5892 20.8 17.7992C20.8 20.0092 19.01 21.7992 16.8 21.7992ZM16.8 15.7992C15.7 15.7992 14.8 16.6992 14.8 17.7992C14.8 18.8992 15.7 19.7992 16.8 19.7992C17.9 19.7992 18.8 18.8992 18.8 17.7992C18.8 16.6992 17.9 15.7992 16.8 15.7992Z" fill="black"/>
</svg>
