<svg width="24" height="24" viewBox="0 0 24 24" fill="none" xmlns="http://www.w3.org/2000/svg">
<path d="M7.24 10.2461C6.98 9.76609 6.85 9.21609 6.85 8.57609C6.85 7.96609 6.98 7.41609 7.25 6.90609C7.51 6.40609 7.88 5.97609 8.36 5.61609C8.84 5.26609 9.41 4.98609 10.06 4.78609C10.72 4.59609 11.45 4.49609 12.24 4.49609C13.05 4.49609 13.78 4.60609 14.45 4.83609C15.11 5.05609 15.68 5.37609 16.14 5.77609C16.61 6.17609 16.97 6.65609 17.22 7.20609C17.47 7.75609 17.6 8.35609 17.6 9.01609H14.59C14.59 8.70609 14.54 8.42609 14.44 8.16609C14.35 7.89609 14.2 7.67609 14 7.48609C13.8 7.29609 13.55 7.15609 13.25 7.04609C12.95 6.94609 12.59 6.88609 12.19 6.88609C11.8 6.88609 11.45 6.92609 11.16 7.01609C10.87 7.10609 10.63 7.22609 10.44 7.37609C10.25 7.53609 10.1 7.71609 10 7.92609C9.9 8.13609 9.85 8.35609 9.85 8.58609C9.85 9.06609 10.1 9.46609 10.59 9.79609C10.97 10.0461 11.36 10.2761 12 10.4961H7.39C7.34 10.4161 7.28 10.3261 7.24 10.2461ZM21 11.4961H3V13.4961H12.62C12.8 13.5661 13.02 13.6361 13.17 13.6961C13.54 13.8661 13.83 14.0361 14.04 14.2061C14.25 14.3761 14.39 14.5661 14.47 14.7761C14.54 14.9761 14.58 15.2061 14.58 15.4661C14.58 15.6961 14.53 15.9161 14.44 16.1261C14.35 16.3261 14.21 16.5061 14.02 16.6561C13.83 16.8061 13.6 16.9161 13.31 17.0061C13.02 17.0861 12.68 17.1361 12.3 17.1361C11.87 17.1361 11.47 17.0961 11.12 17.0061C10.77 16.9161 10.46 16.7761 10.21 16.5861C9.96 16.3961 9.76 16.1461 9.62 15.8361C9.48 15.5261 9.37 15.0761 9.37 14.6261H6.4C6.4 15.1761 6.48 15.7561 6.64 16.2061C6.8 16.6561 7.01 17.0561 7.29 17.4161C7.57 17.7661 7.89 18.0761 8.27 18.3361C8.64 18.5961 9.05 18.8161 9.49 18.9861C9.93 19.1561 10.39 19.2861 10.87 19.3761C11.35 19.4561 11.83 19.5061 12.31 19.5061C13.11 19.5061 13.84 19.4161 14.49 19.2261C15.14 19.0361 15.7 18.7761 16.16 18.4361C16.62 18.0961 16.98 17.6661 17.23 17.1661C17.48 16.6661 17.61 16.0961 17.61 15.4561C17.61 14.8561 17.51 14.3161 17.3 13.8461C17.25 13.7361 17.19 13.6161 17.13 13.5161H21V11.4961Z" fill="black"/>
</svg>
