<svg width="24" height="24" viewBox="0 0 24 24" fill="none" xmlns="http://www.w3.org/2000/svg">
<path d="M10.5394 14.6262L8.4094 12.4963L7.3494 13.5562L10.5294 16.7362L16.5294 10.7362L15.4694 9.67625L10.5394 14.6262ZM17.3364 1.90625L21.9434 5.75125L20.6634 7.28625L16.0534 3.44325L17.3364 1.90625ZM6.6624 1.90625L7.9444 3.44225L3.3364 7.28625L2.0564 5.75025L6.6624 1.90625ZM11.9994 4.09625C7.0294 4.09625 2.9994 8.12625 2.9994 13.0963C2.9994 18.0662 7.0294 22.0963 11.9994 22.0963C16.9694 22.0963 20.9994 18.0662 20.9994 13.0963C20.9994 8.12625 16.9694 4.09625 11.9994 4.09625ZM11.9994 20.0963C8.1394 20.0963 4.9994 16.9563 4.9994 13.0963C4.9994 9.23625 8.1394 6.09625 11.9994 6.09625C15.8594 6.09625 18.9994 9.23625 18.9994 13.0963C18.9994 16.9563 15.8594 20.0963 11.9994 20.0963Z" fill="black"/>
</svg>
