<svg width="24" height="24" viewBox="0 0 24 24" fill="none" xmlns="http://www.w3.org/2000/svg">
<path d="M10.263 6.38625C10.883 6.20625 11.543 6.09625 12.223 6.09625C16.083 6.09625 19.223 9.23625 19.223 13.0963C19.223 13.7763 19.113 14.4362 18.933 15.0562L20.493 16.6163C20.963 15.5363 21.223 14.3463 21.223 13.0963C21.223 8.12625 17.193 4.09625 12.223 4.09625C10.973 4.09625 9.78301 4.35625 8.69301 4.81625L10.263 6.38625ZM17.56 1.90625L22.167 5.75125L20.887 7.28625L16.277 3.44325L17.56 1.90625ZM3.24301 2.19625L1.83301 3.60625L3.20301 4.97625L2.28301 5.74625L3.56301 7.28625L4.62301 6.40625L5.42301 7.20625C4.05301 8.78625 3.22301 10.8463 3.22301 13.0963C3.22301 18.0662 7.25301 22.0963 12.223 22.0963C14.473 22.0963 16.533 21.2663 18.113 19.8962L20.213 21.9963L21.623 20.5863L3.24301 2.19625ZM12.223 20.0963C8.36301 20.0963 5.22301 16.9563 5.22301 13.0963C5.22301 11.3963 5.83301 9.83625 6.84301 8.62625L16.693 18.4762C15.483 19.4862 13.923 20.0963 12.223 20.0963ZM7.70301 3.82625L8.16301 3.44625L6.88301 1.90625L6.28301 2.40625L7.70301 3.82625Z" fill="black"/>
</svg>
