<svg width="24" height="24" viewBox="0 0 24 24" fill="none" xmlns="http://www.w3.org/2000/svg">
<path d="M17.6 9.79028L19.44 6.61028C19.6 6.30028 19.48 5.92028 19.18 5.76028C18.89 5.61028 18.53 5.70028 18.35 5.98028L16.47 9.22028C13.61 8.01028 10.39 8.01028 7.53 9.22028L5.65 5.98028C5.46 5.69028 5.07 5.60028 4.78 5.78028C4.5 5.96028 4.41 6.32028 4.56 6.61028L6.4 9.79028C3.3 11.5603 1.28 14.7503 1 18.3103H23C22.72 14.7503 20.7 11.5603 17.6 9.79028ZM7 15.5603C6.31 15.5603 5.75 15.0003 5.75 14.3103C5.75 13.6203 6.31 13.0603 7 13.0603C7.69 13.0603 8.25 13.6203 8.25 14.3103C8.25 15.0003 7.69 15.5603 7 15.5603ZM17 15.5603C16.31 15.5603 15.75 15.0003 15.75 14.3103C15.75 13.6203 16.31 13.0603 17 13.0603C17.69 13.0603 18.25 13.6203 18.25 14.3103C18.25 15.0003 17.69 15.5603 17 15.5603Z" fill="black"/>
</svg>
