<svg width="24" height="24" viewBox="0 0 24 24" fill="none" xmlns="http://www.w3.org/2000/svg">
<path d="M11.5 23.2931V19.6931C6.49 19.4331 2.5 15.2731 2.5 10.2031C2.5 4.96313 6.76 0.703125 12 0.703125C17.24 0.703125 21.5 4.96313 21.5 10.2031C21.5 15.1531 18.06 20.1331 12.93 22.6031L11.5 23.2931ZM12 2.70312C7.86 2.70312 4.5 6.06313 4.5 10.2031C4.5 14.3431 7.86 17.7031 12 17.7031H13.5V20.0031C17.14 17.7031 19.5 13.9231 19.5 10.2031C19.5 6.06313 16.14 2.70312 12 2.70312ZM11 14.2031H13V16.2031H11V14.2031ZM13 12.7031H11C11 9.45312 14 9.70312 14 7.70312C14 6.60313 13.1 5.70312 12 5.70312C10.9 5.70312 10 6.60313 10 7.70312H8C8 5.49312 9.79 3.70312 12 3.70312C14.21 3.70312 16 5.49312 16 7.70312C16 10.2031 13 10.4531 13 12.7031Z" fill="black"/>
</svg>
