<svg width="24" height="24" viewBox="0 0 24 24" fill="none" xmlns="http://www.w3.org/2000/svg">
<path d="M14.8449 11.0008H21.9749C21.5049 6.28078 17.7449 2.52078 13.0249 2.05078V9.18078C13.8749 9.49078 14.5349 10.1508 14.8449 11.0008ZM15.0249 4.58078C17.0249 5.40078 18.6249 7.00078 19.4449 9.00078H16.0149C15.7349 8.63078 15.3949 8.29078 15.0249 8.01078V4.58078ZM2.0249 12.0008C2.0249 17.1908 5.9749 21.4508 11.0249 21.9508V14.8208C9.8649 14.4008 9.0249 13.3008 9.0249 12.0008C9.0249 10.7008 9.8649 9.60078 11.0249 9.18078V2.05078C5.9749 2.55078 2.0249 6.81078 2.0249 12.0008ZM9.0249 4.58078V8.02078C7.7949 8.94078 7.0249 10.4108 7.0249 12.0008C7.0249 13.5908 7.7949 15.0608 9.0249 15.9908V19.4308C6.0649 18.2408 4.0249 15.3508 4.0249 12.0008C4.0249 8.65078 6.0649 5.76078 9.0249 4.58078ZM13.0249 14.8208V21.9508C17.7449 21.4808 21.5049 17.7208 21.9749 13.0008H14.8449C14.5349 13.8508 13.8749 14.5108 13.0249 14.8208ZM15.0249 15.9908C15.3949 15.7108 15.7349 15.3808 16.0149 15.0008H19.4449C18.6249 17.0008 17.0249 18.6008 15.0249 19.4208V15.9908Z" fill="black"/>
</svg>
