<svg width="24" height="24" viewBox="0 0 24 24" fill="none" xmlns="http://www.w3.org/2000/svg">
<path d="M13.0249 5.08078C16.0849 5.52078 18.5049 7.94078 18.9449 11.0008H21.9749C21.5049 6.28078 17.7449 2.52078 13.0249 2.05078V5.08078ZM18.9449 13.0008C18.5049 16.0608 16.0849 18.4808 13.0249 18.9208V21.9508C17.7449 21.4808 21.5049 17.7208 21.9749 13.0008H18.9449ZM11.0249 18.9208C7.6349 18.4308 5.0249 15.5208 5.0249 12.0008C5.0249 8.48078 7.6349 5.57078 11.0249 5.08078V2.05078C5.9749 2.55078 2.0249 6.81078 2.0249 12.0008C2.0249 17.1908 5.9749 21.4508 11.0249 21.9508V18.9208Z" fill="black"/>
</svg>
