<svg width="24" height="24" viewBox="0 0 24 24" fill="none" xmlns="http://www.w3.org/2000/svg">
<path d="M14.7701 8.31156L15.6901 9.23156L14.5801 10.3416L15.9901 11.7516L18.5101 9.23156L14.7601 5.48156L12.2401 8.00156L13.6501 9.41156L14.7701 8.31156ZM21.4201 6.33156C21.8101 5.94156 21.8101 5.31156 21.4201 4.92156L19.0801 2.58156C18.8801 2.38156 18.6301 2.29156 18.3701 2.29156C18.1101 2.29156 17.8601 2.39156 17.6701 2.58156L15.8401 4.41156L19.5901 8.16156L21.4201 6.33156ZM3.5201 2.10156L2.1001 3.51156L9.4201 10.8316L3.7101 16.5416V20.2916H7.4601L13.1701 14.5816L20.4901 21.9016L21.9001 20.4916L3.5201 2.10156ZM6.6301 18.2916H5.7101V17.3716L10.8401 12.2416L11.7601 13.1616L6.6301 18.2916Z" fill="black"/>
</svg>
