<svg width="24" height="24" viewBox="0 0 24 24" fill="none" xmlns="http://www.w3.org/2000/svg">
<path d="M1.44507 4.16922L3.06507 5.78922C3.06507 5.83922 3.05507 5.88922 3.05507 5.94922V9.74922C5.75507 9.74922 6.05507 11.9092 6.05507 12.4492C6.05507 12.9892 5.76507 15.1492 3.05507 15.1492V18.9492C3.05507 20.0492 3.95507 20.9492 5.05507 20.9492H8.85507C8.85507 18.2392 11.0151 17.9492 11.5551 17.9492C12.0951 17.9492 14.2551 18.2392 14.2551 20.9492H18.0551C18.1151 20.9492 18.1651 20.9492 18.2151 20.9392L19.8251 22.5492L21.2351 21.1392L2.86507 2.75922L1.44507 4.16922ZM11.5551 15.9492C10.0551 15.9492 7.98507 16.7792 7.18507 18.9492H5.05507V16.8192C7.22507 16.0192 8.05507 13.9492 8.05507 12.4492C8.05507 11.7592 7.87507 10.9492 7.47507 10.1992L13.8051 16.5292C13.0551 16.1292 12.2451 15.9492 11.5551 15.9492ZM8.88507 5.94922L6.88507 3.94922H9.05507C9.05507 2.56922 10.1751 1.44922 11.5551 1.44922C12.9351 1.44922 14.0551 2.56922 14.0551 3.94922H18.0551C19.1551 3.94922 20.0551 4.84922 20.0551 5.94922V9.94922C21.4351 9.94922 22.5551 11.0692 22.5551 12.4492C22.5551 13.8292 21.4351 14.9492 20.0551 14.9492V17.1192L18.0551 15.1192V12.9492H20.0551C20.3351 12.9492 20.5551 12.7292 20.5551 12.4492C20.5551 12.1692 20.3351 11.9492 20.0551 11.9492H18.0551V5.94922H12.0551V3.94922C12.0551 3.66922 11.8351 3.44922 11.5551 3.44922C11.2751 3.44922 11.0551 3.66922 11.0551 3.94922V5.94922H8.88507Z" fill="black"/>
</svg>
