<svg width="24" height="24" viewBox="0 0 24 24" fill="none" xmlns="http://www.w3.org/2000/svg">
<path d="M10.2549 5.25391C11.6349 5.25391 12.8849 5.81391 13.7949 6.71391L11.2549 9.25391H17.2549V3.25391L15.2049 5.30391C13.9349 4.03391 12.1849 3.25391 10.2549 3.25391C6.72488 3.25391 3.82488 5.86391 3.33488 9.25391H5.35488C5.81488 6.97391 7.83488 5.25391 10.2549 5.25391ZM15.8949 14.3939C16.5549 13.4939 17.0149 12.4239 17.1749 11.2539H15.1549C14.6949 13.5339 12.6749 15.2539 10.2549 15.2539C8.87488 15.2539 7.62488 14.6939 6.71488 13.7939L9.25488 11.2539H3.25488V17.2539L5.30488 15.2039C6.57488 16.4739 8.32488 17.2539 10.2549 17.2539C11.8049 17.2539 13.2349 16.7439 14.3949 15.8939L19.2549 20.7439L20.7449 19.2539L15.8949 14.3939Z" fill="black"/>
</svg>
