<svg width="24" height="24" viewBox="0 0 24 24" fill="none" xmlns="http://www.w3.org/2000/svg">
<path d="M3.11507 2.50531L1.69507 3.91531L3.96507 6.18531C2.91507 7.76531 2.30507 9.65531 2.30507 11.6953C2.30507 17.2153 6.78507 21.6953 12.3051 21.6953C14.3451 21.6953 16.2351 21.0853 17.8151 20.0353L20.0851 22.3053L21.4951 20.8953L3.11507 2.50531ZM12.3051 19.6953C7.89507 19.6953 4.30507 16.1053 4.30507 11.6953C4.30507 10.2153 4.71507 8.83531 5.42507 7.63531L16.3651 18.5753C15.1651 19.2853 13.7851 19.6953 12.3051 19.6953ZM8.24507 4.81531L6.79507 3.35531C8.37507 2.30531 10.2651 1.69531 12.3051 1.69531C17.8251 1.69531 22.3051 6.17531 22.3051 11.6953C22.3051 13.7353 21.6951 15.6253 20.6451 17.2053L19.1851 15.7453C19.8951 14.5553 20.3051 13.1753 20.3051 11.6953C20.3051 7.28531 16.7151 3.69531 12.3051 3.69531C10.8251 3.69531 9.44507 4.10531 8.24507 4.81531Z" fill="black"/>
</svg>
