<svg width="24" height="24" viewBox="0 0 24 24" fill="none" xmlns="http://www.w3.org/2000/svg">
<path d="M10.6599 8.89L11.5999 12H14.4199L12.1499 13.62L13.0799 16.63L10.6599 14.79L8.23991 16.63L9.16991 13.62L6.89991 12H9.71991L10.6599 8.89ZM8.23991 10H0.659912L6.82991 14.41L4.48991 22L10.6599 17.31L16.8399 22L14.4899 14.41L20.6599 10H13.0799L10.6599 2L8.23991 10ZM21.0199 22L19.1599 15.99L23.3399 13H19.8999L16.8199 15.2L18.2799 19.92L21.0199 22ZM16.6599 8L14.8399 2L13.7999 5.45L14.5699 8H16.6599Z" fill="black"/>
</svg>
