<svg width="24" height="24" viewBox="0 0 24 24" fill="none" xmlns="http://www.w3.org/2000/svg">
<path d="M21 3.01172H3C1.9 3.01172 1 3.91172 1 5.01172V9.00172H3V4.99172H21V19.0217H3V15.0017H1V19.0117C1 20.1117 1.9 20.9917 3 20.9917H21C22.1 20.9917 23 20.1117 23 19.0117V5.01172C23 3.90172 22.1 3.01172 21 3.01172ZM11 16.0017L15 12.0017L11 8.00172V11.0017H1V13.0017H11V16.0017ZM21 3.01172H3C1.9 3.01172 1 3.91172 1 5.01172V9.00172H3V4.99172H21V19.0217H3V15.0017H1V19.0117C1 20.1117 1.9 20.9917 3 20.9917H21C22.1 20.9917 23 20.1117 23 19.0117V5.01172C23 3.90172 22.1 3.01172 21 3.01172ZM11 16.0017L15 12.0017L11 8.00172V11.0017H1V13.0017H11V16.0017Z" fill="black"/>
</svg>
