<svg width="24" height="24" viewBox="0 0 24 24" fill="none" xmlns="http://www.w3.org/2000/svg">
<path d="M16 7.18859L19.55 12.1886L17.92 14.4786L19.35 15.9086L22 12.1886L17.63 6.02859C17.27 5.51859 16.67 5.18859 16 5.18859L8.63 5.19859L10.63 7.18859H16ZM2 4.21859L3.58 5.79859C3.22 6.14859 3 6.64859 3 7.18859V17.1886C3 18.2886 3.9 19.1786 5 19.1786L16 19.1886C16.28 19.1886 16.55 19.1186 16.79 19.0086L18.97 21.1886L20.38 19.7786L3.41 2.80859L2 4.21859ZM14.97 17.1886H5V7.21859L14.97 17.1886Z" fill="black"/>
</svg>
