<svg width="24" height="24" viewBox="0 0 24 24" fill="none" xmlns="http://www.w3.org/2000/svg">
<path d="M10.7101 3.69531C10.7101 2.59531 11.6101 1.69531 12.7101 1.69531C13.8101 1.69531 14.7101 2.59531 14.7101 3.69531C14.7101 4.79531 13.8101 5.69531 12.7101 5.69531C11.6101 5.69531 10.7101 4.79531 10.7101 3.69531ZM19.7101 12.6953V10.6953C18.1701 10.7153 16.6201 9.94531 15.6401 8.86531L14.3501 7.43531C14.1101 7.19531 13.9101 7.07531 13.7201 6.97531C13.3601 6.78531 13.0001 6.67531 12.5201 6.71531C12.0301 6.75531 11.6101 6.98531 11.2901 7.32531L14.7101 10.7453C16.0001 11.8153 17.9601 12.6853 19.7101 12.6953ZM10.7101 19.6953C9.0501 19.6953 7.7101 18.3553 7.7101 16.6953C7.7101 15.3853 8.5501 14.2853 9.7101 13.8653V11.7953C7.4301 12.2553 5.7101 14.2753 5.7101 16.6953C5.7101 19.4553 7.9501 21.6953 10.7101 21.6953C13.1301 21.6953 15.1501 19.9753 15.6101 17.6953H13.5401C13.1301 18.8553 12.0201 19.6953 10.7101 19.6953ZM3.5201 2.50531L2.1001 3.91531L10.7101 12.5253V14.6953C10.7101 15.7953 11.6101 16.6953 12.7101 16.6953H14.8801L20.4901 22.3053L21.9001 20.8953L3.5201 2.50531Z" fill="black"/>
</svg>
