<svg width="24" height="24" viewBox="0 0 24 24" fill="none" xmlns="http://www.w3.org/2000/svg">
<path d="M17.66 7.99375L12 2.34375L6.34 7.99375C4.78 9.55375 4 11.6338 4 13.6338C4 15.6338 4.78 17.7437 6.34 19.3037C7.9 20.8637 9.95 21.6537 12 21.6537C14.05 21.6537 16.1 20.8637 17.66 19.3037C19.22 17.7437 20 15.6338 20 13.6338C20 11.6338 19.22 9.55375 17.66 7.99375ZM6 13.9937C6.01 11.9937 6.62 10.7238 7.76 9.59375L12 5.26375L16.24 9.64375C17.38 10.7638 17.99 11.9937 18 13.9937H6Z" fill="black"/>
</svg>
