<svg width="24" height="24" viewBox="0 0 24 24" fill="none" xmlns="http://www.w3.org/2000/svg">
<path d="M17.505 5.09156L14.715 2.29156H21.715V9.29156L18.925 6.49156L14.835 10.5816L13.425 9.17156L17.505 5.09156ZM19.715 11.2916V15.4616L21.715 17.4616V11.2916H19.715ZM20.495 21.9016L18.885 20.2916H5.71498C4.60498 20.2916 3.71498 19.3916 3.71498 18.2916V5.12156L2.10498 3.51156L3.51498 2.10156L21.895 20.4816L20.495 21.9016ZM16.885 18.2916L12.005 13.4116L10.415 15.0016L9.00498 13.5916L10.595 12.0016L5.71498 7.12156V18.2916H16.885ZM8.54498 4.29156H12.715V2.29156H6.54498L8.54498 4.29156Z" fill="black"/>
</svg>
