<svg width="24" height="24" viewBox="0 0 24 24" fill="none" xmlns="http://www.w3.org/2000/svg">
<path d="M18.3699 23.9939H11.8199C10.7399 23.9939 9.67988 23.5439 8.92988 22.7639L1.62988 15.1539L3.69988 13.3239C4.31988 12.7739 5.22988 12.6639 5.95988 13.0539L8.36988 14.3339V4.78391C8.36988 3.40391 9.48988 2.28391 10.8699 2.28391C11.0399 2.28391 11.2099 2.30391 11.3799 2.33391C11.4699 1.03391 12.5499 0.00390625 13.8699 0.00390625C14.7299 0.00390625 15.4799 0.433906 15.9299 1.09391C16.2199 0.973906 16.5399 0.913906 16.8699 0.913906C18.2499 0.913906 19.3699 2.03391 19.3699 3.41391V3.69391C19.5299 3.66391 19.6999 3.64391 19.8699 3.64391C21.2499 3.64391 22.3699 4.76391 22.3699 6.14391V19.9939C22.3699 22.2039 20.5799 23.9939 18.3699 23.9939ZM4.50988 15.2739L10.3699 21.3739C10.7499 21.7639 11.2699 21.9939 11.8099 21.9939H18.3699C19.4699 21.9939 20.3699 21.0939 20.3699 19.9939V6.14391C20.3699 5.86391 20.1499 5.64391 19.8699 5.64391C19.5899 5.64391 19.3699 5.86391 19.3699 6.14391V11.9939H17.3699V3.41391C17.3699 3.13391 17.1499 2.91391 16.8699 2.91391C16.5899 2.91391 16.3699 3.13391 16.3699 3.41391V11.9939H14.3699V2.50391C14.3699 2.22391 14.1499 2.00391 13.8699 2.00391C13.5899 2.00391 13.3699 2.22391 13.3699 2.50391V11.9939H11.3699V4.78391C11.3699 4.50391 11.1499 4.28391 10.8699 4.28391C10.5899 4.28391 10.3699 4.51391 10.3699 4.78391V17.6539L5.01988 14.8239L4.50988 15.2739Z" fill="black"/>
</svg>
