<svg width="24" height="24" viewBox="0 0 24 24" fill="none" xmlns="http://www.w3.org/2000/svg">
<path d="M4.5 11.4961C5.88071 11.4961 7 10.3768 7 8.99609C7 7.61538 5.88071 6.49609 4.5 6.49609C3.11929 6.49609 2 7.61538 2 8.99609C2 10.3768 3.11929 11.4961 4.5 11.4961Z" fill="black"/>
<path d="M9 7.49609C10.3807 7.49609 11.5 6.37681 11.5 4.99609C11.5 3.61538 10.3807 2.49609 9 2.49609C7.61929 2.49609 6.5 3.61538 6.5 4.99609C6.5 6.37681 7.61929 7.49609 9 7.49609Z" fill="black"/>
<path d="M15 7.49609C16.3807 7.49609 17.5 6.37681 17.5 4.99609C17.5 3.61538 16.3807 2.49609 15 2.49609C13.6193 2.49609 12.5 3.61538 12.5 4.99609C12.5 6.37681 13.6193 7.49609 15 7.49609Z" fill="black"/>
<path d="M19.5 11.4961C20.8807 11.4961 22 10.3768 22 8.99609C22 7.61538 20.8807 6.49609 19.5 6.49609C18.1193 6.49609 17 7.61538 17 8.99609C17 10.3768 18.1193 11.4961 19.5 11.4961Z" fill="black"/>
<path d="M17.34 14.3561C16.47 13.3361 15.74 12.4661 14.86 11.4461C14.4 10.9061 13.81 10.3661 13.11 10.1261C13 10.0861 12.89 10.0561 12.78 10.0361C12.53 9.99609 12.26 9.99609 12 9.99609C11.74 9.99609 11.47 9.99609 11.21 10.0461C11.1 10.0661 10.99 10.0961 10.88 10.1361C10.18 10.3761 9.6 10.9161 9.13 11.4561C8.26 12.4761 7.53 13.3461 6.65 14.3661C5.34 15.6761 3.73 17.1261 4.03 19.1561C4.32 20.1761 5.05 21.1861 6.36 21.4761C7.09 21.6261 9.42 21.0361 11.9 21.0361H12.08C14.56 21.0361 16.89 21.6161 17.62 21.4761C18.93 21.1861 19.66 20.1661 19.95 19.1561C20.26 17.1161 18.65 15.6661 17.34 14.3561Z" fill="black"/>
</svg>
