<svg width="24" height="24" viewBox="0 0 24 24" fill="none" xmlns="http://www.w3.org/2000/svg">
<path d="M1.97494 0.566406L0.564941 1.97641L4.95494 6.36641L7.16494 11.0264L5.81494 13.4764C5.65494 13.7564 5.56494 14.0864 5.56494 14.4364C5.56494 15.5364 6.46494 16.4364 7.56494 16.4364H15.0249L16.4049 17.8164C15.9049 18.1764 15.5749 18.7664 15.5749 19.4364C15.5749 20.5364 16.4649 21.4364 17.5649 21.4364C18.2349 21.4364 18.8249 21.1064 19.1849 20.5964L22.0249 23.4364L23.4349 22.0264L1.97494 0.566406ZM7.56494 14.4364L8.66494 12.4364H11.0249L13.0249 14.4364H7.56494ZM20.5649 3.43641H7.68494L9.68494 5.43641H18.8749L16.1149 10.4364H14.6749L16.6149 12.3764C17.1549 12.2364 17.6049 11.8864 17.8649 11.4064L21.4449 4.91641C21.8149 4.25641 21.3249 3.43641 20.5649 3.43641ZM7.56494 17.4364C6.46494 17.4364 5.57494 18.3364 5.57494 19.4364C5.57494 20.5364 6.46494 21.4364 7.56494 21.4364C8.66494 21.4364 9.56494 20.5364 9.56494 19.4364C9.56494 18.3364 8.66494 17.4364 7.56494 17.4364Z" fill="black"/>
</svg>
