<svg width="24" height="24" viewBox="0 0 24 24" fill="none" xmlns="http://www.w3.org/2000/svg">
<path d="M6.00049 14.9992C5.17049 14.9992 4.42049 15.3392 3.88049 15.8792C2.70049 17.0592 2.00049 21.9992 2.00049 21.9992C2.00049 21.9992 6.94049 21.2992 8.12049 20.1192C8.66049 19.5792 9.00049 18.8292 9.00049 17.9992C9.00049 16.3392 7.66049 14.9992 6.00049 14.9992ZM6.71049 18.7092C6.43049 18.9892 4.54049 19.4692 4.54049 19.4692C4.54049 19.4692 5.01049 17.5892 5.30049 17.2992C5.47049 17.1092 5.72049 16.9992 6.00049 16.9992C6.55049 16.9992 7.00049 17.4492 7.00049 17.9992C7.00049 18.2792 6.89049 18.5292 6.71049 18.7092ZM17.4205 13.6492C23.7805 7.2892 21.6605 2.3392 21.6605 2.3392C21.6605 2.3392 16.7105 0.2192 10.3505 6.5792L7.86049 6.0792C7.21049 5.9492 6.53049 6.1592 6.05049 6.6292L2.00049 10.6892L7.00049 12.8292L11.1705 16.9992L13.3105 21.9992L17.3605 17.9492C17.8305 17.4792 18.0405 16.7992 17.9105 16.1392L17.4205 13.6492ZM7.41049 10.8292L5.50049 10.0092L7.47049 8.0392L8.91049 8.3292C8.34049 9.1592 7.83049 10.0292 7.41049 10.8292ZM13.9905 18.4992L13.1705 16.5892C13.9705 16.1692 14.8405 15.6592 15.6605 15.0892L15.9505 16.5292L13.9905 18.4992ZM16.0005 12.2392C14.6805 13.5592 12.6205 14.6392 11.9605 14.9692L9.03049 12.0392C9.35049 11.3892 10.4305 9.3292 11.7605 7.9992C16.4405 3.3192 19.9905 4.0092 19.9905 4.0092C19.9905 4.0092 20.6805 7.5592 16.0005 12.2392ZM15.0005 10.9992C16.1005 10.9992 17.0005 10.0992 17.0005 8.9992C17.0005 7.8992 16.1005 6.9992 15.0005 6.9992C13.9005 6.9992 13.0005 7.8992 13.0005 8.9992C13.0005 10.0992 13.9005 10.9992 15.0005 10.9992Z" fill="black"/>
</svg>
