<svg width="24" height="24" viewBox="0 0 24 24" fill="none" xmlns="http://www.w3.org/2000/svg">
<path d="M21.5026 14.5025H23.5026C23.5026 19.4725 19.4726 23.5025 14.5026 23.5025V21.5025C18.3726 21.5025 21.5026 18.3725 21.5026 14.5025ZM14.5026 17.5025V19.5025C17.2626 19.5025 19.5026 17.2625 19.5026 14.5025H17.5026C17.5026 16.1625 16.1626 17.5025 14.5026 17.5025ZM18.7626 1.0925L22.3026 4.6325C23.0826 5.4125 23.0826 6.6825 22.3026 7.4625L19.1226 10.6425C18.3426 11.4225 17.0726 11.4225 16.2926 10.6425L15.0526 9.4025L14.3426 10.1025L15.5826 11.3425C16.3626 12.1225 16.3626 13.3925 15.5826 14.1725L14.1726 15.5825C13.3926 16.3625 12.1226 16.3625 11.3426 15.5825L10.1026 14.3425L9.39256 15.0525L10.6326 16.2925C11.4126 17.0725 11.4126 18.3425 10.6326 19.1225L7.45256 22.3025C6.67256 23.0825 5.40256 23.0825 4.62256 22.3025L1.08256 18.7625C0.302559 17.9825 0.302559 16.7125 1.08256 15.9325L4.26256 12.7525C5.04256 11.9725 6.31256 11.9725 7.09256 12.7525L8.33256 13.9925L9.04256 13.2825L7.80256 12.0525C7.02256 11.2725 7.02256 10.0025 7.80256 9.2225L9.22256 7.8025C10.0026 7.0225 11.2726 7.0225 12.0526 7.8025L13.2926 9.0425L14.0026 8.3325L12.7526 7.1025C11.9726 6.3225 11.9726 5.0525 12.7526 4.2725L15.9326 1.0925C16.7226 0.3025 17.9826 0.3025 18.7626 1.0925ZM3.56256 16.2925L2.50256 17.3525L6.04256 20.8925L7.10256 19.8325L3.56256 16.2925ZM5.68256 14.1725L4.62256 15.2325L8.16256 18.7725L9.22256 17.7125L5.68256 14.1725ZM10.6326 9.2225L9.22256 10.6325L12.7626 14.1725L14.1726 12.7625L10.6326 9.2225ZM15.2326 4.6225L14.1726 5.6825L17.7126 9.2225L18.7726 8.1625L15.2326 4.6225ZM17.3526 2.5025L16.2926 3.5625L19.8326 7.1025L20.8926 6.0425L17.3526 2.5025Z" fill="black"/>
</svg>
