<svg width="24" height="24" viewBox="0 0 24 24" fill="none" xmlns="http://www.w3.org/2000/svg">
<path d="M16.845 14.2539H16.055L15.775 13.9839C16.755 12.8439 17.345 11.3639 17.345 9.75391C17.345 6.16391 14.435 3.25391 10.845 3.25391C7.42504 3.25391 4.62504 5.89391 4.37504 9.25391H6.39504C6.64504 7.00391 8.52504 5.25391 10.845 5.25391C13.335 5.25391 15.345 7.26391 15.345 9.75391C15.345 12.2439 13.335 14.2539 10.845 14.2539C10.675 14.2539 10.515 14.2239 10.345 14.2039V16.2239C10.515 16.2439 10.675 16.2539 10.845 16.2539C12.455 16.2539 13.935 15.6639 15.075 14.6839L15.345 14.9639V15.7539L20.345 20.7439L21.835 19.2539L16.845 14.2539Z" fill="black"/>
<path d="M7.81504 11.0739L5.34504 13.5439L2.87504 11.0739L2.16504 11.7839L4.63504 14.2539L2.16504 16.7239L2.87504 17.4339L5.34504 14.9639L7.81504 17.4339L8.52504 16.7239L6.05504 14.2539L8.52504 11.7839L7.81504 11.0739Z" fill="black"/>
</svg>
