<svg width="24" height="24" viewBox="0 0 24 24" fill="none" xmlns="http://www.w3.org/2000/svg">
<path d="M12 5.29688C8.13 5.29688 5 8.42688 5 12.2969H7C7 9.53687 9.24 7.29688 12 7.29688C14.76 7.29688 17 9.53687 17 12.2969H19C19 8.42688 15.87 5.29688 12 5.29688ZM13 14.5869C13.88 14.1969 14.5 13.3269 14.5 12.2969C14.5 10.9169 13.38 9.79688 12 9.79688C10.62 9.79688 9.5 10.9169 9.5 12.2969C9.5 13.3169 10.12 14.1969 11 14.5869V17.8869L7.59 21.2969L9 22.7069L12 19.7069L15 22.7069L16.41 21.2969L13 17.8869V14.5869ZM12 1.29688C5.93 1.29688 1 6.22687 1 12.2969H3C3 7.32688 7.03 3.29688 12 3.29688C16.97 3.29688 21 7.32688 21 12.2969H23C23 6.22687 18.07 1.29688 12 1.29688Z" fill="black"/>
</svg>
