<svg width="24" height="24" viewBox="0 0 24 24" fill="none" xmlns="http://www.w3.org/2000/svg">
<path d="M20.9299 3.33969V15.3397H19.5899L21.4999 17.2497C22.3199 16.9997 22.9299 16.2397 22.9299 15.3397V3.33969C22.9299 2.23969 22.0299 1.33969 20.9299 1.33969H5.58993L7.58993 3.33969H20.9299ZM6.92993 11.3397H8.92993V13.3397H6.92993V11.3397ZM18.9299 8.33969H12.5899L14.5899 10.3397H18.9299V8.33969ZM18.9299 5.33969H10.9299V6.67969L11.5899 7.33969H18.9299V5.33969ZM2.33993 0.929688L0.929932 2.33969L2.93993 4.34969L2.92993 21.3397L6.92993 17.3397H15.9299L21.6599 23.0697L23.0699 21.6597L2.33993 0.929688ZM6.09993 15.3397L4.92993 16.5097V6.33969L6.92993 8.33969V10.3397H8.92993L13.9299 15.3397H6.09993Z" fill="black"/>
</svg>
