<svg width="24" height="24" viewBox="0 0 24 24" fill="none" xmlns="http://www.w3.org/2000/svg">
<path d="M20.48 3.29609H7.31002L9.31002 5.29609H20.48V16.4661L22.24 18.2261C22.39 17.9461 22.48 17.6361 22.48 17.2961V5.29609C22.48 4.19609 21.58 3.29609 20.48 3.29609Z" fill="black"/>
<path d="M18.48 9.29609H13.31L15.31 11.2961H18.48V9.29609Z" fill="black"/>
<path d="M1.52002 3.16609L2.72002 4.36609C2.57002 4.64609 2.48002 4.95609 2.48002 5.29609V17.2961C2.48002 18.3961 3.38002 19.2961 4.48002 19.2961H17.65L20.61 22.2561L22.02 20.8461L2.93002 1.74609L1.52002 3.16609ZM4.48002 6.12609L7.65002 9.29609H6.48002V11.2961H8.48002V10.1261L11.65 13.2961H6.48002V15.2961H13.65L15.65 17.2961H4.48002V6.12609Z" fill="black"/>
</svg>
