<svg width="24" height="24" viewBox="0 0 24 24" fill="none" xmlns="http://www.w3.org/2000/svg">
<path d="M1.25415 2H6.25415V7H4.75415V4.09C2.89415 6.2 1.75415 8.97 1.75415 12C1.75415 15.03 2.89415 17.79 4.75415 19.91V17H6.25415V22H1.25415V20.5H3.27415C1.38415 18.18 0.25415 15.22 0.25415 12C0.25415 8.78 1.38415 5.82 3.27415 3.5H1.25415V2ZM20.4741 10L16.3242 10.01C16.1642 10 16.0142 10.03 15.8742 10.09L15.2842 10.35L13.4542 6.25C12.8941 4.99 11.4142 4.42 10.1542 4.98C8.89415 5.54 8.32415 7.02 8.88415 8.28L12.1842 15.73L10.3142 16.12C10.1242 16.17 9.32415 16.39 8.95415 17.33L8.25415 19.19L15.0342 21.86C15.5241 22.05 16.0842 22.04 16.5641 21.82L22.5541 19.17C23.4441 18.77 23.9242 17.79 23.6842 16.85L22.3242 11.51C22.1042 10.65 21.3541 10.04 20.4741 10ZM21.7442 17.34L15.7542 20L10.8342 18.04L15.0142 17.16L10.7142 7.46C10.6042 7.21 10.7142 6.91 10.9642 6.8C11.2142 6.69 11.5142 6.8 11.6242 7.05L14.1242 12.7L15.7341 11.99L20.3841 12L21.7442 17.34Z" fill="black"/>
</svg>
