<svg width="24" height="24" viewBox="0 0 24 24" fill="none" xmlns="http://www.w3.org/2000/svg">
<path d="M19.9741 10.5039L15.8242 10.5139C15.6642 10.5039 15.5142 10.5339 15.3742 10.5939L14.7842 10.8539L12.9542 6.75391C12.3941 5.49391 10.9142 4.92391 9.65415 5.48391C8.39415 6.04391 7.82415 7.52391 8.38415 8.78391L11.6842 16.2339L9.81415 16.6239C9.62415 16.6739 8.82415 16.8939 8.45415 17.8339L7.75415 19.6939L14.5342 22.3639C15.0241 22.5539 15.5842 22.5439 16.0641 22.3239L22.0541 19.6739C22.9441 19.2739 23.4242 18.2939 23.1842 17.3539L21.8242 12.0139C21.6042 11.1539 20.8541 10.5439 19.9741 10.5039ZM21.2442 17.8439L15.2542 20.5039L10.3342 18.5439L14.5142 17.6639L10.2142 7.96391C10.1042 7.71391 10.2142 7.41391 10.4642 7.30391C10.7142 7.19391 11.0142 7.30391 11.1242 7.55391L13.6242 13.2039L15.2341 12.4939L19.8841 12.5039L21.2442 17.8439ZM1.81415 6.06391L0.75415 5.00391L4.25415 1.50391L7.75415 5.00391L6.69415 6.06391L5.07415 4.44391C4.86415 5.26391 4.75415 6.12391 4.75415 7.00391C4.75415 9.42391 5.57415 11.6539 6.95415 13.4339L5.88415 14.5039C4.24415 12.4539 3.25415 9.84391 3.25415 7.00391C3.25415 6.08391 3.35415 5.18391 3.55415 4.32391L1.81415 6.06391Z" fill="black"/>
</svg>
