<svg width="24" height="24" viewBox="0 0 24 24" fill="none" xmlns="http://www.w3.org/2000/svg">
<path d="M19.9741 10.0039L15.8242 10.0139C15.6642 10.0039 15.5142 10.0339 15.3742 10.0939L14.7842 10.3539L12.9542 6.25391C12.3941 4.99391 10.9142 4.42391 9.65415 4.98391C8.39415 5.54391 7.82415 7.02391 8.38415 8.28391L11.6842 15.7339L9.81415 16.1239C9.62415 16.1739 8.82415 16.3939 8.45415 17.3339L7.75415 19.1939L14.5342 21.8639C15.0241 22.0539 15.5842 22.0439 16.0641 21.8239L22.0541 19.1739C22.9441 18.7739 23.4242 17.7939 23.1842 16.8539L21.8242 11.5139C21.6042 10.6539 20.8541 10.0439 19.9741 10.0039ZM21.2442 17.3439L15.2542 20.0039L10.3342 18.0439L14.5142 17.1639L10.2142 7.46391C10.1042 7.21391 10.2142 6.91391 10.4642 6.80391C10.7142 6.69391 11.0142 6.80391 11.1242 7.05391L13.6242 12.7039L15.2341 11.9939L19.8841 12.0039L21.2442 17.3439ZM3.55415 12.1839C3.35415 11.3239 3.25415 10.4239 3.25415 9.50391C3.25415 6.66391 4.24415 4.05391 5.88415 2.00391L6.95415 3.07391C5.57415 4.85391 4.75415 7.08391 4.75415 9.50391C4.75415 10.3839 4.86415 11.2439 5.07415 12.0639L6.69415 10.4439L7.75415 11.5039L4.25415 15.0039L0.75415 11.5039L1.81415 10.4439L3.55415 12.1839Z" fill="black"/>
</svg>
