<svg width="24" height="24" viewBox="0 0 24 24" fill="none" xmlns="http://www.w3.org/2000/svg">
<path d="M21.655 12.2916C21.505 13.6716 21.035 14.9616 20.325 16.0816L18.855 14.6116C19.235 13.9016 19.505 13.1216 19.625 12.2916H21.655ZM9.38498 5.13156C10.375 4.60156 11.515 4.29156 12.715 4.29156C15.085 4.29156 17.185 5.48156 18.455 7.29156H15.715V9.29156H21.715V3.29156H19.715V5.65156C18.065 3.61156 15.545 2.29156 12.715 2.29156C10.955 2.29156 9.31498 2.80156 7.93498 3.68156L9.38498 5.13156ZM11.715 6.29156V7.46156L13.715 9.46156V6.29156H11.715ZM20.495 21.9016L17.495 18.9016C16.105 19.7716 14.475 20.2916 12.715 20.2916C7.74498 20.2916 3.71498 16.2616 3.71498 11.2916C3.71498 9.53156 4.22498 7.89156 5.10498 6.51156L2.10498 3.51156L3.51498 2.10156L21.895 20.4816L20.495 21.9016ZM16.035 17.4416L6.55498 7.96156C6.02498 8.95156 5.71498 10.0916 5.71498 11.2916C5.71498 15.1516 8.85498 18.2916 12.715 18.2916C13.915 18.2916 15.055 17.9816 16.035 17.4416Z" fill="black"/>
</svg>
