<svg width="24" height="24" viewBox="0 0 24 24" fill="none" xmlns="http://www.w3.org/2000/svg">
<path d="M16.7622 5.86L15.0822 7.55C15.8822 8.68 15.9122 10.13 15.1722 11.29L16.8722 12.99C18.7722 10.97 18.7422 8.01 16.7622 5.86ZM20.0722 2.5L18.4422 4.13C21.1622 7.1 21.2022 11.52 18.5822 14.69L20.2222 16.33C23.9622 12.44 23.9322 6.49 20.0722 2.5ZM9.4322 5.54L12.9622 9.07C12.7622 7.21 11.2922 5.74 9.4322 5.54ZM4.4122 3.36L3.0022 4.77L5.6222 7.39C5.2322 8 5.0022 8.72 5.0022 9.5C5.0022 11.71 6.7922 13.5 9.0022 13.5C9.7822 13.5 10.5022 13.27 11.1122 12.88L15.5122 17.28C13.7422 16.1 10.7822 15.5 9.0022 15.5C6.3322 15.5 1.0022 16.84 1.0022 19.5V21.5H17.0022V19.5C17.0022 19.13 16.8922 18.8 16.7122 18.48L19.7322 21.5L21.1422 20.09L4.4122 3.36ZM3.0022 19.5C3.2222 18.78 6.3122 17.5 9.0022 17.5C11.7022 17.5 14.8022 18.79 15.0022 19.5H3.0022ZM9.0022 11.5C7.9022 11.5 7.0022 10.6 7.0022 9.5C7.0022 9.28 7.0422 9.08 7.1122 8.88L9.6222 11.39C9.4222 11.46 9.2222 11.5 9.0022 11.5Z" fill="black"/>
</svg>
