<svg width="24" height="24" viewBox="0 0 24 24" fill="none" xmlns="http://www.w3.org/2000/svg">
<path d="M9.42992 3.58187H13.4299V5.58187H9.82992L11.8299 7.58187H19.4299V15.1819L21.4299 17.1819V7.58187C21.4299 6.47187 20.5399 5.58187 19.4299 5.58187H15.4299V3.58187C15.4299 2.47187 14.5399 1.58187 13.4299 1.58187H9.42992C8.43992 1.58187 7.62992 2.28188 7.46992 3.22188L9.42992 5.18187V3.58187ZM2.82992 1.42188L1.41992 2.83187L4.16992 5.58187H3.42992C2.31992 5.58187 1.43992 6.47187 1.43992 7.58187L1.42992 18.5819C1.42992 19.6919 2.31992 20.5819 3.42992 20.5819H19.1699L21.1699 22.5819L22.5799 21.1719L2.82992 1.42188ZM3.42992 18.5819V7.58187H6.16992L17.1699 18.5819H3.42992Z" fill="black"/>
</svg>
