<svg width="24" height="24" viewBox="0 0 24 24" fill="none" xmlns="http://www.w3.org/2000/svg">
<path d="M17.01 14.2617H16.21L15.94 13.9917C16.92 12.8517 17.51 11.3817 17.51 9.76172C17.51 6.17172 14.6 3.26172 11.01 3.26172C7.42 3.26172 4.51 6.26172 4.51 9.76172H2L5.84 13.7617L10 9.76172H6.51C6.51 7.26172 8.53 5.26172 11.01 5.26172C13.49 5.26172 15.51 7.27172 15.51 9.76172C15.51 12.2417 13.49 14.2617 11.01 14.2617C10.36 14.2617 9.75 14.1217 9.19 13.8817L7.71 15.3617C8.68 15.9317 9.8 16.2617 11.01 16.2617C12.62 16.2617 14.09 15.6717 15.23 14.6917L15.5 14.9617V15.7517L20.51 20.7417L22 19.2617L17.01 14.2617Z" fill="black"/>
</svg>
