<svg width="24" height="24" viewBox="0 0 24 24" fill="none" xmlns="http://www.w3.org/2000/svg">
<path d="M7.3 14.2492L8.5 13.0492C7.5 12.0492 7 10.7492 7 9.54922C7 8.24922 7.5 6.94922 8.5 6.04922L7.3 4.84922C6 6.14922 5.3 7.84922 5.3 9.54922C5.3 11.2492 6 12.9492 7.3 14.2492Z" fill="black"/>
<path d="M19.1 2.44922L17.9 3.64922C19.5 5.24922 20.3 7.44922 20.3 9.54922C20.3 11.6492 19.5 13.8492 17.9 15.4492L19.1 16.6492C21.1 14.6492 22 12.1492 22 9.54922C22 6.94922 21 4.44922 19.1 2.44922Z" fill="black"/>
<path d="M6.1 3.64922L4.9 2.44922C3 4.44922 2 6.94922 2 9.54922C2 12.1492 3 14.6492 4.9 16.6492L6.1 15.4492C4.5 13.8492 3.7 11.6492 3.7 9.54922C3.7 7.44922 4.5 5.24922 6.1 3.64922Z" fill="black"/>
<path d="M16.7 14.2492C18 12.9492 18.7 11.2492 18.7 9.54922C18.6 7.84922 18 6.14922 16.7 4.84922L15.5 6.04922C16.5 7.04922 17 8.34922 17 9.54922C17 10.8492 16.5 12.1492 15.5 13.0492L16.7 14.2492Z" fill="black"/>
<path d="M14.5 9.54922C14.5 8.16922 13.38 7.04922 12 7.04922C10.62 7.04922 9.5 8.16922 9.5 9.54922C9.5 10.3092 9.84 10.9692 10.37 11.4292L7 21.5492H9L9.67 19.5492H14.34L15 21.5492H17L13.63 11.4292C14.16 10.9692 14.5 10.3092 14.5 9.54922ZM10.33 17.5492L12 12.5492L13.67 17.5492H10.33Z" fill="black"/>
</svg>
