<svg width="24" height="24" viewBox="0 0 24 24" fill="none" xmlns="http://www.w3.org/2000/svg">
<path d="M5.03497 21.5025H21.035V5.4725L5.03497 21.5025ZM19.035 19.5025H17.035V12.2825L19.035 10.2825V19.5025ZM4.25497 6.7225L2.96497 5.4325C6.86497 1.5225 13.205 1.5225 17.115 5.4325L15.825 6.7225C12.635 3.5325 7.44497 3.5325 4.25497 6.7225ZM11.965 10.5725L10.035 12.5025L8.10497 10.5725C9.17497 9.5125 10.895 9.5125 11.965 10.5725ZM13.255 9.2925C11.475 7.5225 8.59497 7.5225 6.82497 9.2925L5.53497 8.0025C8.01497 5.5225 12.055 5.5225 14.535 8.0025L13.255 9.2925Z" fill="black"/>
</svg>
