<svg width="24" height="24" viewBox="0 0 24 24" fill="none" xmlns="http://www.w3.org/2000/svg">
<g clip-path="url(#clip0_2048_13456)">
<path d="M1.915 0.84375L0.505005 2.25375L1.505 3.24375V15.1537C1.505 16.2537 2.395 17.1537 3.495 17.1537H10.505V19.1537H8.505V21.1537H16.505V19.1537H14.505V17.1537H15.405L21.405 23.1537L22.815 21.7437L1.915 0.84375ZM3.495 15.1537V5.24375L13.405 15.1537H3.495ZM5.05501 1.15375L7.05501 3.15375H21.505V15.1537H19.055L21.055 17.1537H21.495C22.595 17.1537 23.495 16.2537 23.495 15.1537V3.15375C23.495 2.05375 22.595 1.15375 21.495 1.15375H5.05501Z" fill="black"/>
</g>
<defs>
<clipPath id="clip0_2048_13456">
<rect width="24" height="24" fill="white"/>
</clipPath>
</defs>
</svg>
