<svg width="24" height="24" viewBox="0 0 24 24" fill="none" xmlns="http://www.w3.org/2000/svg">
<g clip-path="url(#clip0_2048_13479)">
<path d="M2.25497 0.84375L0.844971 2.25375L2.84497 4.25375V20.1537H18.745L21.745 23.1537L23.155 21.7437L2.25497 0.84375ZM6.84497 18.1537H4.84497V16.1537H6.84497V18.1537ZM6.84497 14.1537H4.84497V12.1537H6.84497V14.1537ZM4.84497 10.1537V8.15375H6.84497V10.1537H4.84497ZM10.845 18.1537H8.84497V16.1537H10.845V18.1537ZM8.84497 14.1537V12.1537H10.845V14.1537H8.84497ZM12.845 18.1537V16.1537H14.745L16.745 18.1537H12.845ZM8.84497 4.15375H10.845V6.15375H10.395L12.845 8.60375V8.15375H20.845V16.6038L22.845 18.6038V6.15375H12.845V2.15375H6.39497L8.84497 4.60375V4.15375ZM16.845 10.1537H18.845V12.1537H16.845V10.1537Z" fill="black"/>
</g>
<defs>
<clipPath id="clip0_2048_13479">
<rect width="24" height="24" fill="white"/>
</clipPath>
</defs>
</svg>
