<svg width="24" height="24" viewBox="0 0 24 24" fill="none" xmlns="http://www.w3.org/2000/svg">
<path d="M21.9 20.8892L3.51998 2.50922L2.09998 3.91922L6.29998 8.11922C5.29998 9.42922 4.69998 11.0592 4.69998 12.8192C4.70998 17.1792 8.28998 20.6992 12.71 20.6992C14.46 20.6992 16.07 20.1392 17.38 19.1992L20.48 22.2992L21.9 20.8892ZM12.71 18.6992C9.39998 18.6992 6.70998 16.0692 6.70998 12.8292C6.70998 11.6392 7.06998 10.5092 7.72998 9.54922L12.71 14.5292V18.6992ZM9.08998 5.25922L12.71 1.69922L18.36 7.25922C19.81 8.68922 20.71 10.6592 20.71 12.8292C20.71 14.0092 20.44 15.1192 19.97 16.1292L12.71 8.86922V4.50922L10.51 6.66922L9.08998 5.25922Z" fill="black"/>
</svg>
