<svg width="24" height="24" viewBox="0 0 24 24" fill="none" xmlns="http://www.w3.org/2000/svg">
<path d="M18.05 13.8316L16.62 12.4016C17.18 11.6716 17.67 10.9016 18.09 10.0816L15.89 7.88156C15.61 7.60156 15.53 7.21156 15.64 6.86156C16.01 5.74156 16.21 4.54156 16.21 3.29156C16.21 2.74156 16.66 2.29156 17.21 2.29156H20.71C21.26 2.29156 21.71 2.74156 21.71 3.29156C21.71 7.27156 20.34 10.9316 18.05 13.8316ZM15.23 16.6416C12.34 18.9316 8.67998 20.2916 4.70998 20.2916C4.15998 20.2916 3.70998 19.8416 3.70998 19.2916V15.8016C3.70998 15.2516 4.15998 14.8016 4.70998 14.8016C5.94998 14.8016 7.15998 14.6016 8.27998 14.2316C8.37998 14.1916 8.48998 14.1816 8.58998 14.1816C8.84998 14.1816 9.09998 14.2816 9.29998 14.4716L11.5 16.6716C12.31 16.2516 13.08 15.7716 13.8 15.2116L2.09998 3.51156L3.51998 2.10156L21.9 20.4916L20.49 21.9016L15.23 16.6416ZM8.30998 16.3116C7.45998 16.5516 6.58998 16.7016 5.70998 16.7616V18.2516C7.02998 18.1616 8.29998 17.9016 9.50998 17.5016L8.30998 16.3116ZM18.17 4.29156C18.11 5.18156 17.96 6.05156 17.72 6.88156L18.92 8.08156C19.33 6.88156 19.59 5.61156 19.68 4.29156H18.17Z" fill="black"/>
</svg>
