<svg width="24" height="24" viewBox="0 0 24 24" fill="none" xmlns="http://www.w3.org/2000/svg">
<g clip-path="url(#clip0_2048_13434)">
<path d="M2.22995 0.820312L0.819946 2.23031L5.81995 7.22031C4.15995 7.22031 2.81995 8.56031 2.81995 10.2203V16.2203H6.81995V20.2203H18.8199L21.7699 23.1803L23.1799 21.7703L2.22995 0.820312ZM6.81995 14.2203H4.81995V10.2203C4.81995 9.67031 5.26995 9.22031 5.81995 9.22031H7.81995L10.8199 12.2203H6.81995V14.2203ZM8.81995 18.2203V14.2203H12.8199L16.8199 18.2203H8.81995ZM8.81995 4.22031H16.8199V7.22031H11.4799L13.4799 9.22031H19.8199C20.3699 9.22031 20.8199 9.67031 20.8199 10.2203V14.2203L18.8199 14.2303V12.2203H16.4799L20.4799 16.2203H22.8199V10.2203C22.8199 8.56031 21.4799 7.22031 19.8199 7.22031H18.8199V2.22031H6.81995V2.58031L8.81995 4.58031V4.22031Z" fill="black"/>
<path d="M18.8199 11.7303C19.3722 11.7303 19.8199 11.2826 19.8199 10.7303C19.8199 10.178 19.3722 9.73031 18.8199 9.73031C18.2677 9.73031 17.8199 10.178 17.8199 10.7303C17.8199 11.2826 18.2677 11.7303 18.8199 11.7303Z" fill="black"/>
</g>
<defs>
<clipPath id="clip0_2048_13434">
<rect width="24" height="24" fill="white"/>
</clipPath>
</defs>
</svg>
