<svg width="24" height="24" viewBox="0 0 24 24" fill="none" xmlns="http://www.w3.org/2000/svg">
<path d="M6.39997 19.7787C7.60395 19.7787 8.57997 18.8027 8.57997 17.5987C8.57997 16.3948 7.60395 15.4188 6.39997 15.4188C5.19599 15.4188 4.21997 16.3948 4.21997 17.5987C4.21997 18.8027 5.19599 19.7787 6.39997 19.7787Z" fill="black"/>
<path d="M4.21997 4.21875V7.04875C11.25 7.04875 16.95 12.7487 16.95 19.7787H19.78C19.78 11.1887 12.81 4.21875 4.21997 4.21875ZM4.21997 9.87875V12.7087C8.11997 12.7087 11.29 15.8787 11.29 19.7787H14.12C14.12 14.3088 9.68997 9.87875 4.21997 9.87875Z" fill="black"/>
</svg>
