<svg width="24" height="24" viewBox="0 0 24 24" fill="none" xmlns="http://www.w3.org/2000/svg">
<path d="M7 7.57391L8.43 9.00391C9.34 8.09391 10.61 7.52391 12 7.52391C13.39 7.52391 14.66 8.09391 15.57 9.00391L17 7.57391C15.72 6.29391 13.95 5.50391 12 5.50391C10.05 5.50391 8.28 6.29391 7 7.57391ZM12 1.50391C8.98 1.50391 6.24 2.73391 4.25 4.71391L5.66 6.12391C7.28 4.50391 9.53 3.50391 12 3.50391C14.47 3.50391 16.72 4.50391 18.34 6.12391L19.75 4.71391C17.76 2.73391 15.02 1.50391 12 1.50391ZM14.86 10.5139L9.14 10.5039C8.51 10.5039 8 11.0139 8 11.6439V21.3539C8 21.9839 8.51 22.4939 9.14 22.4939H14.85C15.48 22.4939 15.99 21.9839 15.99 21.3539V11.6439C16 11.0139 15.49 10.5139 14.86 10.5139ZM15 20.5039H9V12.5039H15V20.5039Z" fill="black"/>
</svg>
