<svg width="24" height="24" viewBox="0 0 24 24" fill="none" xmlns="http://www.w3.org/2000/svg">
<path d="M20.4884 14.54V5.5C20.4884 4.4 19.5884 3.5 18.4884 3.5H4.49841C3.39841 3.5 2.49841 4.4 2.49841 5.5V15.5C2.49841 16.6 3.39841 17.5 4.49841 17.5H14.5484C14.8284 19.42 16.6484 20.85 18.7284 20.43C20.0684 20.16 21.1584 19.06 21.4284 17.72C21.6784 16.48 21.2684 15.33 20.4884 14.54ZM18.4884 5.5L11.4984 9L4.49841 5.5H18.4884ZM14.8484 15.5H4.49841V7.5L11.4984 11L18.4984 7.5V13.55C18.3384 13.53 18.1684 13.5 17.9984 13.5C16.6084 13.5 15.4084 14.32 14.8484 15.5ZM19.9984 17.5H15.9984V16.5H19.9984V17.5Z" fill="black"/>
</svg>
