<svg width="24" height="24" viewBox="0 0 24 24" fill="none" xmlns="http://www.w3.org/2000/svg">
<path d="M2.81 2.10156L1.39 3.51156L3.98 6.10156C2.2 7.14156 1 9.08156 1 11.2916C1 14.6016 3.69 17.2916 7 17.2916C9.22 17.2916 11.15 16.0816 12.19 14.2916L19.78 21.9016L21.19 20.4916L2.81 2.10156ZM7 15.2916C4.79 15.2916 3 13.5016 3 11.2916C3 9.62156 4.02 8.19156 5.47 7.59156L7.18 9.30156C7.12 9.29156 7.06 9.29156 7 9.29156C5.9 9.29156 5 10.1916 5 11.2916C5 12.3916 5.9 13.2916 7 13.2916C8.1 13.2916 9 12.3916 9 11.2916C9 11.2316 9 11.1716 8.99 11.1116L10.73 12.8516C10.22 13.7716 9.14 15.2916 7 15.2916ZM17 13.4616V12.2916H15.83L17 13.4616ZM13.83 10.2916H21V12.2916H19V15.2916L21 17.2916V14.2916H23V8.29156H11.83L13.83 10.2916Z" fill="black"/>
</svg>
