<svg width="24" height="24" viewBox="0 0 24 24" fill="none" xmlns="http://www.w3.org/2000/svg">
<path d="M3.70998 12.2916H5.70998V10.2916H3.70998V12.2916ZM7.70998 20.2916H9.70998V18.2916H7.70998V20.2916ZM13.71 2.29156H11.71V4.29156H13.71V2.29156ZM19.71 2.29156V4.29156H21.71C21.71 3.19156 20.81 2.29156 19.71 2.29156ZM5.70998 20.2916V18.2916H3.70998C3.70998 19.3916 4.60998 20.2916 5.70998 20.2916ZM3.70998 16.2916H5.70998V14.2916H3.70998V16.2916ZM11.71 20.2916H13.71V18.2916H11.71V20.2916ZM19.71 12.2916H21.71V10.2916H19.71V12.2916ZM19.71 8.29156H21.71V6.29156H19.71V8.29156ZM15.71 4.29156H17.71V2.29156H15.71V4.29156ZM8.53998 4.29156L7.70998 3.46156V2.29156H9.70998V4.29156H8.53998ZM20.54 16.2916L19.71 15.4616V14.2916H21.71V16.2916H20.54ZM21.9 20.4816L3.51998 2.10156L2.09998 3.51156L4.87998 6.29156H3.70998V8.29156H5.70998V7.12156L7.70998 9.12156V16.2916H14.88L16.88 18.2916H15.71V20.2916H17.71V19.1216L20.49 21.9016L21.9 20.4816ZM9.70998 14.2916V11.1216L12.88 14.2916H9.70998ZM15.71 11.4616V8.29156H12.54L10.54 6.29156H17.71V13.4616L15.71 11.4616Z" fill="black"/>
</svg>
