<svg width="24" height="24" viewBox="0 0 24 24" fill="none" xmlns="http://www.w3.org/2000/svg">
<path d="M4.67004 6.90172C5.37004 6.19172 6.07004 5.55172 6.38004 5.68172C6.88004 5.88172 6.38004 6.71172 6.08004 7.20172C5.83004 7.62172 3.22004 11.0917 3.22004 13.5117C3.22004 14.7917 3.70004 15.8517 4.56004 16.4917C5.31004 17.0517 6.30004 17.2217 7.20004 16.9517C8.27004 16.6417 9.15004 15.5517 10.26 14.1817C11.47 12.6917 13.09 10.7417 14.34 10.7417C15.97 10.7417 15.99 11.7517 16.1 12.5317C12.32 13.1717 10.72 16.2017 10.72 17.9017C10.72 19.6017 12.16 20.9917 13.93 20.9917C15.56 20.9917 18.22 19.6617 18.62 14.8917H21.08V12.3917H18.61C18.46 10.7417 17.52 8.19172 14.58 8.19172C12.33 8.19172 10.4 10.1017 9.64004 11.0317C9.06004 11.7617 7.58004 13.5117 7.35004 13.7517C7.10004 14.0517 6.67004 14.5917 6.24004 14.5917C5.79004 14.5917 5.52004 13.7617 5.88004 12.6717C6.23004 11.5817 7.28004 9.81172 7.73004 9.15172C8.51004 8.01172 9.03004 7.23172 9.03004 5.87172C9.03004 3.70172 7.39004 3.01172 6.52004 3.01172C5.20004 3.01172 4.05004 4.01172 3.80004 4.26172C3.44004 4.62172 3.14004 4.92172 2.92004 5.19172L4.67004 6.90172ZM13.96 18.5617C13.65 18.5617 13.22 18.3017 13.22 17.8417C13.22 17.2417 13.95 15.6417 16.09 15.0817C15.79 17.7717 14.66 18.5617 13.96 18.5617Z" fill="black"/>
</svg>
