<svg width="24" height="24" viewBox="0 0 24 24" fill="none" xmlns="http://www.w3.org/2000/svg">
<path d="M18 13.0013H17.32L15.32 15.0013H17.23L19 17.0013H5L6.78 15.0013H8.83L6.83 13.0013H6L3 16.0013V20.0013C3 21.1013 3.89 22.0013 4.99 22.0013H19C20.1 22.0013 21 21.1113 21 20.0013V16.0013L18 13.0013ZM19 20.0013H5V19.0013H19V20.0013ZM11.34 15.0213C11.73 15.4113 12.36 15.4113 12.75 15.0213L19.11 8.66126C19.5 8.27126 19.5 7.64126 19.11 7.25126L14.16 2.30126C13.78 1.90126 13.15 1.90126 12.76 2.29126L6.39 8.66126C6 9.05126 6 9.68126 6.39 10.0713L11.34 15.0213ZM13.46 4.41126L17 7.95126L12.05 12.9013L8.51 9.36126L13.46 4.41126Z" fill="black"/>
</svg>
