<svg width="24" height="24" viewBox="0 0 24 24" fill="none" xmlns="http://www.w3.org/2000/svg">
<path d="M14.39 11.0658L16 12.6758V11.0658H14.39ZM17 7.06578H13V8.96578H17C18.71 8.96578 20.1 10.3558 20.1 12.0658C20.1 13.3358 19.33 14.4358 18.23 14.9058L19.63 16.3058C21.05 15.4258 22 13.8558 22 12.0658C22 9.30578 19.76 7.06578 17 7.06578ZM2 4.33578L5.11 7.44578C3.29 8.18578 2 9.97578 2 12.0658C2 14.8258 4.24 17.0658 7 17.0658H11V15.1658H7C5.29 15.1658 3.9 13.7758 3.9 12.0658C3.9 10.4758 5.11 9.16578 6.66 8.99578L8.73 11.0658H8V13.0658H10.73L13 15.3358V17.0658H14.73L18.74 21.0758L20.15 19.6658L3.41 2.92578L2 4.33578Z" fill="black"/>
</svg>
