<svg width="24" height="24" viewBox="0 0 24 24" fill="none" xmlns="http://www.w3.org/2000/svg">
<path d="M9.39004 4.70906H15.19L19.29 8.80906V14.6091L19.07 14.8291L20.49 16.2391L21.29 15.4391V7.97906L16.02 2.70906H8.56004L7.76004 3.50906L9.17004 4.92906L9.39004 4.70906Z" fill="black"/>
<path d="M12.29 16.7091C12.8423 16.7091 13.29 16.2613 13.29 15.7091C13.29 15.1568 12.8423 14.7091 12.29 14.7091C11.7378 14.7091 11.29 15.1568 11.29 15.7091C11.29 16.2613 11.7378 16.7091 12.29 16.7091Z" fill="black"/>
<path d="M13.29 9.03906V6.70906H11.29V7.03906L13.29 9.03906ZM2.70004 1.28906L1.29004 2.69906L4.93004 6.33906L3.29004 7.97906V15.4391L8.56004 20.7091H16.02L17.66 19.0691L21.3 22.7091L22.71 21.2991L2.70004 1.28906ZM15.19 18.7091H9.39004L5.29004 14.6091V8.80906L6.34004 7.75906L16.24 17.6591L15.19 18.7091Z" fill="black"/>
</svg>
