<svg width="24" height="24" viewBox="0 0 24 24" fill="none" xmlns="http://www.w3.org/2000/svg">
<path d="M12 0.753906C7.59 0.753906 4 4.34391 4 8.75391C4 14.3239 10.96 22.0939 11.26 22.4239L12 23.2439L12.74 22.4239C13.04 22.0939 20 14.3239 20 8.75391C20 4.34391 16.41 0.753906 12 0.753906ZM12 20.2239C9.82 17.6139 6 12.2939 6 8.75391C6 5.44391 8.69 2.75391 12 2.75391C15.31 2.75391 18 5.44391 18 8.75391C18 12.5839 13.75 18.1139 12 20.2239ZM10.47 10.9239L8.71 9.15391L7.29 10.5739L10.47 13.7539L16.48 7.74391L15.07 6.32391L10.47 10.9239Z" fill="black"/>
</svg>
