<svg width="48" height="48" viewBox="0 0 48 48" fill="none" xmlns="http://www.w3.org/2000/svg">
<g clip-path="url(#clip0_82_898)">
<path d="M24 48C37.2548 48 48 37.2548 48 24C48 10.7452 37.2548 0 24 0C10.7452 0 0 10.7452 0 24C0 37.2548 10.7452 48 24 48Z" fill="#FF4500"/>
<path d="M40 24.0006C40 22.0637 38.4281 20.4918 36.4912 20.4918C35.5369 20.4918 34.6947 20.8567 34.0772 21.4742C31.6912 19.762 28.379 18.6392 24.7298 18.4988L26.3298 11.0041L31.5228 12.0988C31.579 13.4181 32.6737 14.4848 34.0211 14.4848C35.3965 14.4848 36.5193 13.362 36.5193 11.9865C36.5193 10.6111 35.3965 9.48828 34.0211 9.48828C33.0386 9.48828 32.1965 10.0497 31.8035 10.8918L25.993 9.6567C25.8246 9.62863 25.6562 9.6567 25.5158 9.74091C25.3755 9.82512 25.2912 9.96548 25.2351 10.1339L23.4667 18.4988C19.7333 18.6111 16.393 19.7058 13.979 21.4742C13.3614 20.8848 12.4912 20.4918 11.5649 20.4918C9.62808 20.4918 8.05615 22.0637 8.05615 24.0006C8.05615 25.4321 8.89826 26.6392 10.1333 27.2006C10.0772 27.5374 10.0491 27.9023 10.0491 28.2672C10.0491 33.6567 16.3088 38.0076 24.0562 38.0076C31.8035 38.0076 38.0632 33.6567 38.0632 28.2672C38.0632 27.9023 38.0351 27.5655 37.979 27.2286C39.1298 26.6672 40 25.4321 40 24.0006ZM16 26.4988C16 25.1234 17.1228 24.0006 18.4983 24.0006C19.8737 24.0006 20.9965 25.1234 20.9965 26.4988C20.9965 27.8742 19.8737 28.9971 18.4983 28.9971C17.1228 28.9971 16 27.8742 16 26.4988ZM29.9509 33.0953C28.2386 34.8076 24.9825 34.9199 24.0281 34.9199C23.0737 34.9199 19.7895 34.7795 18.1053 33.0953C17.8526 32.8427 17.8526 32.4216 18.1053 32.169C18.3579 31.9164 18.779 31.9164 19.0316 32.169C20.0983 33.2357 22.4 33.6286 24.0562 33.6286C25.7123 33.6286 27.986 33.2357 29.0807 32.169C29.3333 31.9164 29.7544 31.9164 30.007 32.169C30.2035 32.4497 30.2035 32.8427 29.9509 33.0953ZM29.5018 28.9971C28.1263 28.9971 27.0035 27.8742 27.0035 26.4988C27.0035 25.1234 28.1263 24.0006 29.5018 24.0006C30.8772 24.0006 32 25.1234 32 26.4988C32 27.8742 30.8772 28.9971 29.5018 28.9971Z" fill="white"/>
</g>
<defs>
<clipPath id="clip0_82_898">
<rect width="48" height="48" fill="white"/>
</clipPath>
</defs>
</svg>
