<svg width="48" height="48" viewBox="0 0 48 48" fill="none" xmlns="http://www.w3.org/2000/svg">
<g clip-path="url(#clip0_82_887)">
<path d="M24 48C37.2548 48 48 37.2548 48 24C48 10.7452 37.2548 0 24 0C10.7452 0 0 10.7452 0 24C0 37.2548 10.7452 48 24 48Z" fill="url(#paint0_linear_82_887)"/>
<path fill-rule="evenodd" clip-rule="evenodd" d="M10.8638 23.7479C17.8603 20.6996 22.5257 18.69 24.8601 17.7191C31.5251 14.9469 32.91 14.4653 33.8127 14.4494C34.0113 14.4459 34.4552 14.4951 34.7427 14.7284C34.9855 14.9254 35.0523 15.1916 35.0843 15.3784C35.1163 15.5652 35.1561 15.9907 35.1244 16.3232C34.7633 20.1181 33.2004 29.3275 32.4053 33.5779C32.0689 35.3764 31.4065 35.9795 30.7652 36.0385C29.3714 36.1667 28.3131 35.1174 26.9632 34.2325C24.8509 32.8479 23.6576 31.986 21.6072 30.6348C19.2377 29.0733 20.7738 28.2151 22.1242 26.8125C22.4776 26.4454 28.6183 20.8599 28.7372 20.3532C28.7521 20.2899 28.7659 20.0536 28.6255 19.9289C28.4852 19.8042 28.2781 19.8468 28.1286 19.8808C27.9168 19.9288 24.5423 22.1592 18.0053 26.5719C17.0475 27.2296 16.1799 27.5501 15.4026 27.5333C14.5457 27.5148 12.8973 27.0488 11.6719 26.6504C10.1689 26.1619 8.97432 25.9036 9.07834 25.0738C9.13252 24.6416 9.72767 24.1997 10.8638 23.7479Z" fill="white"/>
</g>
<defs>
<linearGradient id="paint0_linear_82_887" x1="24" y1="0" x2="24" y2="47.644" gradientUnits="userSpaceOnUse">
<stop stop-color="#2AABEE"/>
<stop offset="1" stop-color="#229ED9"/>
</linearGradient>
<clipPath id="clip0_82_887">
<rect width="48" height="48" fill="white"/>
</clipPath>
</defs>
</svg>
