<svg width="48" height="48" viewBox="0 0 48 48" fill="none" xmlns="http://www.w3.org/2000/svg">
<path d="M44.5944 35.3613C37.1613 31.762 35.9766 26.2048 35.9239 25.7926C35.8601 25.2933 35.7877 24.9008 36.3384 24.3929C36.8694 23.9022 39.2253 22.4436 39.879 21.9872C40.9594 21.2315 41.4352 20.4771 41.0845 19.5497C40.8392 18.9081 40.242 18.6664 39.6128 18.6664C39.4144 18.667 39.2166 18.6892 39.0229 18.7327C37.8358 18.9903 36.683 19.5852 36.0158 19.746C35.9357 19.7666 35.8533 19.7777 35.7706 19.7791C35.4149 19.7791 35.28 19.6208 35.3144 19.1927C35.3977 17.8948 35.5743 15.3615 35.3695 12.9951C35.0887 9.73935 34.0389 8.12617 32.7941 6.69946C32.192 6.00757 29.3958 3.03516 23.9997 3.03516C18.6036 3.03516 15.8112 6.00757 15.2127 6.69087C13.9642 8.11758 12.9157 9.73076 12.6373 12.9866C12.4325 15.353 12.6164 17.885 12.6925 19.1841C12.717 19.5914 12.5919 19.7705 12.2363 19.7705C12.1535 19.7691 12.0712 19.7579 11.991 19.7374C11.3251 19.5767 10.1723 18.9817 8.98512 18.7241C8.79147 18.6806 8.59368 18.6584 8.39523 18.6578C7.76364 18.6578 7.16884 18.9032 6.92356 19.5411C6.57282 20.4685 7.0462 21.223 8.13033 21.9786C8.78399 22.435 11.1399 23.8924 11.6709 24.3843C12.2203 24.8922 12.1492 25.2847 12.0854 25.784C12.0327 26.2023 10.8468 31.7595 3.41488 35.3527C2.97951 35.5637 2.23878 36.0102 3.54488 36.7315C5.59539 37.8651 6.96036 37.7436 8.02118 38.4269C8.92134 39.0072 8.38909 40.2584 9.04398 40.7099C9.84849 41.2656 12.2264 40.6706 15.2985 41.6852C17.8739 42.5341 19.4388 44.9324 24.0059 44.9324C28.5729 44.9324 30.1832 42.523 32.7132 41.6852C35.7791 40.6706 38.162 41.2656 38.9677 40.7099C39.6214 40.2584 39.0904 39.0072 39.9906 38.4269C41.0514 37.7436 42.4151 37.8651 44.4669 36.7315C45.7705 36.0188 45.0298 35.5723 44.5944 35.3613Z" fill="white"/>
<path d="M47.8284 34.9386C47.4948 34.0308 46.8596 33.545 46.136 33.1426C45.9999 33.0629 45.8748 32.9991 45.7681 32.95C45.5522 32.8384 45.3315 32.7304 45.112 32.6163C42.8566 31.4202 41.0956 29.9113 39.8741 28.1227C39.5272 27.6192 39.2263 27.0855 38.9751 26.528C38.8709 26.2299 38.8758 26.0606 38.9506 25.906C39.0248 25.7869 39.123 25.6846 39.2388 25.6054C39.6263 25.3491 40.0261 25.089 40.2972 24.9136C40.7804 24.6007 41.163 24.3529 41.4095 24.1775C42.3354 23.5298 42.983 22.8416 43.3877 22.0724C43.67 21.541 43.8347 20.955 43.8705 20.3542C43.9062 19.7535 43.8122 19.1521 43.5949 18.5909C42.9817 16.9765 41.4573 15.9742 39.6104 15.9742C39.2208 15.9739 38.8323 16.015 38.4515 16.0969C38.3497 16.119 38.2479 16.1423 38.1485 16.1681C38.1657 15.064 38.1412 13.8986 38.0431 12.7516C37.6948 8.71923 36.2832 6.60554 34.8116 4.91998C33.8691 3.86374 32.7591 2.97013 31.5261 2.27511C29.2928 0.999287 26.7603 0.351562 23.9998 0.351562C21.2392 0.351562 18.719 0.999287 16.4833 2.27511C15.2472 2.97034 14.1349 3.86574 13.1916 4.92489C11.72 6.61044 10.3084 8.72782 9.96012 12.7565C9.86201 13.9035 9.83748 15.075 9.85342 16.173C9.75408 16.1472 9.65352 16.1239 9.55173 16.1018C9.17087 16.0199 8.78237 15.9788 8.3928 15.9791C6.54464 15.9791 5.01779 16.9814 4.40705 18.5958C4.18875 19.1572 4.09383 19.7591 4.12875 20.3604C4.16366 20.9618 4.3276 21.5486 4.6094 22.081C5.01534 22.8502 5.66287 23.5384 6.58879 24.1861C6.83406 24.3578 7.21792 24.6056 7.70112 24.9221C7.96234 25.0914 8.34374 25.3392 8.71779 25.587C8.84866 25.6717 8.95989 25.7834 9.04401 25.9146C9.1225 26.0753 9.12495 26.2483 9.00844 26.5672C8.76064 27.113 8.46473 27.6356 8.12422 28.1289C6.92972 29.877 5.22014 31.3589 3.03718 32.5452C1.8807 33.1586 0.678844 33.5683 0.171121 34.9484C-0.21151 35.9899 0.0386716 37.1749 1.01119 38.1735C1.36812 38.5462 1.7821 38.8597 2.23758 39.1022C3.18532 39.6231 4.19309 40.0265 5.23854 40.3031C5.45428 40.3588 5.6591 40.4505 5.84437 40.5743C6.1988 40.8846 6.14852 41.352 6.62067 42.0365C6.85769 42.3903 7.15885 42.6966 7.50858 42.9394C8.49949 43.624 9.61305 43.6669 10.7928 43.7123C11.8586 43.7528 13.0665 43.7994 14.4462 44.2545C15.0177 44.4434 15.6113 44.809 16.2993 45.2359C17.9512 46.2517 20.2127 47.6416 23.9973 47.6416C27.7819 47.6416 30.0593 46.2443 31.7235 45.2249C32.4066 44.8053 32.9965 44.4434 33.5521 44.2594C34.9317 43.8031 36.1397 43.7577 37.2055 43.7172C38.3852 43.6718 39.4988 43.6289 40.4897 42.9443C40.9039 42.6554 41.249 42.2784 41.5003 41.8403C41.84 41.2625 41.8314 40.8589 42.1502 40.5767C42.3241 40.4588 42.5164 40.3709 42.7193 40.3166C43.779 40.0391 44.8005 39.632 45.7607 39.1046C46.2446 38.8449 46.6802 38.5038 47.0484 38.0962L47.0607 38.0815C47.9731 37.105 48.2024 35.9543 47.8284 34.9386ZM44.4644 36.7468C42.4127 37.8803 41.0489 37.7589 39.9881 38.4422C39.0867 39.0224 39.6202 40.2737 38.9653 40.7251C38.1608 41.2809 35.7829 40.6859 32.7108 41.7004C30.1771 42.5383 28.5607 44.9476 24.0034 44.9476C19.4462 44.9476 17.8678 42.5432 15.2924 41.6943C12.2265 40.6798 9.84361 41.2747 9.03788 40.719C8.38421 40.2676 8.91524 39.0163 8.01507 38.436C6.95302 37.7527 5.58929 37.8742 3.53877 36.7468C2.23267 36.0255 2.97341 35.5789 3.40877 35.3679C10.8407 31.7686 12.0266 26.2115 12.0793 25.7993C12.1431 25.3 12.2142 24.9074 11.6648 24.3996C11.1338 23.9089 8.77788 22.4502 8.12422 21.9939C7.04255 21.2382 6.56671 20.4838 6.91746 19.5563C7.16274 18.9147 7.76121 18.6731 8.38912 18.6731C8.58757 18.6737 8.78536 18.6959 8.97901 18.7393C10.1661 18.9969 11.319 19.5919 11.9849 19.7526C12.0651 19.7732 12.1474 19.7843 12.2302 19.7857C12.5858 19.7857 12.7109 19.6066 12.6864 19.1994C12.6103 17.9002 12.4264 15.3682 12.6312 13.0018C12.912 9.74602 13.9606 8.13284 15.2066 6.70613C15.8051 6.02038 18.6172 3.04796 23.9949 3.04796C29.3725 3.04796 32.192 6.00811 32.7905 6.69141C34.0377 8.11812 35.0875 9.7313 35.3659 12.9871C35.5707 15.3535 35.3941 17.8867 35.3107 19.1846C35.2825 19.6128 35.4113 19.771 35.7669 19.771C35.8497 19.7697 35.932 19.7586 36.0122 19.7379C36.6793 19.5772 37.8321 18.9822 39.0193 18.7246C39.2129 18.6812 39.4107 18.659 39.6092 18.6584C40.2408 18.6584 40.8356 18.9037 41.0808 19.5416C41.4316 20.469 40.9582 21.2235 39.8753 21.9792C39.2216 22.4355 36.8658 23.8929 36.3347 24.3848C35.7841 24.8927 35.8564 25.2853 35.9202 25.7846C35.9729 26.2029 37.1576 31.7601 44.5907 35.3532C45.0298 35.5728 45.7705 36.0193 44.4644 36.7468Z" fill="black"/>
</svg>
