<svg width="48" height="48" viewBox="0 0 48 48" fill="none" xmlns="http://www.w3.org/2000/svg">
<path d="M48 23.6571C48 30.0158 46.9344 35.1736 45.6194 35.1736C44.3045 35.1736 43.2393 30.0171 43.2393 23.6571C43.2393 17.2971 44.3049 12.1406 45.6194 12.1406C46.9339 12.1406 48 17.2966 48 23.6571Z" fill="white"/>
<path d="M41.9256 23.6563C41.9256 30.7549 38.8951 36.5118 35.1568 36.5118C31.4184 36.5118 28.3879 30.7549 28.3879 23.6563C28.3879 16.5577 31.418 10.8008 35.1563 10.8008C38.8947 10.8008 41.9252 16.5558 41.9252 23.6563" fill="white"/>
<path d="M27.0749 23.6554C27.0749 31.1968 21.0139 37.3103 13.5377 37.3103C6.06146 37.3103 0 31.1955 0 23.6554C0 16.1153 6.061 10 13.5377 10C21.0143 10 27.0749 16.114 27.0749 23.6554Z" fill="white"/>
</svg>
