<svg width="48" height="48" viewBox="0 0 48 48" fill="none" xmlns="http://www.w3.org/2000/svg">
<path d="M11.811 20.5818C12.446 22.6871 13.2146 24.6618 14.05 26.5666C15.487 29.9782 16.4561 31.7828 17.7959 34.0218C19.4333 36.6952 21.2409 39.7392 24.2151 41.7109C26.3872 43.1479 29.0303 43.883 31.57 43.883C35.1488 43.883 38.2232 42.3124 40.1979 40.4714C42.1361 38.6668 44.6455 35.1884 44.6455 28.4015C44.6455 26.0623 45.6814 24.0542 46.45 22.4501C46.45 22.4167 46.4834 22.3499 46.5503 22.2162C46.851 21.5478 47.2186 20.679 47.2186 19.8101C47.2186 19.1752 47.0515 18.44 46.6171 17.8051C45.9488 16.6689 44.7457 16.2678 43.6399 16.2678C41.0667 16.2678 39.2926 18.0724 38.3903 19.9134L38.0895 20.5149C37.7219 19.9803 37.3543 19.4122 37.0536 18.9109C36.1179 17.2734 35.5832 16.1706 35.1153 14.7641C34.7477 13.6613 34.447 12.3914 34.2465 11.3524C33.6784 8.07443 32.7427 7.00506 31.2024 6.60405C30.0662 6.30329 28.7295 6.53722 27.7574 7.17215C27.0921 5.66835 25.9559 5 24.449 5C22.3103 5 20.369 6.40354 20.369 8.77924C20.369 9.08 20.4024 9.38076 20.4359 9.74835C20.1685 9.68152 19.8677 9.6481 19.567 9.6481C17.2612 9.6481 15.5538 11.2522 15.5538 13.4273C15.5538 13.9286 15.6207 14.4967 15.7877 15.1651C15.5872 15.1316 15.3867 15.1316 15.1862 15.1316C14.05 15.1985 13.0141 15.6329 12.2758 16.5352C11.5437 17.4041 11.2429 18.7408 11.811 20.5818Z" fill="#1F1F1F"/>
<path d="M13.7158 19.9806C13.4151 19.0115 13.4485 18.2763 13.8161 17.8084C14.1837 17.374 14.6849 17.1735 15.2865 17.1401C16.3224 17.1067 16.7234 17.8419 17.3249 19.7467C17.6925 20.9497 18.4277 22.6905 18.8622 23.6596C19.4303 24.8292 20.2323 26.3998 20.5999 26.9376C20.9006 27.4054 21.168 27.5391 21.4687 27.5391C22.0034 27.5391 22.4044 27.2383 22.4044 26.7036C22.4044 26.4029 22.1037 25.9016 21.9366 25.6008C21.6358 25.0327 21.0009 23.8965 20.5665 22.9274C20.0986 21.8581 19.5639 20.5214 19.1295 19.3153C18.8622 18.6135 18.5614 17.611 18.2606 16.6084C17.7928 15.0712 17.5589 14.1355 17.5589 13.4307C17.5589 12.3614 18.3609 11.6596 19.5639 11.6596C20.4328 11.6596 21.0009 12.094 21.3685 13.6646C21.6692 15.1016 22.2039 17.4439 22.9725 19.2819C23.4738 20.4849 24.209 22.092 24.6434 22.894C24.9108 23.3619 25.2115 23.7629 25.2115 23.93C25.2115 24.1639 24.7771 24.5315 24.4095 25.0327C24.1756 25.3335 24.0753 25.534 24.0753 25.7679C24.0753 25.9684 24.209 26.1689 24.4095 26.4363C24.61 26.7036 24.8105 26.971 25.0444 26.971C25.2115 26.971 25.3118 26.9041 25.412 26.7705C26.448 25.4672 27.5842 24.5649 28.8905 23.8267C30.4277 22.9578 32.0014 22.5234 33.2379 22.256C33.8394 22.1224 34.0065 21.9887 34.0065 21.6545C34.0065 21.2535 33.7057 21.0196 33.3047 20.9862C33.0039 20.9527 32.7366 20.9862 32.2687 21.0196C31.9346 21.053 31.7675 20.8859 31.567 20.4515C30.9655 19.1816 29.7958 17.0398 29.0941 14.2996C28.7933 13.13 28.526 11.8935 28.3589 10.2864C28.2586 9.55123 28.3923 9.28388 28.7599 8.94971C29.2277 8.54869 30.0632 8.38161 30.6981 8.5487C31.4667 8.7492 31.8677 9.35072 32.2687 11.693C32.4692 12.7958 32.8034 14.1993 33.2044 15.4054C33.7057 16.9426 34.3406 18.2155 35.3098 19.9198C35.8444 20.8555 36.5128 21.8246 37.2146 22.7634C37.0809 23.1644 36.847 23.4317 36.0784 24.0667C35.3098 24.7016 34.5411 25.37 33.8394 26.6064C33.3381 27.5087 33.1042 28.5112 33.1042 29.1796C33.1042 29.8145 33.2379 29.9482 33.6389 29.9482C34.3406 29.9482 34.9087 29.8145 34.9422 29.5138C35.1092 28.3107 35.3098 27.5421 35.9781 26.6368C36.3791 26.1355 37.0809 25.5006 37.649 24.9993C38.7184 24.1305 39.086 23.6292 39.4536 22.3927C39.6206 21.8246 39.8211 21.29 40.0885 20.7887C40.7234 19.6191 41.8596 18.2824 43.6338 18.2824C44.2019 18.2824 44.6698 18.4495 44.9705 18.9173C45.1376 19.1846 45.2044 19.5522 45.2044 19.8196C45.2044 20.4211 44.77 21.2565 44.5695 21.6576C43.8343 23.2282 42.6313 25.6373 42.6313 28.411C42.6313 34.4626 40.4925 37.4733 38.8186 39.0105C37.1811 40.5477 34.6049 41.8874 31.5639 41.8874C29.3918 41.8874 27.1498 41.2525 25.3118 40.0495C22.7386 38.3452 21.1315 35.6687 19.4941 32.9953C18.1908 30.8231 17.2885 29.1158 15.8819 25.8074C15.089 23.8905 14.3508 22.0191 13.7158 19.9806Z" fill="#FFE450"/>
<path d="M22.3102 8.77895C22.3102 7.50908 23.4798 7.00781 24.4489 7.00781C25.4849 7.00781 25.8525 7.50908 26.1198 8.57845C26.3537 9.44731 26.454 10.2493 26.5542 11.185C26.6879 12.1207 27.1558 14.2625 27.2894 14.7972C27.7907 16.6352 28.7932 18.8103 29.9963 21.4169C29.2945 21.6509 28.3588 22.0519 27.7239 22.386C26.9218 22.8205 26.7547 22.8205 26.4206 22.1855C25.7188 20.8822 25.2175 19.9131 24.7831 18.7739C24.4155 17.8382 24.0479 16.7688 23.7471 15.5293C23.2459 13.424 23.179 12.8225 22.778 11.8503C22.5441 10.8509 22.3102 9.61439 22.3102 8.77895Z" fill="#FFE450"/>
<path d="M10.3406 31.1625C9.63271 31.5999 5.88081 33.5655 5.03321 33.8784C4.42866 34.1032 3.77246 34.0485 3.38663 32.9063C2.91271 31.4936 3.57803 31.1594 4.52587 30.7918C5.36435 30.4668 8.84283 29.209 9.65094 28.9903C10.219 28.8384 10.614 29.0298 10.8874 29.7133C11.1882 30.4637 10.9816 30.7645 10.3406 31.1625Z" fill="#1F1F1F"/>
<path d="M7.24788 23.2018C6.23927 23.2291 2.04991 23.0499 1.09295 22.9557C0.26054 22.8737 -0.0766752 22.5061 0.014464 21.3C0.111679 20.0058 0.615983 19.9268 1.4332 20.0058C2.38105 20.097 6.77092 20.8109 7.46965 21.0266C8.19269 21.2514 8.29295 21.5795 8.20484 22.2114C8.09244 23.0317 7.72181 23.1866 7.24788 23.2018Z" fill="#1F1F1F"/>
<path d="M7.76741 14.7182C6.61298 14.3536 3.18614 12.2787 2.29298 11.744C1.48488 11.2579 1.38159 10.8204 1.94361 9.7541C2.44184 8.81233 2.99475 8.64828 3.815 9.0736C4.76589 9.56879 8.12285 12.1814 8.76386 12.6979C9.38361 13.1961 9.29855 13.4544 8.97348 14.0954C8.64842 14.7364 8.34462 14.9004 7.76741 14.7182Z" fill="#1F1F1F"/>
</svg>
