<svg width="24" height="24" viewBox="0 0 24 24" fill="none" xmlns="http://www.w3.org/2000/svg">
<path d="M18.6 6.62109C17.16 6.62109 15.8 7.18109 14.83 8.15109L7.8 14.3911C7.16 15.0311 6.31 15.3811 5.4 15.3811C3.53 15.3811 2.01 13.8711 2.01 12.0011C2.01 10.1311 3.53 8.62109 5.4 8.62109C6.31 8.62109 7.16 8.97109 7.84 9.65109L8.97 10.6511L10.48 9.31109L9.22 8.20109C8.2 7.18109 6.84 6.62109 5.4 6.62109C2.42 6.62109 0 9.04109 0 12.0011C0 14.9611 2.42 17.3811 5.4 17.3811C6.84 17.3811 8.2 16.8211 9.17 15.8511L16.2 9.61109C16.84 8.97109 17.69 8.62109 18.6 8.62109C20.47 8.62109 21.99 10.1311 21.99 12.0011C21.99 13.8711 20.47 15.3811 18.6 15.3811C17.7 15.3811 16.84 15.0311 16.16 14.3511L15.02 13.3411L13.51 14.6811L14.78 15.8011C15.8 16.8111 17.15 17.3711 18.6 17.3711C21.58 17.3711 24 14.9611 24 11.9911C24 9.02109 21.58 6.62109 18.6 6.62109Z" fill="black"/>
</svg>
