<svg width="24" height="24" viewBox="0 0 24 24" fill="none" xmlns="http://www.w3.org/2000/svg">
<path d="M20.9963 19.57L19.5693 20.998L13.1273 14.556L14.5573 13.128L20.9963 19.57ZM13.1163 3C10.5363 3 7.95625 3.98 5.97625 5.95L5.96625 5.96C2.01625 9.91 2.01625 16.32 5.96625 20.27L20.2663 5.96C18.2963 3.99 15.7063 3 13.1163 3ZM6.13625 17.27C5.39625 16.03 4.99625 14.61 4.99625 13.12C4.99625 12.19 5.15625 11.3 5.45625 10.45C5.64625 12.36 6.34625 14.24 7.52625 15.89L6.13625 17.27ZM8.97625 14.43C7.62625 12.38 7.11625 9.93 7.59625 7.6C8.17625 7.48 8.75625 7.42 9.34625 7.42C11.1463 7.42 12.8963 7.97 14.4263 8.98L8.97625 14.43ZM10.4463 5.46C11.2963 5.16 12.1863 5 13.1163 5C14.6063 5 16.0263 5.4 17.2663 6.14L15.8763 7.53C14.2263 6.35 12.3563 5.65 10.4463 5.46Z" fill="black"/>
</svg>
