<svg width="24" height="24" viewBox="0 0 24 24" fill="none" xmlns="http://www.w3.org/2000/svg">
<path d="M21.6 18.2031L13 11.7531V10.8431C14.65 10.3531 15.8 8.67309 15.43 6.79309C15.17 5.48309 14.13 4.39309 12.82 4.09309C10.54 3.57309 8.50002 5.30309 8.50002 7.50309H10.5C10.5 6.67309 11.17 6.00309 12 6.00309C12.83 6.00309 13.5 6.67309 13.5 7.50309C13.5 8.34309 12.81 9.02309 11.97 9.00309C11.43 8.99309 11 9.45309 11 9.99309V11.7531L2.40002 18.2031C1.63002 18.7831 2.04002 20.0031 3.00002 20.0031H21C21.96 20.0031 22.37 18.7831 21.6 18.2031ZM6.00002 18.0031L12 13.5031L18 18.0031H6.00002Z" fill="black"/>
</svg>
