<svg width="24" height="24" viewBox="0 0 24 24" fill="none" xmlns="http://www.w3.org/2000/svg">
<path d="M22.0144 10.9878L13.0144 1.98776C12.9219 1.89505 12.812 1.82151 12.691 1.77132C12.57 1.72114 12.4403 1.69531 12.3094 1.69531C12.1784 1.69531 12.0487 1.72114 11.9277 1.77132C11.8068 1.82151 11.6969 1.89505 11.6044 1.98776L8.51437 5.07776L9.92437 6.48776L12.3044 4.11776L19.8844 11.6978L17.5044 14.0778L18.9144 15.4878L22.0044 12.3978C22.4044 12.0278 22.4044 11.3978 22.0144 10.9878Z" fill="black"/>
<path d="M13.3044 7.19776V9.86776L15.4744 12.0378L16.8044 10.6978L13.3044 7.19776Z" fill="black"/>
<path d="M1.69437 3.91776L5.68437 7.90776L2.59437 10.9978C2.50166 11.0903 2.42812 11.2002 2.37793 11.3211C2.32775 11.4421 2.30192 11.5718 2.30192 11.7028C2.30192 11.8337 2.32775 11.9634 2.37793 12.0844C2.42812 12.2054 2.50166 12.3152 2.59437 12.4078L11.5944 21.4078C11.9844 21.7978 12.6144 21.7978 13.0044 21.4078L16.0944 18.3178L20.0844 22.3078L21.4944 20.8978L3.11437 2.50776L1.69437 3.91776ZM8.33437 10.5478C8.32437 10.5978 8.29437 10.6478 8.29437 10.6978V14.6978H10.2944V12.5178L14.6744 16.8978L12.3044 19.2778L4.72437 11.6978L7.10437 9.31776L8.33437 10.5478Z" fill="black"/>
</svg>
