<svg width="24" height="24" viewBox="0 0 24 24" fill="none" xmlns="http://www.w3.org/2000/svg">
<path d="M7.695 3.84531C7.705 3.84531 7.705 3.83531 7.715 3.83531V1.69531H10.715V3.69531H14.715V1.69531H17.715V3.83531C19.435 4.28531 20.715 5.83531 20.715 7.69531V16.8653L18.715 14.8653V7.69531C18.715 6.59531 17.815 5.69531 16.715 5.69531H9.545L7.695 3.84531ZM15.545 11.6953L17.215 13.3653V11.6953H15.545ZM20.495 22.3053L19.645 21.4553C19.365 21.6053 19.055 21.6953 18.715 21.6953H6.715C5.615 21.6953 4.715 20.7953 4.715 19.6953V7.69531C4.715 7.33531 4.775 7.00531 4.865 6.67531L2.105 3.91531L3.515 2.50531L21.895 20.8853L20.495 22.3053ZM17.885 19.6953L11.885 13.6953H8.215V11.6953H9.885L6.715 8.52531V19.6953H17.885Z" fill="black"/>
</svg>
