<svg width="24" height="24" viewBox="0 0 24 24" fill="none" xmlns="http://www.w3.org/2000/svg">
<path d="M8.805 6C8.805 4.29 10.195 2.9 11.905 2.9C13.615 2.9 15.005 4.29 15.005 6V8H10.345L12.345 10H17.905V15.56L19.905 17.56V10C19.905 8.9 19.005 8 17.905 8H16.905V6C16.905 3.24 14.665 1 11.905 1C9.585 1 7.645 2.59 7.085 4.74L8.805 6.46V6ZM4.315 4.81L2.905 6.22L4.945 8.26C4.325 8.6 3.905 9.25 3.905 10V20C3.905 21.1 4.805 22 5.905 22H18.685L19.685 23L21.095 21.59L4.315 4.81ZM5.905 20V10H6.685L16.685 20H5.905Z" fill="black"/>
</svg>
