<svg width="24" height="24" viewBox="0 0 24 24" fill="none" xmlns="http://www.w3.org/2000/svg">
<g clip-path="url(#clip0_2048_12204)">
<path d="M1.16 20.8438H16.17V21.8237C16.17 22.3837 15.72 22.8337 15.16 22.8337H2.17C1.61 22.8337 1.16 22.3837 1.16 21.8237V20.8438ZM20.65 23.1537L16.16 18.6737V18.8438H1.16V16.8438H14.33L12.33 14.8438H1.16C1.16 11.6038 3.62 9.67375 6.54 9.05375L0.839996 3.35375L2.26 1.94375L22.06 21.7437L20.65 23.1537ZM10.33 12.8438L8.33 10.8438C6.91 10.9038 4.81 11.4037 3.78 12.8438H10.33ZM23.16 4.84375H18.16V0.84375H16.16V4.84375H11.16L11.39 6.84375H20.95L19.95 16.8137L21.78 18.6437L23.16 4.84375Z" fill="black"/>
</g>
<defs>
<clipPath id="clip0_2048_12204">
<rect width="24" height="24" fill="white"/>
</clipPath>
</defs>
</svg>
