<svg width="24" height="24" viewBox="0 0 24 24" fill="none" xmlns="http://www.w3.org/2000/svg">
<path d="M21.055 4.93984H22.655L19.655 10.3398V6.33984H18.655V1.33984H22.655L21.055 4.93984ZM16.655 10.7398V12.5098L18.655 14.5098V10.3398C18.655 9.45984 17.935 8.73984 17.055 8.73984H14.515L13.235 7.33984H11.485L14.885 10.7398H16.655ZM2.755 1.43984L1.345 2.84984L7.005 8.50984L6.795 8.73984H4.255C3.375 8.73984 2.655 9.45984 2.655 10.3398V19.7398C2.655 20.6198 3.375 21.3398 4.255 21.3398H17.055C17.805 21.3398 18.435 20.8198 18.605 20.1198L21.145 22.6598L22.555 21.2498L2.755 1.43984ZM12.155 14.8398C12.155 15.6698 11.485 16.3398 10.655 16.3398C9.825 16.3398 9.155 15.6698 9.155 14.8398C9.155 14.0098 9.825 13.3398 10.655 13.3398C11.485 13.3398 12.155 14.0098 12.155 14.8398ZM16.615 19.3398H4.655V10.7398H7.675L8.265 10.0898L8.415 9.92984L9.915 11.4298C8.335 11.7698 7.155 13.1598 7.155 14.8398C7.155 16.7698 8.725 18.3398 10.655 18.3398C12.335 18.3398 13.725 17.1598 14.075 15.5798L16.625 18.1298L16.615 19.3398Z" fill="black"/>
</svg>
