<svg width="24" height="24" viewBox="0 0 24 24" fill="none" xmlns="http://www.w3.org/2000/svg">
<path d="M8.30501 19.2916C8.30501 20.3916 7.40501 21.2916 6.30501 21.2916C5.20501 21.2916 4.30501 20.3916 4.30501 19.2916C4.30501 18.1916 5.20501 17.2916 6.30501 17.2916C7.40501 17.2916 8.30501 18.1916 8.30501 19.2916ZM15.305 7.95156V11.4616L17.305 13.4616V5.56156C17.885 4.88156 18.275 4.29156 18.955 4.29156C19.725 4.29156 20.305 4.95156 20.305 5.77156V6.29156H22.305V5.77156C22.305 3.85156 20.825 2.29156 18.955 2.29156C17.295 2.29156 16.415 3.56156 15.775 4.32156L12.275 8.43156L13.695 9.85156L15.305 7.95156ZM20.085 21.9016L18.175 19.9916C17.885 20.7516 17.165 21.2916 16.305 21.2916C15.205 21.2916 14.305 20.3916 14.305 19.2916C14.305 18.4316 14.845 17.7116 15.605 17.4216L14.475 16.2916H7.73501C6.88501 16.2916 6.42501 15.2916 6.97501 14.6416L9.66501 11.4816L1.69501 3.51156L3.10501 2.10156L21.495 20.4916L20.085 21.9016ZM12.475 14.2916L11.085 12.9016L9.90501 14.2916H12.475ZM10.305 4.29156C10.595 4.29156 10.885 4.31156 11.165 4.34156L9.79501 5.96156L11.215 7.38156L14.605 3.39156C13.335 2.69156 11.865 2.29156 10.305 2.29156C9.07501 2.29156 7.90501 2.54156 6.83501 2.99156L8.40501 4.56156C9.01501 4.39156 9.65501 4.29156 10.305 4.29156Z" fill="black"/>
</svg>
