<svg width="24" height="24" viewBox="0 0 24 24" fill="none" xmlns="http://www.w3.org/2000/svg">
<g clip-path="url(#clip0_2048_12320)">
<path d="M23.705 16.8017C20.655 13.9117 16.535 12.1317 11.995 12.1317C7.455 12.1317 3.335 13.9117 0.284995 16.8017C0.104995 16.9817 -0.00500488 17.2317 -0.00500488 17.5117C-0.00500488 17.7917 0.104995 18.0417 0.284995 18.2217L2.765 20.7017C2.945 20.8817 3.195 20.9917 3.475 20.9917C3.745 20.9917 3.99499 20.8817 4.17499 20.7117C4.96499 19.9717 5.865 19.3517 6.835 18.8617C7.165 18.7017 7.395 18.3617 7.395 17.9617V14.8617C8.845 14.3817 10.395 14.1317 11.995 14.1317C13.595 14.1317 15.145 14.3817 16.595 14.8517V17.9517C16.595 18.3417 16.825 18.6917 17.155 18.8517C18.135 19.3417 19.025 19.9717 19.825 20.7017C20.005 20.8817 20.255 20.9817 20.525 20.9817C20.805 20.9817 21.055 20.8717 21.235 20.6917L23.715 18.2117C23.895 18.0317 24.005 17.7817 24.005 17.5017C24.005 17.2217 23.885 16.9817 23.705 16.8017ZM5.395 17.3617C4.735 17.7317 4.105 18.1617 3.525 18.6317L2.455 17.5617C3.365 16.8117 4.35499 16.1717 5.40499 15.6617V17.3617H5.395ZM20.475 18.6217C19.875 18.1417 19.255 17.7217 18.595 17.3517V15.6517C19.645 16.1617 20.625 16.8017 21.545 17.5517L20.475 18.6217ZM6.995 6.56172L11.935 11.5017L19.005 4.43172L17.595 3.01172L11.935 8.67172L8.39499 5.13172H10.995V3.13172H4.995V9.13172H6.995V6.56172Z" fill="black"/>
</g>
<defs>
<clipPath id="clip0_2048_12320">
<rect width="24" height="24" fill="white"/>
</clipPath>
</defs>
</svg>
