<svg width="24" height="24" viewBox="0 0 24 24" fill="none" xmlns="http://www.w3.org/2000/svg">
<path d="M10.215 2.50391H8.215V4.38391L10.215 6.38391V2.50391ZM16.215 8.50391V12.3839L18.015 14.1839L18.215 13.9839V8.50391C18.215 7.40391 17.315 6.50391 16.215 6.50391V2.50391H14.215V6.50391H10.335L12.335 8.50391H16.215ZM4.335 3.34391L2.925 4.75391L6.215 8.04391V14.0039L9.715 17.5039V20.5039H14.715V17.5039L15.195 17.0239L19.665 21.4939L21.075 20.0839L4.335 3.34391ZM12.715 16.6739V18.5039H11.715V16.6739L8.215 13.1539V10.0439L13.785 15.6139L12.715 16.6739Z" fill="black"/>
</svg>
