<svg width="24" height="24" viewBox="0 0 24 24" fill="none" xmlns="http://www.w3.org/2000/svg">
<path d="M20.5 12.5266H22V15.5266H20.5V12.5266ZM18 12.5266H19.5V15.5266H18V12.5266ZM17 12.5266H14.66L17 14.8666V12.5266ZM14.5 8.17656H16.03C17.08 8.17656 18 8.91656 18 10.2266V11.5266H19.5V9.88656C19.5 8.07656 17.9 6.72656 16.03 6.72656H14.5C13.48 6.72656 12.65 5.74656 12.65 4.72656C12.65 3.70656 13.48 2.97656 14.5 2.97656V1.47656C12.65 1.47656 11.15 2.97656 11.15 4.82656C11.15 6.67656 12.65 8.17656 14.5 8.17656ZM18.85 4.25656C19.47 3.64656 19.85 2.80656 19.85 1.87656H18.35C18.35 2.89656 17.52 3.72656 16.5 3.72656V5.22656C18.74 5.22656 20.5 7.05656 20.5 9.29656V11.5266H22V9.28656C22 7.06656 20.72 5.14656 18.85 4.25656ZM3.41 4.11656L2 5.52656L9 12.5266H2V15.5266H12L19 22.5266L20.41 21.1166L3.41 4.11656Z" fill="black"/>
</svg>
