<svg width="24" height="24" viewBox="0 0 24 24" fill="none" xmlns="http://www.w3.org/2000/svg">
<path d="M15 19.4917H8V12.8617C9.26 12.5217 10.11 11.5917 10.77 10.8717C11.6 9.96172 12.08 9.49172 13 9.49172H15V19.4917ZM10 2.51172C8.11 2.51172 6.49 3.62172 5.73 5.22172C4.15 5.75172 3 7.23172 3 8.99172C3 10.8517 4.28 12.4017 6 12.8517V21.4917H17V19.4917H19C20.1 19.4917 21 18.5917 21 17.4917V11.4917C21 10.3917 20.1 9.49172 19 9.49172H17.44C17.79 8.90172 18 8.22172 18 7.49172C18 5.28172 16.21 3.49172 14 3.49172C13.66 3.49172 13.34 3.54172 13.02 3.62172C12.2 2.94172 11.16 2.51172 10 2.51172ZM7 10.9917C5.9 10.9917 5 10.0917 5 8.99172C5 8.14172 5.55 7.39172 6.37 7.11172L7.17 6.84172L7.53 6.08172C8 5.11172 8.94 4.51172 10 4.51172C10.79 4.51172 11.39 4.86172 11.74 5.16172L12.52 5.81172C12.52 5.81172 13.16 5.49172 13.99 5.49172C15.09 5.49172 15.99 6.39172 15.99 7.49172H12.99C9.67 7.49172 9.15 10.9917 7 10.9917ZM17 17.4917V11.4917H19V17.4917H17Z" fill="black"/>
</svg>
