<svg width="24" height="24" viewBox="0 0 24 24" fill="none" xmlns="http://www.w3.org/2000/svg">
<path d="M15.9857 6.01562H13.9857V4.01562H15.9857V6.01562ZM17.9857 7.01562H15.9857V9.01562H17.9857V7.01562ZM18.9857 9.01562H20.9857V7.01562H18.9857V9.01562ZM18.9857 4.01562H16.9857V6.01562H18.9857V4.01562ZM14.9857 7.01562H12.9857V9.01562H14.9857V7.01562ZM18.9857 10.0156H16.9857V12.0156H18.9857V10.0156ZM15.9857 10.0156H13.9857V12.0156H15.9857V10.0156ZM12.9857 4.01562H10.9857V6.01562H12.9857V4.01562ZM19.9857 15.8356V19.9856C19.9857 20.5456 19.5157 21.0156 18.9557 20.9856C16.0657 20.8156 13.3557 19.9556 10.9857 18.5856C8.25567 17.0056 5.99567 14.7456 4.41567 12.0156C3.03567 9.64563 2.18567 6.93563 2.01567 4.04563C1.98567 3.48563 2.45567 3.01562 3.01567 3.01562H7.16567C7.64567 3.01562 8.05567 3.35562 8.14567 3.81562L8.88567 7.49563C8.95567 7.82562 8.84567 8.16563 8.61567 8.39563L6.08567 10.9156C7.51567 13.4156 9.58567 15.4856 12.0857 16.9156L14.6057 14.3956C14.8457 14.1556 15.1857 14.0556 15.5057 14.1256L19.1757 14.8556C19.6457 14.9456 19.9857 15.3556 19.9857 15.8356ZM5.16567 9.00562L6.81567 7.35563L6.34567 5.01562H4.11567C4.28567 6.38562 4.64567 7.72563 5.16567 9.00562ZM17.9857 16.6556L15.6457 16.1856L13.9957 17.8356C15.2757 18.3556 16.6257 18.7056 17.9857 18.8856V16.6556ZM19.9857 4.01562V6.01562H21.9857V4.01562H19.9857ZM19.9857 12.0156H21.9857V10.0156H19.9857V12.0156ZM12.9857 10.0156H10.9857V12.0156H12.9857V10.0156Z" fill="black"/>
</svg>
