<svg width="24" height="24" viewBox="0 0 24 24" fill="none" xmlns="http://www.w3.org/2000/svg">
<path d="M2.30501 16.1992H3.30501C4.63501 16.1992 6.01501 16.0192 7.30501 15.6992V18.6992C6.01501 18.3792 4.63501 18.1992 3.30501 18.1992H2.30501V16.1992ZM16.475 18.6992H8.30501V15.6992H13.475L1.69501 3.91922L3.10501 2.50922L21.485 20.8892L20.075 22.2992L16.475 18.6992ZM19.135 15.6992H22.305V18.6992H22.135L19.135 15.6992ZM11.305 17.1992C11.305 16.9192 11.085 16.6992 10.805 16.6992C10.525 16.6992 10.305 16.9192 10.305 17.1992C10.305 17.4792 10.525 17.6992 10.805 17.6992C11.085 17.6992 11.305 17.4792 11.305 17.1992ZM22.305 12.4592V14.6992H20.805V12.4692C20.805 10.2292 19.045 8.39922 16.805 8.39922V6.89922C17.825 6.89922 18.655 6.06922 18.655 5.04922C18.655 4.02922 17.825 3.19922 16.805 3.19922V1.69922C18.655 1.69922 20.155 3.19922 20.155 5.04922C20.155 5.97922 19.775 6.81922 19.155 7.42922C21.025 8.31922 22.305 10.2392 22.305 12.4592ZM11.455 8.01922C11.455 8.00922 11.455 8.00922 11.455 7.99922C11.455 6.14922 12.955 4.64922 14.805 4.64922V6.14922C13.785 6.14922 12.955 6.87922 12.955 7.89922C12.955 8.91922 13.785 9.89922 14.805 9.89922H16.335C18.205 9.89922 19.805 11.2492 19.805 13.0592V14.6992H18.305V13.3992C18.305 12.0892 17.385 11.3492 16.335 11.3492H14.805C14.795 11.3492 14.795 11.3492 14.785 11.3492L11.455 8.01922Z" fill="black"/>
</svg>
