<svg width="24" height="24" viewBox="0 0 24 24" fill="none" xmlns="http://www.w3.org/2000/svg">
<path d="M3.705 4C3.705 2.89 4.595 2 5.705 2C6.815 2 7.705 2.89 7.705 4C7.705 5.11 6.815 6 5.705 6C4.595 6 3.705 5.11 3.705 4ZM9.205 10.95V9C9.205 7.9 8.305 7 7.205 7H4.205C3.105 7 2.205 7.9 2.205 9V15H4.205V22H7.705V21.89C6.465 20.63 5.705 18.9 5.705 17C5.705 14.42 7.115 12.16 9.205 10.95ZM15.705 17C15.705 18.65 14.355 20 12.705 20C11.055 20 9.705 18.65 9.705 17C9.705 15.89 10.315 14.94 11.205 14.42V12.26C9.185 12.9 7.705 14.77 7.705 17C7.705 19.76 9.945 22 12.705 22C15.465 22 17.705 19.76 17.705 17H15.705ZM18.745 14H14.205V8H12.205V16H17.665L20.135 19.71L21.795 18.6L18.745 14Z" fill="black"/>
</svg>
