<svg width="24" height="24" viewBox="0 0 24 24" fill="none" xmlns="http://www.w3.org/2000/svg">
<path d="M12.71 3.34375C16.58 3.34375 19.71 6.47375 19.71 10.3438V11.3438H15.71V11.5138L17.54 13.3438H19.71V15.5138L21.71 17.5138V10.3438C21.71 5.37375 17.68 1.34375 12.71 1.34375C10.69 1.34375 8.83002 2.01375 7.33002 3.14375L8.76002 4.57375C9.88002 3.79375 11.24 3.34375 12.71 3.34375Z" fill="black"/>
<path d="M2.81002 1.44375L1.40002 2.85375L4.73002 6.18375C4.08002 7.43375 3.71002 8.84375 3.71002 10.3438V17.3438C3.71002 18.4438 4.61002 19.3438 5.71002 19.3438H9.71002V11.3438H5.71002V10.3438C5.71002 9.40375 5.90002 8.51375 6.23002 7.69375L15.71 17.1737V19.3438H17.88L18.88 20.3438H12.71V22.3438H19.71C20.05 22.3438 20.36 22.2537 20.64 22.1038L21.19 22.6537L22.6 21.2437L2.81002 1.44375ZM7.71002 13.3438V17.3438H5.71002V13.3438H7.71002Z" fill="black"/>
</svg>
