<svg width="24" height="24" viewBox="0 0 24 24" fill="none" xmlns="http://www.w3.org/2000/svg">
<path d="M22 6.06812V4.06813H7.39L9.39 6.06812H22ZM24 19.0681V9.06812C24 8.51812 23.55 8.06812 23 8.06812H17C16.45 8.06812 16 8.51812 16 9.06812V12.6781L18 14.6781V10.0681H22V17.0681H20.39L23.32 19.9981C23.71 19.8681 24 19.5081 24 19.0681ZM2.06 1.57812L0.65 2.98813L2.47 4.80812C2.18 5.14812 2 5.58812 2 6.06812V17.0681H0V20.0681H17.73L20.08 22.4181L21.49 21.0081L2.06 1.57812ZM4 17.0681V6.33813L14.73 17.0681H4Z" fill="black"/>
</svg>
