<svg width="24" height="24" viewBox="0 0 24 24" fill="none" xmlns="http://www.w3.org/2000/svg">
<path d="M17.805 8.29156C18.635 8.29156 19.305 8.96156 19.305 9.79156C19.305 10.6216 18.635 11.2916 17.805 11.2916C16.975 11.2916 16.305 10.6216 16.305 9.79156C16.305 8.96156 16.975 8.29156 17.805 8.29156ZM11.135 7.29156H20.305V15.2916H19.135L21.005 17.1616C21.755 16.8716 22.305 16.1416 22.305 15.2916V7.29156C22.305 6.19156 21.405 5.29156 20.305 5.29156H9.13501L11.135 7.29156ZM20.085 21.9016L15.475 17.2916H4.30501C3.20501 17.2916 2.30501 16.3916 2.30501 15.2916V7.29156C2.30501 6.44156 2.85501 5.71156 3.60501 5.42156L1.69501 3.51156L3.10501 2.10156L21.485 20.4816L20.085 21.9016ZM13.475 15.2916L10.475 12.2916H9.30501V14.2916H7.30501V12.2916H5.30501V10.2916H7.30501V9.12156L5.47501 7.29156H4.30501V15.2916H13.475Z" fill="black"/>
</svg>
