<svg width="24" height="24" viewBox="0 0 24 24" fill="none" xmlns="http://www.w3.org/2000/svg">
<path d="M19.055 3.53344C17.385 2.14344 15.315 1.23344 13.025 1.02344V3.03344C14.755 3.22344 16.335 3.91344 17.635 4.95344L19.055 3.53344Z" fill="black"/>
<path d="M11.025 3.03344V1.02344C8.73502 1.22344 6.66502 2.14344 4.99502 3.53344L6.41502 4.95344C7.71502 3.91344 9.29502 3.22344 11.025 3.03344Z" fill="black"/>
<path d="M5.00502 6.36344L3.58502 4.94344C2.19502 6.61344 1.28502 8.68344 1.07502 10.9734H3.08502C3.27502 9.24344 3.96502 7.66344 5.00502 6.36344Z" fill="black"/>
<path d="M20.965 10.9734H22.975C22.765 8.68344 21.855 6.61344 20.465 4.94344L19.045 6.36344C20.085 7.66344 20.775 9.24344 20.965 10.9734Z" fill="black"/>
<path d="M7.02502 11.9734L10.465 13.5334L12.025 16.9734L13.585 13.5334L17.025 11.9734L13.585 10.4134L12.025 6.97344L10.465 10.4134L7.02502 11.9734Z" fill="black"/>
<path d="M12.025 20.9734C8.91502 20.9734 6.17502 19.3834 4.56502 16.9734H7.02502V14.9734H1.02502V20.9734H3.02502V18.2734C5.01502 21.1134 8.29502 22.9734 12.025 22.9734C16.895 22.9734 21.025 19.8034 22.465 15.4134L20.505 14.9634C19.275 18.4534 15.945 20.9734 12.025 20.9734Z" fill="black"/>
</svg>
