<svg width="24" height="24" viewBox="0 0 24 24" fill="none" xmlns="http://www.w3.org/2000/svg">
<path d="M18.305 7.69922C17.245 7.69922 16.665 7.98922 14.395 8.88922C14.205 8.74922 13.995 8.61922 13.775 8.51922C14.025 7.48922 14.385 6.98922 15.105 6.47922C15.915 5.90922 16.305 5.13922 16.305 4.19922C16.305 2.97922 15.355 1.69922 13.705 1.69922C10.625 1.69922 8.78501 3.16922 8.38501 4.95922L10.715 7.28922C10.375 6.38922 10.305 6.07922 10.305 5.69922C10.305 4.51922 11.705 3.69922 13.705 3.69922C14.275 3.69922 14.305 4.11922 14.305 4.19922C14.305 4.46922 14.255 4.62922 13.955 4.84922C12.685 5.74922 12.125 6.75922 11.795 8.23922L11.775 8.33922L19.025 15.5892C19.265 15.6492 19.525 15.6992 19.805 15.6992C21.025 15.6992 22.305 14.7492 22.305 13.0992C22.305 9.60922 20.415 7.69922 18.305 7.69922ZM19.805 13.6992C19.535 13.6992 19.375 13.6492 19.155 13.3492C18.255 12.0792 17.245 11.5192 15.765 11.1892C15.735 10.9692 15.685 10.7692 15.615 10.5692C17.415 9.81922 17.795 9.69922 18.305 9.69922C19.485 9.69922 20.305 11.0992 20.305 13.0992C20.305 13.6692 19.885 13.6992 19.805 13.6992Z" fill="black"/>
<path d="M1.69501 3.91922L5.58501 7.80922C5.34501 7.74922 5.08501 7.69922 4.80501 7.69922C3.58501 7.69922 2.30501 8.64922 2.30501 10.2992C2.30501 13.7892 4.19501 15.6992 6.30501 15.6992C7.36501 15.6992 7.94501 15.4092 10.215 14.5092C10.405 14.6492 10.615 14.7792 10.835 14.8792C10.585 15.9092 10.225 16.4092 9.50501 16.9192C8.69501 17.4892 8.30501 18.2592 8.30501 19.1992C8.30501 20.4192 9.25501 21.6992 10.905 21.6992C13.985 21.6992 15.825 20.2292 16.225 18.4392L20.085 22.2992L21.495 20.8892L3.11501 2.50922L1.69501 3.91922ZM12.825 15.1592C12.855 15.1592 12.885 15.1392 12.915 15.1392L13.885 16.1092C14.235 17.0092 14.305 17.3192 14.305 17.6992C14.305 18.8792 12.905 19.6992 10.905 19.6992C10.335 19.6992 10.305 19.2792 10.305 19.1992C10.305 18.9292 10.355 18.7692 10.655 18.5492C11.935 17.6592 12.485 16.6392 12.825 15.1592ZM8.84501 12.2192C8.87501 12.4392 8.92501 12.6392 8.99501 12.8392C7.19501 13.5792 6.81501 13.6992 6.30501 13.6992C5.12501 13.6992 4.30501 12.2992 4.30501 10.2992C4.30501 9.72922 4.72501 9.69922 4.80501 9.69922C5.07501 9.69922 5.23501 9.74922 5.45501 10.0492C6.34501 11.3292 7.36501 11.8792 8.84501 12.2192Z" fill="black"/>
</svg>
