<svg width="24" height="24" viewBox="0 0 24 24" fill="none" xmlns="http://www.w3.org/2000/svg">
<g clip-path="url(#clip0_2048_12851)">
<path d="M12 11.0019C13.66 11.0019 15 9.66187 15 8.00187C15 6.34188 13.66 5.00187 12 5.00187C10.34 5.00187 8.99998 6.34188 8.99998 8.00187C8.99998 9.66187 10.34 11.0019 12 11.0019ZM12 7.00187C12.55 7.00187 13 7.45187 13 8.00187C13 8.55188 12.55 9.00187 12 9.00187C11.45 9.00187 11 8.55188 11 8.00187C11 7.45187 11.45 7.00187 12 7.00187Z" fill="black"/>
<path d="M12 12.0019C10.16 12.0019 8.43998 12.5019 6.96998 13.3719C6.35998 13.7219 5.99998 14.3919 5.99998 15.0919V17.0019H18V15.0919C18 14.3919 17.64 13.7319 17.03 13.3719C15.56 12.5019 13.84 12.0019 12 12.0019ZM8.13998 15.0019C9.31998 14.3519 10.65 14.0019 12 14.0019C13.35 14.0019 14.68 14.3519 15.85 15.0019H8.13998Z" fill="black"/>
<path d="M21.23 8.15187L23.08 7.38188C21.86 4.47187 19.53 2.13188 16.62 0.921875L15.85 2.77187C18.27 3.79187 20.21 5.73187 21.23 8.15187Z" fill="black"/>
<path d="M8.14998 2.77187L7.37998 0.921875C4.46998 2.14188 2.13998 4.47187 0.919983 7.38188L2.76998 8.15187C3.78998 5.73187 5.72998 3.79187 8.14998 2.77187Z" fill="black"/>
<path d="M2.76998 15.8519L0.919983 16.6219C2.13998 19.5319 4.46998 21.8719 7.37998 23.0819L8.14998 21.2319C5.72998 20.2119 3.78998 18.2719 2.76998 15.8519Z" fill="black"/>
<path d="M15.85 21.2319L16.62 23.0819C19.53 21.8619 21.87 19.5319 23.08 16.6219L21.23 15.8519C20.21 18.2719 18.27 20.2119 15.85 21.2319Z" fill="black"/>
</g>
<defs>
<clipPath id="clip0_2048_12851">
<rect width="24" height="24" fill="white"/>
</clipPath>
</defs>
</svg>
