<svg width="24" height="24" viewBox="0 0 24 24" fill="none" xmlns="http://www.w3.org/2000/svg">
<path fill-rule="evenodd" clip-rule="evenodd" d="M2.0369 11.2928C8.23838 8.59095 12.3737 6.8097 14.4428 5.94909C20.3505 3.49187 21.5781 3.06503 22.3782 3.05093C22.5542 3.04783 22.9476 3.09144 23.2025 3.29826C23.4177 3.47289 23.4769 3.70879 23.5053 3.87435C23.5336 4.03992 23.5689 4.41709 23.5408 4.7118C23.2207 8.07554 21.8355 16.2385 21.1307 20.0059C20.8325 21.6001 20.2454 22.1346 19.6769 22.1869C18.4416 22.3006 17.5035 21.3705 16.307 20.5862C14.4347 19.3588 13.377 18.5948 11.5596 17.3972C9.45927 16.0131 10.8208 15.2524 12.0178 14.0092C12.331 13.6839 17.774 8.73304 17.8794 8.28392C17.8926 8.22775 17.9048 8.01838 17.7804 7.90782C17.656 7.79726 17.4724 7.83507 17.34 7.86514C17.1522 7.90776 14.1612 9.88471 8.36691 13.796C7.51793 14.379 6.74894 14.663 6.05995 14.6481C5.3004 14.6317 3.83932 14.2187 2.75317 13.8656C1.42095 13.4325 0.362128 13.2036 0.454327 12.4681C0.50235 12.0851 1.02987 11.6933 2.0369 11.2928Z" fill="url(#paint0_linear_952_1511)"/>
<defs>
<linearGradient id="paint0_linear_952_1511" x1="11.9999" y1="3.05078" x2="11.9999" y2="22.0544" gradientUnits="userSpaceOnUse">
<stop stop-color="#2AABEE"/>
<stop offset="1" stop-color="#229ED9"/>
</linearGradient>
</defs>
</svg>
