<svg width="24" height="24" viewBox="0 0 24 24" fill="none" xmlns="http://www.w3.org/2000/svg">
<path d="M2.22166 11.7574L2.22918 11.7545L2.23661 11.7512C8.43875 9.04905 12.5702 7.26948 14.6348 6.41075C17.5905 5.18138 19.3637 4.46489 20.4964 4.05385C21.6377 3.63969 22.0768 3.55632 22.387 3.55085C22.4356 3.55 22.5358 3.5562 22.6446 3.58219C22.7565 3.60894 22.8395 3.64757 22.8875 3.68652C22.9567 3.7427 22.9894 3.82432 23.0124 3.9587C23.0359 4.09576 23.0657 4.42657 23.0431 4.66442C22.7254 8.00271 21.3443 16.1448 20.6392 19.914C20.35 21.4605 19.8412 21.6697 19.6311 21.689C19.1609 21.7323 18.7255 21.5829 18.2306 21.2922C17.9818 21.146 17.7292 20.9709 17.4542 20.7755C17.4094 20.7437 17.3639 20.7113 17.3179 20.6785C17.0862 20.5133 16.8391 20.3371 16.5811 20.168C15.6488 19.5569 14.9194 19.0611 14.1941 18.5673L14.0978 18.5017C13.4045 18.0295 12.7066 17.5543 11.8347 16.9797C11.3357 16.6509 11.1107 16.401 11.02 16.2273C10.9482 16.0898 10.9509 15.9862 11.0101 15.8512C11.0843 15.6821 11.2434 15.4826 11.5025 15.2189C11.6139 15.1055 11.7343 14.9895 11.8648 14.8637C11.8815 14.8476 11.8984 14.8313 11.9154 14.8148C12.0634 14.6721 12.2214 14.5186 12.378 14.356C12.4456 14.2857 12.7844 13.9709 13.2709 13.5188C13.8358 12.9937 14.6 12.2836 15.3698 11.5565C16.0772 10.8884 16.7818 10.213 17.3175 9.67498C17.5846 9.40664 17.8147 9.1675 17.9834 8.97821C18.0671 8.88422 18.1418 8.79588 18.1997 8.71854C18.2286 8.68006 18.2582 8.63778 18.284 8.59434C18.3049 8.55924 18.3451 8.48795 18.3662 8.39811C18.388 8.30496 18.3956 8.17479 18.3761 8.04298C18.3566 7.91149 18.298 7.69893 18.1126 7.53411C17.929 7.37097 17.7174 7.33494 17.5671 7.33376C17.4268 7.33266 17.2978 7.36198 17.2332 7.37665L17.2293 7.37754C17.1459 7.39646 17.0678 7.43805 17.042 7.45177C17.0406 7.45251 17.0394 7.45316 17.0383 7.45373C16.9943 7.47698 16.9418 7.50697 16.8834 7.54157C16.7656 7.61133 16.6055 7.71061 16.4054 7.83776C16.0042 8.09267 15.4286 8.46799 14.6802 8.96269C13.1826 9.95254 10.9846 11.4257 8.08717 13.3816L8.08716 13.3815L8.08388 13.3838C7.2808 13.9353 6.61482 14.16 6.07075 14.1482C5.75168 14.1413 5.24369 14.0468 4.65065 13.8981C4.06922 13.7523 3.44396 13.5644 2.90773 13.3901C2.73015 13.3324 2.56325 13.2798 2.40687 13.2306C1.94247 13.0844 1.57083 12.9675 1.28756 12.8303C1.10436 12.7415 1.01489 12.6692 0.975128 12.6203C0.951292 12.591 0.944924 12.5743 0.950444 12.5303C0.95034 12.5312 0.950278 12.5316 0.950314 12.5316C0.950838 12.5317 0.971975 12.4459 1.1841 12.2884C1.39779 12.1297 1.73603 11.9506 2.22166 11.7574Z" stroke="#0C0C0C"/>
</svg>
