<svg width="24" height="24" viewBox="0 0 24 24" fill="none" xmlns="http://www.w3.org/2000/svg">
<path d="M15.4 17.0016L16.7 21.4016H15.6L13 17.0016H10C9.45 17.0016 9 16.5516 9 16.0016C9 15.4516 9.45 15.0016 10 15.0016H13L15.6 10.6016H16.7L15.4 15.0016H18.25L19 14.0016H20L19.4 16.0016L20 18.0016H19L18.25 17.0016H15.4ZM5.75 7.00156L5 6.00156H4L4.6 8.00156L4 10.0016H5L5.75 9.00156H8.6L7.3 13.4016H8.4L11 9.00156H14C14.55 9.00156 15 8.55156 15 8.00156C15 7.45156 14.55 7.00156 14 7.00156H11L8.4 2.60156H7.3L8.6 7.00156H5.75Z" fill="black"/>
</svg>
