<svg width="24" height="24" viewBox="0 0 24 24" fill="none" xmlns="http://www.w3.org/2000/svg">
<path d="M20.8387 7.39969C21.2287 7.00969 21.2287 6.37969 20.8387 5.98969L18.0087 3.15969C17.6187 2.76969 16.9887 2.76969 16.5987 3.15969L12.1087 7.64969L8.21874 3.75969C7.43874 2.97969 6.16874 2.97969 5.38874 3.75969L3.48874 5.65969C2.70874 6.43969 2.70874 7.70969 3.48874 8.48969L7.37874 12.3797L2.86874 16.8897V21.1297H7.10874L11.6287 16.6097L15.5187 20.4997C16.4687 21.4497 17.7487 21.0997 18.3487 20.4997L20.2487 18.5997C21.0287 17.8197 21.0287 16.5497 20.2487 15.7697L16.3587 11.8797L20.8387 7.39969ZM4.90874 7.06969L6.79874 5.16969L8.06874 6.43969L6.88874 7.62969L8.29874 9.03969L9.48874 7.84969L10.6887 9.04969L8.78874 10.9497L4.90874 7.06969ZM16.1387 14.5097L14.9487 15.6997L16.3587 17.1097L17.5487 15.9197L18.8187 17.1897L16.9187 19.0897L13.0287 15.1997L14.9287 13.2997L16.1387 14.5097ZM6.27874 19.1297H4.86874V17.7197L14.4787 8.10969L15.8887 9.51969L6.27874 19.1297ZM15.8887 6.68969L17.2987 5.27969L18.7087 6.68969L17.2987 8.09969L15.8887 6.68969Z" fill="black"/>
</svg>
