<svg width="24" height="24" viewBox="0 0 24 24" fill="none" xmlns="http://www.w3.org/2000/svg">
<path d="M22.4275 10.5919L13.4175 1.58188C12.6675 0.831881 11.3475 0.821881 10.5875 1.58188L1.58746 10.5819C0.807457 11.3619 0.807457 12.6219 1.58746 13.4019L10.5875 22.4019C10.9775 22.7919 11.4875 22.9819 11.9975 22.9819C12.5075 22.9819 13.0175 22.7919 13.4075 22.4019L22.3975 13.4119C23.1875 12.6519 23.1975 11.3919 22.4275 10.5919ZM12.0075 20.9919L3.00746 11.9919L12.0075 2.99188L21.0075 11.9919L12.0075 20.9919ZM7.99746 11.0019V15.0019H9.99746V12.0019H13.9975V14.5019L17.4975 11.0019L13.9975 7.50188V10.0019H8.99746C8.44746 10.0019 7.99746 10.4519 7.99746 11.0019Z" fill="black"/>
</svg>
