<svg width="24" height="24" viewBox="0 0 24 24" fill="none" xmlns="http://www.w3.org/2000/svg">
<path d="M19.56 11.3621L13 8.44213V7.00213C13 6.45213 12.55 6.00213 12 6.00213C11.45 6.00213 11 5.55213 11 5.00213C11 4.45213 11.45 4.00213 12 4.00213C12.55 4.00213 13 4.45213 13 5.00213H15C15 3.16213 13.34 1.70213 11.44 2.05213C10.26 2.27213 9.29 3.22213 9.06 4.40213C8.76 5.96213 9.66 7.34213 11 7.82213V8.45213L4.44 11.3721C3.56 11.7521 3 12.6221 3 13.5721V13.5821C3 14.9221 4.08 16.0021 5.42 16.0021H7V22.0021H17V16.0021H18.58C19.92 16.0021 21 14.9221 21 13.5821V13.5721C21 12.6221 20.44 11.7521 19.56 11.3621ZM15 20.0021H9V15.0021H15V20.0021ZM18.58 14.0021H17V13.0021H7V14.0021H5.42C4.96 14.0021 4.84 13.3521 5.25 13.1921L12 10.1921L18.75 13.1921C19.17 13.3821 19.03 14.0021 18.58 14.0021Z" fill="black"/>
</svg>
