<svg width="24" height="24" viewBox="0 0 24 24" fill="none" xmlns="http://www.w3.org/2000/svg">
<path d="M17.6687 5.40286L16.5987 4.33286L11.0487 9.88286V10.9629H12.1287L17.6687 5.40286ZM16.7887 1.94286C16.9273 1.80257 17.0924 1.69119 17.2744 1.61517C17.4563 1.53915 17.6515 1.5 17.8487 1.5C18.0459 1.5 18.2412 1.53915 18.4231 1.61517C18.6051 1.69119 18.7702 1.80257 18.9087 1.94286L20.0587 3.09286C20.6487 3.68286 20.6487 4.63286 20.0587 5.21286L12.7787 12.4929H9.49875V9.23286L16.7887 1.94286ZM13.2187 2.68286L11.3987 4.50286C8.09875 4.55286 5.49875 7.10286 5.49875 10.7029C5.49875 13.0429 7.44875 16.1429 11.4987 19.8429C15.5487 16.1429 17.4987 13.0529 17.4987 10.7029V10.6029L19.2987 8.80286C19.4287 9.40286 19.4987 10.0429 19.4987 10.7029C19.4987 14.0229 16.8287 17.9529 11.4987 22.5029C6.16875 17.9529 3.49875 14.0229 3.49875 10.7029C3.49875 5.72286 7.29875 2.50286 11.4987 2.50286C12.0787 2.50286 12.6587 2.56286 13.2187 2.68286Z" fill="black"/>
</svg>
