<svg width="24" height="24" viewBox="0 0 24 24" fill="none" xmlns="http://www.w3.org/2000/svg">
<path d="M10.4987 11.5025H12.6187L18.7787 5.3425L16.6587 3.2225L10.4987 9.3825V11.5025ZM20.2087 2.5025L19.4987 1.7925C19.1087 1.4025 18.4787 1.4025 18.0887 1.7925L17.3687 2.5125L19.4887 4.6325L20.2087 3.9125C20.5987 3.5225 20.5987 2.8925 20.2087 2.5025ZM17.3987 9.5525C17.4587 9.9125 17.4987 10.2925 17.4987 10.7025C17.4987 12.4125 16.4187 15.3425 11.4987 19.8425C6.57875 15.3525 5.49875 12.4125 5.49875 10.7025C5.49875 6.6725 8.58875 4.5025 11.4987 4.5025C11.8187 4.5025 12.1487 4.5325 12.4687 4.5825L14.1187 2.9325C13.2787 2.6625 12.3987 2.5025 11.4987 2.5025C7.29875 2.5025 3.49875 5.7225 3.49875 10.7025C3.49875 14.0225 6.16875 17.9525 11.4987 22.5025C16.8287 17.9525 19.4987 14.0225 19.4987 10.7025C19.4987 9.6925 19.3387 8.7625 19.0487 7.9025L17.3987 9.5525Z" fill="black"/>
</svg>
