<svg width="24" height="24" viewBox="0 0 24 24" fill="none" xmlns="http://www.w3.org/2000/svg">
<path d="M21.6887 18.67L16.3888 13.37H15.3987L12.8587 15.91V16.9L18.1587 22.2C18.5487 22.59 19.1787 22.59 19.5687 22.2L21.6887 20.08C22.0787 19.7 22.0787 19.06 21.6887 18.67ZM18.8587 20.09L14.6187 15.85L15.3287 15.14L19.5687 19.38L18.8587 20.09Z" fill="black"/>
<path d="M17.3587 10.69L18.7687 9.28L20.8888 11.4C22.0588 10.23 22.0588 8.33 20.8888 7.16L17.3487 3.62L15.9387 5.03V2.21L15.2387 1.5L11.6987 5.04L12.4087 5.75H15.2387L13.8287 7.16L14.8887 8.22L11.9987 11.11L7.86875 6.98V5.56L4.84875 2.54L2.01875 5.37L5.04875 8.4H6.45875L10.5887 12.53L9.73875 13.38H7.61875L2.31875 18.68C1.92875 19.07 1.92875 19.7 2.31875 20.09L4.43875 22.21C4.82875 22.6 5.45875 22.6 5.84875 22.21L11.1487 16.91V14.79L16.2987 9.64L17.3587 10.69ZM9.37875 15.84L5.13875 20.08L4.42875 19.37L8.66875 15.13L9.37875 15.84Z" fill="black"/>
</svg>
