<svg width="24" height="24" viewBox="0 0 24 24" fill="none" xmlns="http://www.w3.org/2000/svg">
<path d="M17 5.09844C17.83 5.09844 18.5 4.42844 18.5 3.59844C18.5 2.59844 17 0.898438 17 0.898438C17 0.898438 15.5 2.59844 15.5 3.59844C15.5 4.42844 16.17 5.09844 17 5.09844ZM12 5.09844C12.83 5.09844 13.5 4.42844 13.5 3.59844C13.5 2.59844 12 0.898438 12 0.898438C12 0.898438 10.5 2.59844 10.5 3.59844C10.5 4.42844 11.17 5.09844 12 5.09844ZM7 5.09844C7.83 5.09844 8.5 4.42844 8.5 3.59844C8.5 2.59844 7 0.898438 7 0.898438C7 0.898438 5.5 2.59844 5.5 3.59844C5.5 4.42844 6.17 5.09844 7 5.09844ZM18.92 8.10844C18.72 7.51844 18.16 7.09844 17.5 7.09844H6.5C5.84 7.09844 5.29 7.51844 5.08 8.10844L3 14.0984V22.0984C3 22.6484 3.45 23.0984 4 23.0984H5C5.55 23.0984 6 22.6484 6 22.0984V21.0984H18V22.0984C18 22.6484 18.45 23.0984 19 23.0984H20C20.55 23.0984 21 22.6484 21 22.0984V14.0984L18.92 8.10844ZM6.85 9.09844H17.14L18.18 12.0984H5.81L6.85 9.09844ZM19 19.0984H5V14.4384L5.12 14.0984H18.89L19 14.4384V19.0984Z" fill="black"/>
<path d="M7.5 18.0984C8.32843 18.0984 9 17.4269 9 16.5984C9 15.77 8.32843 15.0984 7.5 15.0984C6.67157 15.0984 6 15.77 6 16.5984C6 17.4269 6.67157 18.0984 7.5 18.0984Z" fill="black"/>
<path d="M16.5 18.0984C17.3284 18.0984 18 17.4269 18 16.5984C18 15.77 17.3284 15.0984 16.5 15.0984C15.6716 15.0984 15 15.77 15 16.5984C15 17.4269 15.6716 18.0984 16.5 18.0984Z" fill="black"/>
</svg>
