<svg width="24" height="24" viewBox="0 0 24 24" fill="none" xmlns="http://www.w3.org/2000/svg">
<path d="M12 9.22656C14.21 9.22656 16 7.43656 16 5.22656C16 3.01656 14.21 1.22656 12 1.22656C9.79 1.22656 8 3.01656 8 5.22656C8 7.43656 9.79 9.22656 12 9.22656ZM12 3.22656C13.1 3.22656 14 4.12656 14 5.22656C14 6.32656 13.1 7.22656 12 7.22656C10.9 7.22656 10 6.32656 10 5.22656C10 4.12656 10.9 3.22656 12 3.22656ZM12 11.7766C9.64 9.57656 6.48 8.22656 3 8.22656V19.2266C6.48 19.2266 9.64 20.5766 12 22.7766C14.36 20.5866 17.52 19.2266 21 19.2266V8.22656C17.52 8.22656 14.36 9.57656 12 11.7766ZM19 17.3566C16.47 17.6966 14.07 18.6566 12 20.1766C9.94 18.6566 7.53 17.6866 5 17.3466V10.3966C7.1 10.7766 9.05 11.7466 10.64 13.2266L12 14.5066L13.36 13.2366C14.95 11.7566 16.9 10.7866 19 10.4066V17.3566Z" fill="black"/>
</svg>
