<svg width="24" height="24" viewBox="0 0 24 24" fill="none" xmlns="http://www.w3.org/2000/svg">
<path d="M16.705 13.3438V5.34375C16.705 3.58375 18.945 1.34375 21.705 1.34375V17.5138L19.705 15.5138V13.3438H16.705ZM21.195 22.6537L10.725 12.1938C10.395 12.2838 10.065 12.3438 9.70499 12.3438V21.3438H7.70499V12.3438C5.49499 12.3438 3.70499 10.5538 3.70499 8.34375V5.17375L1.39499 2.85375L2.80499 1.44375L22.605 21.2437L21.195 22.6537ZM6.87499 8.34375L5.70499 7.17375V8.34375H6.87499ZM9.70499 1.34375H7.70499V3.51375L9.70499 5.51375V1.34375ZM13.705 8.34375V1.34375H11.705V7.51375L13.555 9.36375C13.645 9.03375 13.705 8.70375 13.705 8.34375Z" fill="black"/>
</svg>
