<svg width="24" height="24" viewBox="0 0 24 24" fill="none" xmlns="http://www.w3.org/2000/svg">
<path d="M9.21501 12.6953C10.045 12.6953 10.715 13.3653 10.715 14.1953C10.715 15.0253 10.045 15.6953 9.21501 15.6953C8.38501 15.6953 7.71501 15.0253 7.71501 14.1953C7.71501 13.3653 8.38501 12.6953 9.21501 12.6953ZM20.495 22.3053L18.855 20.6653C18.805 20.6753 18.765 20.6953 18.715 20.6953H17.715C17.165 20.6953 16.715 20.2453 16.715 19.6953V18.6953H8.71501V19.6953C8.71501 20.2453 8.26501 20.6953 7.71501 20.6953H6.71501C6.16501 20.6953 5.71501 20.2453 5.71501 19.6953V17.9153C5.10501 17.3653 4.71501 16.5753 4.71501 15.6953V6.52531L2.10501 3.91531L3.51501 2.50531L21.895 20.8853L20.495 22.3053ZM6.71501 8.52531V9.69531H7.88501L6.71501 8.52531ZM14.885 16.6953L9.88501 11.6953H6.71501V15.6953C6.71501 16.0653 6.92501 16.3153 7.05501 16.4253L7.34501 16.6953H14.885ZM12.715 3.69531C16.405 3.69531 17.825 4.15531 18.375 4.68531H8.53501L10.535 6.68531H18.715V9.69531H13.545L15.545 11.6953H18.715V14.8653L20.525 16.6753C20.635 16.3653 20.715 16.0453 20.715 15.6953V5.69531C20.715 2.19531 17.135 1.69531 12.715 1.69531C10.195 1.69531 7.95501 1.85531 6.49501 2.64531L8.02501 4.17531C8.88501 3.89531 10.315 3.69531 12.715 3.69531Z" fill="black"/>
</svg>
