<svg width="24" height="24" viewBox="0 0 24 24" fill="none" xmlns="http://www.w3.org/2000/svg">
<path d="M21 13.1189H17.93C17.88 12.7289 17.81 12.3489 17.71 11.9789L20.29 10.4889L19.29 8.75891L16.92 10.1189C16.64 9.63891 16.3 9.20891 15.93 8.82891C16.03 8.26891 16.13 7.13891 15.35 5.93891L17 4.28891L15.59 2.87891L13.87 4.59891C12.19 3.70891 10.77 4.26891 10.14 4.59891L8.41 2.87891L7 4.28891L8.65 5.93891C7.87 7.13891 7.97 8.27891 8.07 8.82891C7.7 9.21891 7.36 9.64891 7.08 10.1189L4.71 8.74891L3.71 10.4789L6.29 11.9689C6.19 12.3389 6.12 12.7189 6.07 13.1089H3V15.1089H6.07C6.12 15.4989 6.19 15.8789 6.29 16.2489L3.71 17.7389L4.71 19.4689L7.08 18.1189C8.16 19.9289 9.96 21.1189 12 21.1189C14.04 21.1189 15.84 19.9289 16.92 18.1189L19.29 19.4889L20.29 17.7589L17.71 16.2689C17.81 15.8989 17.88 15.5189 17.93 15.1289H21V13.1189ZM12 6.11891C12.88 6.11891 13.62 6.68891 13.88 7.47891C13.29 7.24891 12.66 7.11891 12 7.11891C11.34 7.11891 10.71 7.24891 10.12 7.47891C10.38 6.68891 11.12 6.11891 12 6.11891ZM12 19.1189C9.79 19.1189 8 16.8789 8 14.1189C8 11.3589 9.79 9.11891 12 9.11891C14.21 9.11891 16 11.3589 16 14.1189C16 16.8789 14.21 19.1189 12 19.1189Z" fill="black"/>
<path d="M13 11.1189H11V17.1189H13V11.1189Z" fill="black"/>
</svg>
