<svg width="24" height="24" viewBox="0 0 24 24" fill="none" xmlns="http://www.w3.org/2000/svg">
<path d="M19.2788 4.93156L17.1588 2.81156C16.3788 2.03156 15.1088 2.03156 14.3288 2.81156L11.4988 5.64156L13.6187 7.76156L15.7388 5.64156L19.2788 9.18156C20.4488 8.00156 20.4488 6.10156 19.2788 4.93156Z" fill="black"/>
<path d="M5.48875 13.7716C6.07875 14.3616 7.02875 14.3616 7.60875 13.7716L10.0788 11.3016L7.95875 9.17156L5.48875 11.6416C4.89875 12.2316 4.89875 13.1816 5.48875 13.7716Z" fill="black"/>
<path d="M15.0387 7.76156L13.6187 9.18156L10.4387 6.00156C9.84875 5.40156 8.89875 5.40156 8.31875 5.99156C7.72875 6.58156 7.72875 7.53156 8.31875 8.11156L11.4988 11.2916L4.42875 18.3616C3.64875 19.1416 3.64875 20.4116 4.42875 21.1916C5.20875 21.9716 6.47875 21.9716 7.25875 21.1916L16.4488 12.0016C16.8388 12.3916 17.4688 12.3916 17.8588 12.0016C18.2488 11.6116 18.2488 10.9816 17.8588 10.5916L15.0387 7.76156Z" fill="black"/>
</svg>
