<svg width="24" height="24" viewBox="0 0 24 24" fill="none" xmlns="http://www.w3.org/2000/svg">
<path d="M21.05 18.0717L3.08 19.0117L3 17.5117L20.98 16.5717L21.05 18.0717ZM21 19.9917H3V21.4917H21V19.9917ZM23 13.5117V4.51172C23 3.41172 22.1 2.51172 21 2.51172H3C1.9 2.51172 1 3.41172 1 4.51172V13.5117C1 14.6117 1.9 15.5117 3 15.5117H21C22.1 15.5117 23 14.6117 23 13.5117ZM21 13.5117H3V4.51172H21V13.5117ZM20 6.51172C18.32 6.51172 16.96 7.49172 16.79 8.74172C16.15 8.01172 14.06 6.01172 10.25 6.01172C5.58 6.01172 3.5 9.01172 3.5 9.01172C3.5 9.01172 5.58 12.0117 10.25 12.0117C14.06 12.0117 16.15 10.0117 16.79 9.28172C16.96 10.5317 18.32 11.5117 20 11.5117V6.51172Z" fill="black"/>
</svg>
