<svg width="25" height="24" viewBox="0 0 25 24" fill="none" xmlns="http://www.w3.org/2000/svg">
<rect x="0.5" width="24" height="24" rx="12" fill="#0C0C0C"/>
<path d="M12.4971 4.80078C8.5165 4.80078 5.30005 8.02316 5.30005 11.9978C5.30005 15.0484 7.19556 17.6548 9.87298 18.7032C9.80782 18.1345 9.75452 17.2579 9.89667 16.6359C10.027 16.0732 10.7378 13.0581 10.7378 13.0581C10.7378 13.0581 10.5246 12.6257 10.5246 11.9919C10.5246 10.9908 11.1051 10.2445 11.8277 10.2445C12.4438 10.2445 12.74 10.7065 12.74 11.2574C12.74 11.8734 12.349 12.7975 12.1417 13.6564C11.9699 14.3731 12.503 14.9596 13.2079 14.9596C14.4874 14.9596 15.4707 13.609 15.4707 11.6661C15.4707 9.94237 14.2327 8.7399 12.4615 8.7399C10.412 8.7399 9.20955 10.2741 9.20955 11.8616C9.20955 12.4776 9.44649 13.141 9.74266 13.5024C9.80191 13.5735 9.80782 13.6386 9.79005 13.7097C9.73675 13.9348 9.61234 14.4264 9.58866 14.5271C9.55904 14.6575 9.48202 14.6871 9.34579 14.6219C8.45726 14.1954 7.90046 12.8804 7.90046 11.826C7.90046 9.55735 9.54718 7.47227 12.657 7.47227C15.1508 7.47227 17.0937 9.24932 17.0937 11.6306C17.0937 14.1125 15.5299 16.1087 13.3619 16.1087C12.6333 16.1087 11.9462 15.7296 11.7152 15.2794C11.7152 15.2794 11.3539 16.6537 11.265 16.9913C11.1051 17.6192 10.6667 18.4011 10.3705 18.8809C11.0458 19.0882 11.7566 19.2008 12.503 19.2008C16.4777 19.2008 19.7 15.9784 19.7 12.0037C19.6941 8.02316 16.4717 4.80078 12.4971 4.80078Z" fill="white"/>
</svg>
