<svg width="24" height="24" viewBox="0 0 24 24" fill="none" xmlns="http://www.w3.org/2000/svg">
<rect width="24" height="24" rx="12" fill="#0C0C0C"/>
<path d="M20 11.9983C20 11.0299 19.214 10.2439 18.2456 10.2439C17.7684 10.2439 17.3474 10.4264 17.0386 10.7352C15.8456 9.87903 14.1895 9.31763 12.3649 9.24745L13.1649 5.50008L15.7614 6.04745C15.7895 6.7071 16.3368 7.24043 17.0105 7.24043C17.6983 7.24043 18.2597 6.67903 18.2597 5.99131C18.2597 5.30359 17.6983 4.74219 17.0105 4.74219C16.5193 4.74219 16.0983 5.02289 15.9018 5.44394L12.9965 4.8264C12.9123 4.81236 12.8281 4.8264 12.7579 4.8685C12.6877 4.91061 12.6456 4.98078 12.6176 5.06499L11.7333 9.24745C9.86667 9.30359 8.1965 9.85096 6.98948 10.7352C6.68071 10.4404 6.24562 10.2439 5.78246 10.2439C4.81404 10.2439 4.02808 11.0299 4.02808 11.9983C4.02808 12.7141 4.44913 13.3176 5.06667 13.5983C5.0386 13.7667 5.02457 13.9492 5.02457 14.1317C5.02457 16.8264 8.15439 19.0018 12.0281 19.0018C15.9018 19.0018 19.0316 16.8264 19.0316 14.1317C19.0316 13.9492 19.0175 13.7808 18.9895 13.6124C19.5649 13.3317 20 12.7141 20 11.9983ZM8.00001 13.2475C8.00001 12.5597 8.56141 11.9983 9.24913 11.9983C9.93685 11.9983 10.4983 12.5597 10.4983 13.2475C10.4983 13.9352 9.93685 14.4966 9.24913 14.4966C8.56141 14.4966 8.00001 13.9352 8.00001 13.2475ZM14.9754 16.5457C14.1193 17.4018 12.4912 17.458 12.014 17.458C11.5368 17.458 9.89474 17.3878 9.05264 16.5457C8.92632 16.4194 8.92632 16.2089 9.05264 16.0825C9.17895 15.9562 9.38948 15.9562 9.5158 16.0825C10.0491 16.6159 11.2 16.8124 12.0281 16.8124C12.8561 16.8124 13.993 16.6159 14.5404 16.0825C14.6667 15.9562 14.8772 15.9562 15.0035 16.0825C15.1018 16.2229 15.1018 16.4194 14.9754 16.5457ZM14.7509 14.4966C14.0632 14.4966 13.5018 13.9352 13.5018 13.2475C13.5018 12.5597 14.0632 11.9983 14.7509 11.9983C15.4386 11.9983 16 12.5597 16 13.2475C16 13.9352 15.4386 14.4966 14.7509 14.4966Z" fill="white"/>
</svg>
