<svg width="24" height="24" viewBox="0 0 24 24" fill="none" xmlns="http://www.w3.org/2000/svg">
<path d="M18.345 4.26078C16.865 3.05078 15.035 2.25078 13.025 2.05078V4.07078C14.485 4.25078 15.815 4.83078 16.925 5.69078L18.345 4.26078ZM19.955 11.0008H21.975C21.775 8.99078 20.975 7.16078 19.765 5.68078L18.335 7.10078C19.195 8.21078 19.775 9.54078 19.955 11.0008ZM18.335 16.9008L19.765 18.3308C20.975 16.8508 21.775 15.0108 21.975 13.0108H19.955C19.775 14.4608 19.195 15.7908 18.335 16.9008ZM13.025 19.9308V21.9508C15.035 21.7508 16.865 20.9508 18.345 19.7408L16.915 18.3108C15.815 19.1708 14.485 19.7508 13.025 19.9308ZM15.615 10.5908L13.025 13.1708V7.00078H11.025V13.1708L8.43502 10.5808L7.02502 12.0008L12.025 17.0008L17.025 12.0008L15.615 10.5908ZM11.025 19.9308V21.9508C5.97502 21.4508 2.02502 17.1908 2.02502 12.0008C2.02502 6.81078 5.97502 2.55078 11.025 2.05078V4.07078C7.07502 4.56078 4.02502 7.92078 4.02502 12.0008C4.02502 16.0808 7.07502 19.4408 11.025 19.9308Z" fill="black"/>
</svg>
